OxygenSans-Book.ufo
<glyph name="exclam" format="1">
  <advance width="457.500002921"/>
  <unicode hex="0021"/>
  <outline>
    <contour>
      <point x="201.300001204" y="392.800000429" type="line"/>
      <point x="263.900002062" y="392.800000429" type="line"/>
      <point x="313.200002193" y="1248.79999793" type="line"/>
      <point x="313.200002193" y="1365.09999949" type="line"/>
      <point x="147.100001037" y="1365.09999949" type="line"/>
      <point x="147.100001037" y="1248.79999793" type="line"/>
    </contour>
    <contour>
      <point x="231.400001526" y="-11.8999999166" type="curve" smooth="yes"/>
      <point x="312.300001562" y="-11.8999999166"/>
      <point x="346.60000205" y="47.0000002384"/>
      <point x="346.60000205" y="104.000000596" type="curve" smooth="yes"/>
      <point x="346.60000205" y="161.300000966"/>
      <point x="312.300001562" y="219.500001132"/>
      <point x="231.400001526" y="219.500001132" type="curve" smooth="yes"/>
      <point x="152.300001442" y="219.500001132"/>
      <point x="116.600000978" y="161.300000966"/>
      <point x="116.600000978" y="104.000000596" type="curve" smooth="yes"/>
      <point x="116.600000978" y="47.0000002384"/>
      <point x="152.300001442" y="-11.8999999166"/>
    </contour>
  </outline>
</glyph>
<glyph name="quotedbl" format="1">
  <advance width="614.300002515"/>
  <unicode hex="0022"/>
  <outline>
    <contour>
      <point x="131.700000107" y="934.299998343" type="line"/>
      <point x="206.600001574" y="934.299998343" type="line"/>
      <point x="233.900001585" y="1375.19999933" type="line"/>
      <point x="114.399999857" y="1375.19999933" type="line"/>
    </contour>
    <contour>
      <point x="402.600001931" y="931.499998391" type="line"/>
      <point x="478.900003374" y="931.499998391" type="line"/>
      <point x="504.100003421" y="1375.19999933" type="line"/>
      <point x="385.300001681" y="1375.19999933" type="line"/>
    </contour>
  </outline>
</glyph>
<glyph name="numbersign" format="1">
  <advance width="1137.10000128"/>
  <unicode hex="0023"/>
  <outline>
    <contour>
      <point x="239.200000167" y="-22.099999845" type="line"/>
      <point x="341.500001609" y="-22.099999845" type="line"/>
      <point x="414.300001562" y="373.899999917" type="line"/>
      <point x="643.600000143" y="373.899999917" type="line"/>
      <point x="566.200000286" y="-22.099999845" type="line"/>
      <point x="690.700001419" y="-22.099999845" type="line"/>
      <point x="771.500001252" y="373.899999917" type="line"/>
      <point x="900.800002337" y="373.899999917" type="line"/>
      <point x="909.800002337" y="478.400001168" type="line"/>
      <point x="784.400001526" y="478.400001168" type="line"/>
      <point x="848.100001276" y="853.099999249" type="line"/>
      <point x="970.900002301" y="853.099999249" type="line"/>
      <point x="982.900002301" y="955.000000596" type="line"/>
      <point x="866.00000155" y="955.000000596" type="line"/>
      <point x="925.000001669" y="1329.00000012" type="line"/>
      <point x="823.800000191" y="1329.00000012" type="line"/>
      <point x="760.200000167" y="955.000000596" type="line"/>
      <point x="532.400001526" y="955.000000596" type="line"/>
      <point x="606.100001395" y="1329.00000012" type="line"/>
      <point x="478.80000031" y="1329.00000012" type="line"/>
      <point x="401.100000441" y="955.000000596" type="line"/>
      <point x="233.499999702" y="955.000000596" type="line"/>
      <point x="225.099999726" y="852.099999249" type="line"/>
      <point x="380.30000025" y="852.099999249" type="line"/>
      <point x="323.400000453" y="478.400001168" type="line"/>
      <point x="164.499999702" y="478.400001168" type="line"/>
      <point x="155.499999702" y="373.899999917" type="line"/>
      <point x="306.200000167" y="373.899999917" type="line"/>
    </contour>
    <contour>
      <point x="433.700001776" y="478.400001168" type="line"/>
      <point x="511.700001299" y="853.099999249" type="line"/>
      <point x="740.899999917" y="853.099999249" type="line"/>
      <point x="663.500000417" y="478.400001168" type="line"/>
    </contour>
  </outline>
</glyph>
<glyph name="dollar" format="1">
  <advance width="1159.80000019"/>
  <unicode hex="0024"/>
  <outline>
    <contour>
      <point x="545.399999976" y="-17.8537000025" type="line"/>
      <point x="326.059400919" y="-13.0712400158"/>
      <point x="205.634100551" y="67.0553692838"/>
      <point x="140.599999785" y="113.599999547" type="curve"/>
      <point x="197.000000238" y="234.400001168" type="line"/>
      <point x="283.800000072" y="171.100001395"/>
      <point x="404.800000787" y="113.400001645"/>
      <point x="574.600000143" y="113.400001645" type="curve" smooth="yes"/>
      <point x="764.599999309" y="113.400001645"/>
      <point x="870.699998677" y="180.800001383"/>
      <point x="876.999998569" y="352.800000548" type="curve" smooth="yes"/>
      <point x="881.899998486" y="487.099999607"/>
      <point x="826.899998486" y="540.499999583"/>
      <point x="656.399999738" y="605.399999022" type="curve" smooth="yes"/>
      <point x="431.999999642" y="688.799998879" type="line" smooth="yes"/>
      <point x="260.899999797" y="752.999998689"/>
      <point x="149.199999928" y="844.299999177"/>
      <point x="155.499999821" y="1026.59999931" type="curve" smooth="yes"/>
      <point x="164.38859967" y="1265.41199918"/>
      <point x="343.124699436" y="1355.30899986"/>
      <point x="545.399999976" y="1369.30999996" type="curve"/>
      <point x="545.399999976" y="1581.79999912" type="line"/>
      <point x="632.200000525" y="1581.79999912" type="line"/>
      <point x="633.369000505" y="1370.91799997" type="line"/>
      <point x="777.114700441" y="1365.32599993"/>
      <point x="907.240700439" y="1310.09100024"/>
      <point x="980.100001037" y="1257.4000001" type="curve"/>
      <point x="919.100000679" y="1142.89999837" type="line"/>
      <point x="872.599999905" y="1168.19999862"/>
      <point x="753.299999774" y="1239.39999831"/>
      <point x="600.700000346" y="1239.39999831" type="curve" smooth="yes"/>
      <point x="453.000000596" y="1239.39999831"/>
      <point x="316.000001669" y="1192.49999839"/>
      <point x="310.400001764" y="1031.59999931" type="curve" smooth="yes"/>
      <point x="306.200001836" y="919.000000119"/>
      <point x="353.700001657" y="872.700000107"/>
      <point x="483.300000489" y="821.900000632" type="curve" smooth="yes"/>
      <point x="696.600000501" y="740.100000799" type="line" smooth="yes"/>
      <point x="893.100001156" y="665.300000727"/>
      <point x="1038.00000048" y="587.500000179"/>
      <point x="1028.90000063" y="354.400000453" type="curve" smooth="yes"/>
      <point x="1019.1875008" y="108.082940663"/>
      <point x="855.165500815" y="1.3677641981"/>
      <point x="632.43730052" y="-15.4204599588" type="curve"/>
      <point x="633.600000501" y="-228.599998832" type="line"/>
      <point x="545.399999976" y="-228.599998832" type="line"/>
    </contour>
  </outline>
</glyph>
<glyph name="percent" format="1">
  <advance width="1706.50000054"/>
  <unicode hex="0025"/>
  <outline>
    <contour>
      <point x="1316.10000056" y="-12.3000000119" type="curve" smooth="yes"/>
      <point x="1103.70000046" y="-12.3000000119"/>
      <point x="997.500000298" y="140.699999988"/>
      <point x="997.500000298" y="337.699999988" type="curve" smooth="yes"/>
      <point x="997.500000298" y="535.699999988"/>
      <point x="1106.70000046" y="687.699999988"/>
      <point x="1316.10000056" y="687.699999988" type="curve" smooth="yes"/>
      <point x="1529.50000066" y="687.699999988"/>
      <point x="1635.70000082" y="538.699999988"/>
      <point x="1635.70000082" y="337.699999988" type="curve" smooth="yes"/>
      <point x="1635.70000082" y="140.699999988"/>
      <point x="1526.50000066" y="-12.3000000119"/>
    </contour>
    <contour>
      <point x="1317.50000054" y="75.9000006318" type="curve" smooth="yes"/>
      <point x="1463.80000019" y="75.9000006318"/>
      <point x="1526.20000005" y="191.30000037"/>
      <point x="1526.20000005" y="339.0" type="curve" smooth="yes"/>
      <point x="1526.20000005" y="492.099999607"/>
      <point x="1462.80000019" y="599.799999356"/>
      <point x="1317.50000054" y="599.799999356" type="curve" smooth="yes"/>
      <point x="1170.50000089" y="599.799999356"/>
      <point x="1106.10000104" y="486.399999619"/>
      <point x="1106.10000104" y="339.0" type="curve" smooth="yes"/>
      <point x="1106.10000104" y="186.900000393"/>
      <point x="1171.20000088" y="75.9000006318"/>
    </contour>
    <contour>
      <point x="390.799999952" y="751.800000668" type="curve" smooth="yes"/>
      <point x="537.099999607" y="751.800000668"/>
      <point x="599.499999464" y="867.200000405"/>
      <point x="599.499999464" y="1014.90000004" type="curve" smooth="yes"/>
      <point x="599.499999464" y="1167.99999964"/>
      <point x="536.099999607" y="1275.69999939"/>
      <point x="390.799999952" y="1275.69999939" type="curve" smooth="yes"/>
      <point x="243.80000031" y="1275.69999939"/>
      <point x="179.400000453" y="1162.29999965"/>
      <point x="179.400000453" y="1014.90000004" type="curve" smooth="yes"/>
      <point x="179.400000453" y="862.800000429"/>
      <point x="244.500000298" y="751.800000668"/>
    </contour>
    <contour>
      <point x="389.399999976" y="663.600000024" type="curve" smooth="yes"/>
      <point x="176.999999881" y="663.600000024"/>
      <point x="70.7999997139" y="816.600000024"/>
      <point x="70.7999997139" y="1013.60000002" type="curve" smooth="yes"/>
      <point x="70.7999997139" y="1211.60000002"/>
      <point x="179.999999881" y="1363.60000002"/>
      <point x="389.399999976" y="1363.60000002" type="curve" smooth="yes"/>
      <point x="602.800000072" y="1363.60000002"/>
      <point x="709.000000238" y="1214.60000002"/>
      <point x="709.000000238" y="1013.60000002" type="curve" smooth="yes"/>
      <point x="709.000000238" y="816.600000024"/>
      <point x="599.800000072" y="663.600000024"/>
    </contour>
    <contour>
      <point x="398.299999416" y="0.0" type="line"/>
      <point x="1177.99999952" y="1353.39999998" type="line"/>
      <point x="1305.30000085" y="1353.39999998" type="line"/>
      <point x="534.300000727" y="0.0" type="line"/>
    </contour>
  </outline>
</glyph>
<glyph name="ampersand" format="1">
  <advance width="1363.89999944"/>
  <unicode hex="0026"/>
  <outline>
    <contour>
      <point x="591.899999917" y="-12.8999997973" type="curve" smooth="yes"/>
      <point x="289.40000093" y="-12.8999997973"/>
      <point x="122.699999869" y="127.099999726"/>
      <point x="122.699999869" y="354.000000596" type="curve" smooth="yes"/>
      <point x="122.699999869" y="551.400000572"/>
      <point x="246.900000155" y="664.900000393"/>
      <point x="435.599999547" y="758.000000238" type="curve"/>
      <point x="335.400000095" y="864.999999762"/>
      <point x="284.799999714" y="953.499999702"/>
      <point x="284.799999714" y="1072.99999964" type="curve" smooth="yes"/>
      <point x="284.799999714" y="1250.40000021"/>
      <point x="418.30000025" y="1368.09999985"/>
      <point x="626.599999785" y="1368.09999985" type="curve" smooth="yes"/>
      <point x="816.299999416" y="1368.09999985"/>
      <point x="963.900000155" y="1266.60000014"/>
      <point x="963.900000155" y="1081.29999977" type="curve" smooth="yes"/>
      <point x="963.900000155" y="923.199999571"/>
      <point x="811.200000405" y="806.899999797"/>
      <point x="631.200001121" y="725.699999988" type="curve"/>
      <point x="1023.9999994" y="293.100001872" type="line"/>
      <point x="1075.2999993" y="346.100001872"/>
      <point x="1142.49999899" y="458.800001264"/>
      <point x="1175.799999" y="534.700001061" type="curve"/>
      <point x="1283.20000005" y="463.500000417" type="line"/>
      <point x="1248.09999996" y="383.800000429"/>
      <point x="1171.5000003" y="264.600000978"/>
      <point x="1108.30000037" y="199.300000966" type="curve"/>
      <point x="1267.20000088" y="33.9000003934" type="line"/>
      <point x="1138.99999952" y="-12.0999997258" type="line"/>
      <point x="1021.29999942" y="115.100000322" type="line"/>
      <point x="902.799999475" y="26.6000003815"/>
      <point x="781.999999166" y="-12.8999997973"/>
    </contour>
    <contour>
      <point x="601.099999845" y="103.800001264" type="curve" smooth="yes"/>
      <point x="738.799999118" y="103.800001264"/>
      <point x="846.399998903" y="135.100001276"/>
      <point x="937.999998569" y="207.200001001" type="curve"/>
      <point x="923.299997985" y="223.400001645"/>
      <point x="527.700000703" y="652.899998724"/>
      <point x="513.600000143" y="668.499999344" type="curve"/>
      <point x="367.40000093" y="596.399999619"/>
      <point x="269.300001204" y="500.500000298"/>
      <point x="269.300001204" y="362.60000062" type="curve" smooth="yes"/>
      <point x="269.300001204" y="201.500000775"/>
      <point x="389.100001037" y="103.800001264"/>
    </contour>
    <contour>
      <point x="552.300000489" y="814.000000834" type="curve"/>
      <point x="684.799999714" y="877.400000572"/>
      <point x="826.099998772" y="966.600000024"/>
      <point x="826.099998772" y="1085.19999969" type="curve" smooth="yes"/>
      <point x="826.099998772" y="1195.09999925"/>
      <point x="749.09999913" y="1254.09999889"/>
      <point x="628.699999869" y="1254.09999889" type="curve" smooth="yes"/>
      <point x="511.400000453" y="1254.09999889"/>
      <point x="417.900001109" y="1187.09999937"/>
      <point x="417.900001109" y="1079.19999969" type="curve" smooth="yes"/>
      <point x="417.900001109" y="987.49999994"/>
      <point x="467.300000966" y="893.200000525"/>
    </contour>
  </outline>
</glyph>
<glyph name="quotesingle" format="1">
  <advance width="329.900003135"/>
  <unicode hex="0027"/>
  <outline>
    <contour>
      <point x="116.800001144" y="895.999998927" type="line"/>
      <point x="210.300002158" y="895.999998927" type="line"/>
      <point x="226.900002301" y="1353.59999979" type="line"/>
      <point x="100.200000882" y="1353.59999979" type="line"/>
    </contour>
  </outline>
</glyph>
<glyph name="parenleft" format="1">
  <advance width="636.300001442"/>
  <unicode hex="0028"/>
  <outline>
    <contour>
      <point x="385.400000691" y="-214.899998724" type="curve"/>
      <point x="530.60000217" y="-214.899998724" type="line"/>
      <point x="358.300002754" y="56.2000006437"/>
      <point x="293.800001979" y="351.499999821"/>
      <point x="293.800001979" y="649.599999785" type="curve" smooth="yes"/>
      <point x="293.800001979" y="933.400000334"/>
      <point x="365.300003231" y="1196.90000135"/>
      <point x="531.60000217" y="1452.89999956" type="curve"/>
      <point x="383.700000703" y="1452.89999956" type="line"/>
      <point x="229.40000093" y="1228.90000015"/>
      <point x="141.000000477" y="947.700000107"/>
      <point x="141.000000477" y="645.499999821" type="curve" smooth="yes"/>
      <point x="141.000000477" y="314.800000072"/>
      <point x="231.700000703" y="-0.299998700619"/>
    </contour>
  </outline>
</glyph>
<glyph name="parenright" format="1">
  <advance width="652.900001347"/>
  <unicode hex="0029"/>
  <outline>
    <contour>
      <point x="117.399999499" y="-214.899998724" type="curve"/>
      <point x="263.200001001" y="-214.899998724" type="line"/>
      <point x="413.300000846" y="-8.39999902248"/>
      <point x="507.300001204" y="319.000000238"/>
      <point x="507.300001204" y="650.600000024" type="curve" smooth="yes"/>
      <point x="507.300001204" y="951.900000274"/>
      <point x="422.200000882" y="1220.79999983"/>
      <point x="264.300000966" y="1452.89999956" type="curve"/>
      <point x="116.999999523" y="1452.89999956" type="line"/>
      <point x="293.499998868" y="1172.00000036"/>
      <point x="354.499999702" y="931.30000025"/>
      <point x="354.499999702" y="653.49999994" type="curve" smooth="yes"/>
      <point x="354.499999702" y="349.399999738"/>
      <point x="279.49999851" y="31.2999996543"/>
    </contour>
  </outline>
</glyph>
<glyph name="asterisk" format="1">
  <advance width="1113.99999964"/>
  <unicode hex="002A"/>
  <outline>
    <contour>
      <point x="457.800004125" y="520.399998903" type="line"/>
      <point x="448.700007617" y="602.299999416" type="line"/>
      <point x="448.700007617" y="602.299999416"/>
      <point x="560.70000273" y="896.499998152"/>
      <point x="549.300002277" y="910.899998724" type="curve"/>
      <point x="397.800010085" y="987.999998569" type="line"/>
      <point x="401.200008988" y="1133.79999971" type="line"/>
      <point x="552.100001276" y="994.399999976" type="line"/>
      <point x="536.300002038" y="1373.79999936" type="line"/>
      <point x="560.999997854" y="1373.79999936" type="line"/>
      <point x="545.099998653" y="994.399999976" type="line"/>
      <point x="697.599990964" y="1133.79999971" type="line"/>
      <point x="701.499989808" y="987.999998569" type="line"/>
      <point x="544.799997687" y="910.899998724" type="line"/>
      <point x="570.699997246" y="874.499999344"/>
      <point x="559.299993813" y="719.199997425"/>
      <point x="650.999992251" y="602.299999416" type="curve"/>
      <point x="594.999993205" y="567.300000012"/>
      <point x="697.999994874" y="556.699998319"/>
      <point x="641.999995828" y="521.699998915" type="curve"/>
      <point x="544.300000012" y="857.199998021" type="line"/>
    </contour>
  </outline>
</glyph>
<glyph name="plus" format="1">
  <advance width="1051.79999971"/>
  <unicode hex="002B"/>
  <outline>
    <contour>
      <point x="472.399999261" y="161.499999464" type="line"/>
      <point x="590.500000536" y="161.499999464" type="line"/>
      <point x="590.500000536" y="536.999999404" type="line"/>
      <point x="941.000000715" y="536.999999404" type="line"/>
      <point x="941.000000715" y="643.700000823" type="line"/>
      <point x="590.800000548" y="643.700000823" type="line"/>
      <point x="590.800000548" y="1013.90000087" type="line"/>
      <point x="472.699999273" y="1013.90000087" type="line"/>
      <point x="472.699999273" y="643.700000823" type="line"/>
      <point x="115.599999189" y="643.700000823" type="line"/>
      <point x="115.599999189" y="536.999999404" type="line"/>
      <point x="472.399999261" y="536.999999404" type="line"/>
    </contour>
  </outline>
</glyph>
<glyph name="comma" format="1">
  <advance width="460.100001156"/>
  <unicode hex="002C"/>
  <outline>
    <contour>
      <point x="136.49999994" y="-256.099999607" type="curve"/>
      <point x="214.100001633" y="-256.099999607" type="line"/>
      <point x="272.200000644" y="-99.3000022769"/>
      <point x="303.200002551" y="22.000002861"/>
      <point x="342.400001884" y="170.400000334" type="curve"/>
      <point x="341.800001979" y="207.900000632" type="line"/>
      <point x="174.800000787" y="207.900000632" type="line"/>
      <point x="165.700000942" y="58.1000031829"/>
      <point x="155.399999619" y="-98.6000022888"/>
    </contour>
  </outline>
</glyph>
<glyph name="hyphen" format="1">
  <advance width="683.599998474"/>
  <unicode hex="002D"/>
  <outline>
    <contour>
      <point x="113.699999034" y="459.199999094" type="line"/>
      <point x="559.299999893" y="459.199999094" type="line"/>
      <point x="559.299999893" y="582.900000393" type="line"/>
      <point x="113.699999034" y="582.900000393" type="line"/>
    </contour>
  </outline>
</glyph>
<glyph name="period" format="1">
  <advance width="467.800001383"/>
  <unicode hex="002E"/>
  <outline>
    <contour>
      <point x="235.500000775" y="-13.0999997258" type="curve" smooth="yes"/>
      <point x="315.700000823" y="-13.0999997258"/>
      <point x="350.700001299" y="45.5000004172"/>
      <point x="350.700001299" y="102.500000775" type="curve" smooth="yes"/>
      <point x="350.700001299" y="159.800001144"/>
      <point x="315.700000823" y="218.700001299"/>
      <point x="235.500000775" y="218.700001299" type="curve" smooth="yes"/>
      <point x="155.000000715" y="218.700001299"/>
      <point x="120.400000215" y="159.800001144"/>
      <point x="120.400000215" y="102.500000775" type="curve" smooth="yes"/>
      <point x="120.400000215" y="45.9000003934"/>
      <point x="156.000000715" y="-13.0999997258"/>
    </contour>
  </outline>
</glyph>
<glyph name="slash" format="1">
  <advance width="917.39999938"/>
  <unicode hex="002F"/>
  <outline>
    <contour>
      <point x="86.7999994755" y="-202.699999392" type="line"/>
      <point x="199.100001156" y="-202.699999392" type="line"/>
      <point x="829.999999881" y="1329.0000006" type="line"/>
      <point x="715.399998188" y="1329.0000006" type="line"/>
    </contour>
  </outline>
</glyph>
<glyph name="zero" format="1">
  <advance width="1181.50000125"/>
  <unicode hex="0030"/>
  <outline>
    <contour>
      <point x="594.800000548" y="100.200001478" type="curve" smooth="yes"/>
      <point x="404.900000632" y="100.200001478"/>
      <point x="287.700001776" y="284.200002432"/>
      <point x="287.700001776" y="674.200000048" type="curve"/>
      <point x="286.900001824" y="1045.1999979"/>
      <point x="404.800000668" y="1236.99999857"/>
      <point x="594.800000548" y="1236.99999857" type="curve" smooth="yes"/>
      <point x="784.700000465" y="1236.99999857"/>
      <point x="893.89999944" y="1071.89999741"/>
      <point x="893.89999944" y="674.699999988" type="curve" smooth="yes"/>
      <point x="893.89999944" y="284.300002396"/>
      <point x="784.700000465" y="100.200001478"/>
    </contour>
    <contour>
      <point x="594.800000548" y="-27.099999845" type="curve" smooth="yes"/>
      <point x="917.600001335" y="-27.099999845"/>
      <point x="1049.50000125" y="262.90000087"/>
      <point x="1049.50000125" y="669.099999964" type="curve" smooth="yes"/>
      <point x="1049.50000125" y="1097.09999877"/>
      <point x="902.00000155" y="1364.69999987"/>
      <point x="594.800000548" y="1364.69999987" type="curve" smooth="yes"/>
      <point x="287.499999583" y="1364.69999987"/>
      <point x="132.0" y="1096.59999883"/>
      <point x="132.0" y="669.099999964" type="curve" smooth="yes"/>
      <point x="132.0" y="262.90000087"/>
      <point x="272.299999774" y="-27.099999845"/>
    </contour>
  </outline>
</glyph>
<glyph name="one" format="1">
  <advance width="1119.09999996"/>
  <unicode hex="0031"/>
  <outline>
    <contour>
      <point x="193.900000036" y="0.0" type="line"/>
      <point x="962.000000596" y="0.0" type="line"/>
      <point x="962.000000596" y="121.600001335" type="line"/>
      <point x="619.700000465" y="121.600001335" type="line"/>
      <point x="678.400001049" y="62.6000007391" type="line"/>
      <point x="678.400001049" y="1348.59999979" type="line"/>
      <point x="533.69999975" y="1348.59999979" type="line"/>
      <point x="462.69999963" y="1298.19999969"/>
      <point x="299.000000238" y="1248.09999973"/>
      <point x="220.499999583" y="1232.19999945" type="curve"/>
      <point x="220.499999583" y="1106.79999816" type="line"/>
      <point x="312.600000381" y="1118.99999833"/>
      <point x="489.799999714" y="1173.29999834"/>
      <point x="560.499999464" y="1230.49999827" type="curve"/>
      <point x="521.799999356" y="1251.89999849" type="line"/>
      <point x="521.799999356" y="64.0000007153" type="line"/>
      <point x="579.099999964" y="121.600001335" type="line"/>
      <point x="193.900000036" y="121.600001335" type="line"/>
    </contour>
  </outline>
</glyph>
<glyph name="two" format="1">
  <advance width="1126.30000025"/>
  <unicode hex="0032"/>
  <outline>
    <contour>
      <point x="148.100000322" y="0.0" type="line"/>
      <point x="947.400000095" y="0.0" type="line"/>
      <point x="956.000000238" y="121.600001335" type="line"/>
      <point x="223.000002027" y="121.600001335" type="line"/>
      <point x="242.500002444" y="67.3000008464" type="line"/>
      <point x="709.400000334" y="535.599999189" type="line" smooth="yes"/>
      <point x="887.200000167" y="714.799999237"/>
      <point x="950.000000477" y="809.000000119"/>
      <point x="950.000000477" y="1000.89999956" type="curve" smooth="yes"/>
      <point x="950.000000477" y="1276.19999909"/>
      <point x="692.100001633" y="1367.49999982"/>
      <point x="520.700000346" y="1367.49999982" type="curve" smooth="yes"/>
      <point x="368.200000167" y="1367.49999982"/>
      <point x="225.000000358" y="1311.89999968"/>
      <point x="145.900000393" y="1256.09999949" type="curve"/>
      <point x="192.90000087" y="1143.59999824" type="line"/>
      <point x="274.700000107" y="1193.59999788"/>
      <point x="397.300000131" y="1242.99999845"/>
      <point x="516.800000191" y="1242.99999845" type="curve" smooth="yes"/>
      <point x="633.800000072" y="1242.99999845"/>
      <point x="796.699998677" y="1187.19999802"/>
      <point x="796.699998677" y="985.69999963" type="curve" smooth="yes"/>
      <point x="796.699998677" y="832.100000799"/>
      <point x="726.599998832" y="753.500000179"/>
      <point x="609.499999464" y="634.800000668" type="curve" smooth="yes"/>
      <point x="124.60000062" y="139.800001144" type="line"/>
    </contour>
  </outline>
</glyph>
<glyph name="three" format="1">
  <advance width="1140.40000081"/>
  <unicode hex="0033"/>
  <outline>
    <contour>
      <point x="522.000000358" y="-18.0" type="curve" smooth="yes"/>
      <point x="802.49999994" y="-18.0"/>
      <point x="984.300000489" y="125.099999845"/>
      <point x="984.300000489" y="366.300000012" type="curve" smooth="yes"/>
      <point x="984.300000489" y="563.299999297"/>
      <point x="865.500001132" y="687.499999583"/>
      <point x="694.300001562" y="722.399999738" type="curve"/>
      <point x="852.200001001" y="762.099999964"/>
      <point x="949.000000477" y="850.700000107"/>
      <point x="949.000000477" y="1031.79999936" type="curve" smooth="yes"/>
      <point x="949.000000477" y="1247.49999934"/>
      <point x="755.000000715" y="1367.49999982"/>
      <point x="523.400000453" y="1367.49999982" type="curve" smooth="yes"/>
      <point x="383.600000024" y="1367.49999982"/>
      <point x="252.700000226" y="1330.79999983"/>
      <point x="143.700000346" y="1263.5999999" type="curve"/>
      <point x="193.200000763" y="1151.49999863" type="line"/>
      <point x="282.600000501" y="1208.59999847"/>
      <point x="399.30000025" y="1243.29999846"/>
      <point x="513.30000025" y="1243.29999846" type="curve" smooth="yes"/>
      <point x="673.399999857" y="1243.29999846"/>
      <point x="802.399998784" y="1167.19999826"/>
      <point x="802.399998784" y="1017.69999927" type="curve" smooth="yes"/>
      <point x="802.399998784" y="810.200000286"/>
      <point x="606.199999928" y="787.400000215"/>
      <point x="414.300000012" y="781.500000298" type="curve"/>
      <point x="372.499999702" y="781.500000298" type="line"/>
      <point x="372.499999702" y="655.699999034" type="line"/>
      <point x="412.900000036" y="655.699999034" type="line"/>
      <point x="646.999999642" y="650.699999034"/>
      <point x="834.099998653" y="606.299999177"/>
      <point x="834.099998653" y="367.100000203" type="curve" smooth="yes"/>
      <point x="834.099998653" y="192.100001276"/>
      <point x="712.499999344" y="106.500001371"/>
      <point x="523.000000358" y="106.500001371" type="curve" smooth="yes"/>
      <point x="394.500000536" y="106.500001371"/>
      <point x="261.400000691" y="163.700001061"/>
      <point x="209.600000501" y="201.000001311" type="curve"/>
      <point x="157.800000072" y="89.8000000715" type="line"/>
      <point x="195.000000834" y="59.699999392"/>
      <point x="353.900000632" y="-18.0"/>
    </contour>
  </outline>
</glyph>
<glyph name="four" format="1">
  <advance width="1157.8000015"/>
  <unicode hex="0034"/>
  <outline>
    <contour>
      <point x="746.499999583" y="0.0" type="line"/>
      <point x="895.500001371" y="0.0" type="line"/>
      <point x="895.500001371" y="344.999999166" type="line"/>
      <point x="1052.3000012" y="344.999999166" type="line"/>
      <point x="1063.50000125" y="465.800000548" type="line"/>
      <point x="895.500001371" y="465.800000548" type="line"/>
      <point x="895.500001371" y="1348.59999979" type="line"/>
      <point x="736.699998796" y="1348.59999979" type="line"/>
      <point x="122.600000262" y="477.899999917" type="line"/>
      <point x="122.600000262" y="344.999999166" type="line"/>
      <point x="746.499999583" y="344.999999166" type="line"/>
    </contour>
    <contour>
      <point x="278.000002027" y="466.000000477" type="line"/>
      <point x="745.799999595" y="1154.39999831" type="line"/>
      <point x="745.799999595" y="466.000000477" type="line"/>
    </contour>
  </outline>
</glyph>
<glyph name="five" format="1">
  <advance width="1150.60000122"/>
  <unicode hex="0035"/>
  <outline>
    <contour>
      <point x="537.90000087" y="-18.6999999881" type="curve" smooth="yes"/>
      <point x="809.300001562" y="-18.6999999881"/>
      <point x="1019.90000099" y="140.500000417"/>
      <point x="1019.90000099" y="431.49999994" type="curve" smooth="yes"/>
      <point x="1019.90000099" y="659.400000334"/>
      <point x="871.10000056" y="844.500000179"/>
      <point x="596.90000087" y="844.500000179" type="curve" smooth="yes"/>
      <point x="514.100001395" y="844.500000179"/>
      <point x="437.00000155" y="820.600000024"/>
      <point x="357.60000205" y="771.000000477" type="curve"/>
      <point x="358.200002074" y="789.900001228"/>
      <point x="390.100001872" y="1209.79999781"/>
      <point x="390.700001895" y="1224.19999838" type="curve"/>
      <point x="950.100001037" y="1224.19999838" type="line"/>
      <point x="962.200001121" y="1348.59999979" type="line"/>
      <point x="257.000000119" y="1348.59999979" type="line"/>
      <point x="213.000000238" y="636.199999213" type="line"/>
      <point x="339.600001216" y="621.199998975" type="line"/>
      <point x="397.500001252" y="683.799998999"/>
      <point x="491.600000858" y="721.199998856"/>
      <point x="583.800000429" y="721.199998856" type="curve" smooth="yes"/>
      <point x="781.199999094" y="721.199998856"/>
      <point x="860.899999201" y="588.599999666"/>
      <point x="860.899999201" y="428.600000024" type="curve" smooth="yes"/>
      <point x="860.899999201" y="222.000001192"/>
      <point x="717.400000334" y="107.100001395"/>
      <point x="522.400000691" y="107.100001395" type="curve" smooth="yes"/>
      <point x="404.300000131" y="107.100001395"/>
      <point x="284.399999857" y="157.10000211"/>
      <point x="207.800000906" y="205.200001478" type="curve"/>
      <point x="154.500000298" y="93.2000002861" type="line"/>
      <point x="241.599999189" y="38.5000008941"/>
      <point x="389.699999869" y="-18.6999999881"/>
    </contour>
  </outline>
</glyph>
<glyph name="six" format="1">
  <advance width="1214.00000072"/>
  <unicode hex="0036"/>
  <outline>
    <contour>
      <point x="595.800000548" y="-18.0" type="curve" smooth="yes"/>
      <point x="865.400000691" y="-18.0"/>
      <point x="1036.80000138" y="167.299999774"/>
      <point x="1036.80000138" y="403.000000238" type="curve" smooth="yes"/>
      <point x="1036.80000138" y="646.700000346"/>
      <point x="843.100001395" y="807.200000525"/>
      <point x="624.900000751" y="807.200000525" type="curve" smooth="yes"/>
      <point x="403.800003052" y="807.200000525"/>
      <point x="288.500003517" y="626.000002742"/>
      <point x="276.30000335" y="608.100002944" type="curve"/>
      <point x="301.900003731" y="584.600002408" type="line"/>
      <point x="301.900003731" y="584.600002408"/>
      <point x="448.40000391" y="775.400002718"/>
      <point x="528.900002539" y="893.700000703" type="curve"/>
      <point x="848.300002277" y="1348.59999979" type="line"/>
      <point x="670.100000083" y="1348.59999979" type="line"/>
      <point x="360.899999201" y="907.59999907" type="line" smooth="yes"/>
      <point x="237.69999963" y="730.399999857"/>
      <point x="155.099999607" y="606.399999857"/>
      <point x="155.099999607" y="406.600000262" type="curve" smooth="yes"/>
      <point x="155.099999607" y="182.599999547"/>
      <point x="311.700000465" y="-18.0"/>
    </contour>
    <contour>
      <point x="591.400000453" y="104.400001287" type="curve" smooth="yes"/>
      <point x="400.70000118" y="104.400001287"/>
      <point x="305.50000149" y="239.10000056"/>
      <point x="305.50000149" y="396.30000025" type="curve" smooth="yes"/>
      <point x="305.50000149" y="618.499998868"/>
      <point x="474.899999678" y="686.39999938"/>
      <point x="597.900000393" y="686.39999938" type="curve" smooth="yes"/>
      <point x="782.0" y="686.39999938"/>
      <point x="884.799999475" y="567.499999821"/>
      <point x="884.799999475" y="401.800000191" type="curve" smooth="yes"/>
      <point x="884.799999475" y="242.500000536"/>
      <point x="781.899999797" y="104.400001287"/>
    </contour>
  </outline>
</glyph>
<glyph name="seven" format="1">
  <advance width="1101.09999925"/>
  <unicode hex="0037"/>
  <outline>
    <contour>
      <point x="319.399998665" y="0.699999988079" type="line"/>
      <point x="476.100000799" y="0.699999988079" type="line"/>
      <point x="958.799999833" y="1240.59999883" type="line"/>
      <point x="958.799999833" y="1348.59999979" type="line"/>
      <point x="165.199999094" y="1348.59999979" type="line"/>
      <point x="179.799998641" y="1225.7999984" type="line"/>
      <point x="797.199997663" y="1225.7999984" type="line"/>
    </contour>
  </outline>
</glyph>
<glyph name="eight" format="1">
  <advance width="1162.30000168"/>
  <unicode hex="0038"/>
  <outline>
    <contour>
      <point x="581.90000087" y="-18.0" type="curve" smooth="yes"/>
      <point x="824.000000954" y="-18.0"/>
      <point x="1019.50000125" y="100.700000226"/>
      <point x="1019.50000125" y="338.600000381" type="curve" smooth="yes"/>
      <point x="1019.50000125" y="513.100000203"/>
      <point x="911.600001693" y="651.199999809"/>
      <point x="740.200002551" y="706.399999976" type="curve"/>
      <point x="890.3000018" y="760.400000095"/>
      <point x="989.900001347" y="864.799999952"/>
      <point x="989.900001347" y="1031.29999965" type="curve" smooth="yes"/>
      <point x="989.900001347" y="1245.09999996"/>
      <point x="822.300000846" y="1367.49999982"/>
      <point x="582.300000846" y="1367.49999982" type="curve" smooth="yes"/>
      <point x="341.500000894" y="1367.49999982"/>
      <point x="171.30000037" y="1245.09999996"/>
      <point x="171.30000037" y="1031.29999965" type="curve" smooth="yes"/>
      <point x="171.30000037" y="865.299999893"/>
      <point x="280.299999893" y="752.100000203"/>
      <point x="425.599999309" y="704.300000012" type="curve"/>
      <point x="245.500000179" y="641.699999988"/>
      <point x="142.800000429" y="527.0"/>
      <point x="142.800000429" y="338.900000393" type="curve" smooth="yes"/>
      <point x="142.800000429" y="100.600000262"/>
      <point x="341.300000727" y="-18.0"/>
    </contour>
    <contour>
      <point x="581.90000087" y="96.6000009775" type="curve" smooth="yes"/>
      <point x="387.400001764" y="96.6000009775"/>
      <point x="283.10000211" y="184.500000775"/>
      <point x="283.10000211" y="345.200000167" type="curve" smooth="yes"/>
      <point x="283.10000211" y="509.69999963"/>
      <point x="412.700001538" y="603.799999475"/>
      <point x="581.90000087" y="640.199999452" type="curve"/>
      <point x="752.200000167" y="603.799999475"/>
      <point x="877.299999654" y="503.099999726"/>
      <point x="877.299999654" y="345.500000179" type="curve" smooth="yes"/>
      <point x="877.299999654" y="178.200000882"/>
      <point x="781.599999905" y="96.6000009775"/>
    </contour>
    <contour>
      <point x="581.90000087" y="754.700000346" type="curve"/>
      <point x="408.300001562" y="792.700000226"/>
      <point x="316.500001729" y="889.199999928"/>
      <point x="316.500001729" y="1035.19999957" type="curve" smooth="yes"/>
      <point x="316.500001729" y="1168.69999903"/>
      <point x="424.600001454" y="1250.79999876"/>
      <point x="581.90000087" y="1250.79999876" type="curve" smooth="yes"/>
      <point x="740.600000262" y="1250.79999876"/>
      <point x="844.300000012" y="1168.69999903"/>
      <point x="844.300000012" y="1035.19999957" type="curve" smooth="yes"/>
      <point x="844.300000012" y="889.199999928"/>
      <point x="756.600000143" y="792.700000226"/>
    </contour>
  </outline>
</glyph>
<glyph name="nine" format="1">
  <advance width="1150.3000012"/>
  <unicode hex="0039"/>
  <outline>
    <contour>
      <point x="296.199999332" y="0.0" type="line"/>
      <point x="481.100001514" y="0.0" type="line"/>
      <point x="481.100001514" y="0.0"/>
      <point x="807.400001884" y="436.800000548"/>
      <point x="813.700002134" y="445.200000882" type="curve" smooth="yes"/>
      <point x="939.100001514" y="616.50000006"/>
      <point x="1031.30000132" y="744.0"/>
      <point x="1031.30000132" y="942.599999547" type="curve" smooth="yes"/>
      <point x="1031.30000132" y="1167.20000029"/>
      <point x="874.700000465" y="1367.49999982"/>
      <point x="590.600000381" y="1367.49999982" type="curve" smooth="yes"/>
      <point x="320.700000226" y="1367.49999982"/>
      <point x="149.599999547" y="1181.90000004"/>
      <point x="149.599999547" y="945.299999535" type="curve" smooth="yes"/>
      <point x="149.599999547" y="700.699999392"/>
      <point x="342.999999523" y="540.799999237"/>
      <point x="561.200000167" y="540.799999237" type="curve" smooth="yes"/>
      <point x="776.899997652" y="540.799999237"/>
      <point x="899.099997461" y="720.799996972"/>
      <point x="910.399997592" y="740.199996829" type="curve"/>
      <point x="884.199997187" y="761.29999727" type="line"/>
      <point x="884.199997187" y="761.29999727"/>
      <point x="733.899997532" y="578.999997497"/>
      <point x="648.499998987" y="464.199999452" type="curve"/>
    </contour>
    <contour>
      <point x="588.800000548" y="660.700000346" type="curve" smooth="yes"/>
      <point x="404.700000942" y="660.700000346"/>
      <point x="301.300001442" y="780.49999994"/>
      <point x="301.300001442" y="947.099999607" type="curve" smooth="yes"/>
      <point x="301.300001442" y="1106.99999928"/>
      <point x="405.100001156" y="1245.39999855"/>
      <point x="595.600000501" y="1245.39999855" type="curve" smooth="yes"/>
      <point x="786.299999774" y="1245.39999855"/>
      <point x="881.199999452" y="1110.69999927"/>
      <point x="881.199999452" y="953.199999571" type="curve" smooth="yes"/>
      <point x="881.199999452" y="729.800000906"/>
      <point x="711.500001252" y="660.700000346"/>
    </contour>
  </outline>
</glyph>
<glyph name="colon" format="1">
  <advance width="514.10000211"/>
  <unicode hex="003A"/>
  <outline>
    <contour>
      <point x="167.200000405" y="-23.7999995947" type="line"/>
      <point x="338.500001848" y="-23.7999995947" type="line"/>
      <point x="338.500001848" y="179.200001478" type="line"/>
      <point x="167.200000405" y="179.200001478" type="line"/>
    </contour>
    <contour>
      <point x="167.200000405" y="818.399999022" type="line"/>
      <point x="338.500001848" y="818.399999022" type="line"/>
      <point x="338.500001848" y="1020.89999992" type="line"/>
      <point x="167.200000405" y="1020.89999992" type="line"/>
    </contour>
  </outline>
</glyph>
<glyph name="semicolon" format="1">
  <advance width="505.100002229"/>
  <unicode hex="003B"/>
  <outline>
    <contour>
      <point x="142.700000823" y="-281.400000095" type="line"/>
      <point x="232.800001979" y="-281.400000095" type="line"/>
      <point x="346.700002015" y="168.200001359" type="line"/>
      <point x="194.100000799" y="168.200001359" type="line"/>
    </contour>
    <contour>
      <point x="179.700000465" y="820.199999094" type="line"/>
      <point x="350.700001895" y="820.199999094" type="line"/>
      <point x="350.700001895" y="1023.39999998" type="line"/>
      <point x="179.700000465" y="1023.39999998" type="line"/>
    </contour>
  </outline>
</glyph>
<glyph name="less" format="1">
  <advance width="1121.79999971"/>
  <unicode hex="003C"/>
  <outline>
    <contour>
      <point x="975.299999893" y="127.000000715" type="line"/>
      <point x="975.299999893" y="127.000000715"/>
      <point x="975.699999869" y="259.800002098"/>
      <point x="975.399999857" y="260.10000211" type="curve" smooth="yes"/>
      <point x="248.500001967" y="590.300001085" type="line"/>
      <point x="977.399999857" y="942.900000155" type="line"/>
      <point x="977.399999857" y="1075.80000138" type="line"/>
      <point x="103.699999869" y="627.400001407" type="line"/>
      <point x="103.699999869" y="545.300000727" type="line"/>
    </contour>
  </outline>
</glyph>
<glyph name="greater" format="1">
  <advance width="1130.89999956"/>
  <unicode hex="003E"/>
  <outline>
    <contour>
      <point x="136.699999988" y="132.500000656" type="line"/>
      <point x="1011.09999996" y="543.900000751" type="line"/>
      <point x="1011.09999996" y="626.400001407" type="line"/>
      <point x="138.799999952" y="1081.7000013" type="line"/>
      <point x="138.799999952" y="949.50000006" type="line"/>
      <point x="863.199997902" y="590.300001085" type="line"/>
      <point x="136.699999988" y="266.300002038" type="line"/>
    </contour>
  </outline>
</glyph>
<glyph name="question" format="1">
  <advance width="888.500001371"/>
  <unicode hex="003F"/>
  <outline>
    <contour>
      <point x="419.800001621" y="391.500000536" type="line"/>
      <point x="556.300001562" y="702.899999797"/>
      <point x="745.600001812" y="846.099999726"/>
      <point x="745.600001812" y="1098.99999917" type="curve" smooth="yes"/>
      <point x="745.600001812" y="1283.89999968"/>
      <point x="621.000000715" y="1390.99999952"/>
      <point x="423.300001323" y="1390.99999952" type="curve" smooth="yes"/>
      <point x="332.600000381" y="1390.99999952"/>
      <point x="210.200000763" y="1369.69999927"/>
      <point x="130.000000596" y="1304.09999937" type="curve"/>
      <point x="164.20000124" y="1187.69999856" type="line"/>
      <point x="206.400001407" y="1214.09999865"/>
      <point x="290.600001216" y="1260.29999858"/>
      <point x="397.900001347" y="1260.29999858" type="curve" smooth="yes"/>
      <point x="522.400001049" y="1260.29999858"/>
      <point x="608.900000632" y="1212.59999835"/>
      <point x="610.60000062" y="1088.99999881" type="curve"/>
      <point x="610.60000062" y="906.499999225"/>
      <point x="340.800001621" y="594.900001585"/>
      <point x="348.40000093" y="390.500000656" type="curve"/>
    </contour>
    <contour>
      <point x="399.900000989" y="-11.8999999166" type="curve" smooth="yes"/>
      <point x="481.300000966" y="-11.8999999166"/>
      <point x="516.800001383" y="47.0000002384"/>
      <point x="516.800001383" y="104.000000596" type="curve" smooth="yes"/>
      <point x="516.800001383" y="161.300000966"/>
      <point x="481.300000966" y="219.500001132"/>
      <point x="399.900000989" y="219.500001132" type="curve" smooth="yes"/>
      <point x="320.000000954" y="219.500001132"/>
      <point x="284.400000453" y="161.300000966"/>
      <point x="284.400000453" y="104.000000596" type="curve" smooth="yes"/>
      <point x="284.400000453" y="47.4000002146"/>
      <point x="320.300000966" y="-11.8999999166"/>
    </contour>
  </outline>
</glyph>
<glyph name="at" format="1">
  <advance width="1884.79999757"/>
  <unicode hex="0040"/>
  <outline>
    <contour>
      <point x="921.499998868" y="-186.899998844" type="curve" smooth="yes"/>
      <point x="1105.79999864" y="-186.899998844"/>
      <point x="1279.99999881" y="-143.699998915"/>
      <point x="1404.09999865" y="-60.3999990225" type="curve"/>
      <point x="1366.29999858" y="31.2000014782" type="line"/>
      <point x="1238.19999874" y="-42.3999984264"/>
      <point x="1081.39999866" y="-82.299998343"/>
      <point x="922.499998868" y="-82.299998343" type="curve" smooth="yes"/>
      <point x="538.399999022" y="-82.299998343"/>
      <point x="290.200000167" y="167.800002217"/>
      <point x="290.200000167" y="568.30000037" type="curve" smooth="yes"/>
      <point x="290.200000167" y="971.999998808"/>
      <point x="573.499998868" y="1282.39999902"/>
      <point x="982.599998713" y="1282.39999902" type="curve" smooth="yes"/>
      <point x="1363.8999992" y="1282.39999902"/>
      <point x="1603.79999757" y="1035.59999871"/>
      <point x="1603.79999757" y="709.100000203" type="curve" smooth="yes"/>
      <point x="1603.79999757" y="467.799999952"/>
      <point x="1508.79999733" y="306.400001049"/>
      <point x="1342.99999869" y="306.400001049" type="curve" smooth="yes"/>
      <point x="1260.09999913" y="306.400001049"/>
      <point x="1226.3999989" y="372.200000644"/>
      <point x="1226.3999989" y="460.600000262" type="curve" smooth="yes"/>
      <point x="1226.3999989" y="579.000000119"/>
      <point x="1262.49999887" y="756.999999881"/>
      <point x="1289.59999883" y="950.299999654" type="curve"/>
      <point x="1206.99999893" y="984.099999845"/>
      <point x="1090.79999852" y="1010.49999982"/>
      <point x="997.799998641" y="1010.49999982" type="curve" smooth="yes"/>
      <point x="728.999998808" y="1010.49999982"/>
      <point x="579.099998891" y="785.399999619"/>
      <point x="579.099998891" y="535.80000031" type="curve" smooth="yes"/>
      <point x="579.099998891" y="334.700000942"/>
      <point x="679.999998689" y="202.000000715"/>
      <point x="860.399998903" y="202.000000715" type="curve" smooth="yes"/>
      <point x="1001.89999932" y="202.000000715"/>
      <point x="1120.49999875" y="324.700001299"/>
      <point x="1161.29999846" y="476.700000226" type="curve"/>
      <point x="1114.69999868" y="476.700000226" type="line"/>
      <point x="1125.59999871" y="272.200001478"/>
      <point x="1245.30099797" y="211.500000536"/>
      <point x="1345.49999863" y="211.500000536" type="curve" smooth="yes"/>
      <point x="1537.599998" y="211.500000536"/>
      <point x="1720.59999812" y="378.30000037"/>
      <point x="1720.59999812" y="701.800000191" type="curve" smooth="yes"/>
      <point x="1720.59999812" y="1124.89999968"/>
      <point x="1405.49999827" y="1388.79999948"/>
      <point x="986.399998784" y="1388.79999948" type="curve" smooth="yes"/>
      <point x="502.39999938" y="1388.79999948"/>
      <point x="166.299999416" y="1040.99999988"/>
      <point x="166.299999416" y="569.400000453" type="curve" smooth="yes"/>
      <point x="166.299999416" y="96.8000010252"/>
      <point x="467.599999428" y="-186.899998844"/>
    </contour>
    <contour>
      <point x="874.599998951" y="300.500001013" type="curve" smooth="yes"/>
      <point x="766.999999166" y="300.500001013"/>
      <point x="703.699999511" y="374.600001216"/>
      <point x="703.699999511" y="535.700000226" type="curve" smooth="yes"/>
      <point x="703.699999511" y="729.999999881"/>
      <point x="815.899999321" y="916.599999547"/>
      <point x="1000.09999901" y="916.599999547" type="curve" smooth="yes"/>
      <point x="1049.69999903" y="916.599999547"/>
      <point x="1170.99999821" y="894.299999654"/>
      <point x="1208.09999818" y="881.599999666" type="curve"/>
      <point x="1154.69999844" y="957.499999583" type="line"/>
      <point x="1150.49999851" y="916.200000286"/>
      <point x="1111.89999837" y="689.199999571"/>
      <point x="1106.29999846" y="648.600000262" type="curve" smooth="yes"/>
      <point x="1079.49999839" y="458.900000513"/>
      <point x="1021.09999877" y="300.500001013"/>
    </contour>
  </outline>
</glyph>
<glyph name="A" format="1">
  <advance width="1274.00000226"/>
  <unicode hex="0041"/>
  <outline>
    <contour>
      <point x="46.6000000238" y="0.0" type="line"/>
      <point x="216.100002229" y="0.0" type="line"/>
      <point x="394.100001752" y="479.199999213" type="line"/>
      <point x="329.100001276" y="432.199998856" type="line"/>
      <point x="953.000000834" y="432.199998856" type="line"/>
      <point x="886.400000334" y="476.599999189" type="line"/>
      <point x="1063.69999999" y="0.0" type="line"/>
      <point x="1227.40000224" y="0.0" type="line"/>
      <point x="725.900002658" y="1353.39999998" type="line"/>
      <point x="548.69999963" y="1353.39999998" type="line"/>
    </contour>
    <contour>
      <point x="398.500001848" y="497.499999583" type="line"/>
      <point x="660.70000118" y="1254.99999869" type="line"/>
      <point x="616.000001192" y="1256.39999866" type="line"/>
      <point x="881.000000238" y="497.799999595" type="line"/>
      <point x="919.100000441" y="547.300000131" type="line"/>
      <point x="363.500001609" y="547.300000131" type="line"/>
    </contour>
  </outline>
</glyph>
<glyph name="B" format="1">
  <advance width="1295.79999995"/>
  <unicode hex="0042"/>
  <outline>
    <contour>
      <point x="196.599999309" y="0.0" type="line"/>
      <point x="707.799999952" y="0.0" type="line" smooth="yes"/>
      <point x="1033.29999954" y="0.0"/>
      <point x="1187.60000026" y="148.499999821"/>
      <point x="1187.60000026" y="382.600000262" type="curve" smooth="yes"/>
      <point x="1187.60000026" y="589.200000286"/>
      <point x="1051.30000013" y="698.200000167"/>
      <point x="833.700001061" y="733.700000346" type="curve"/>
      <point x="833.700001061" y="690.600000024" type="line"/>
      <point x="1067.19999993" y="748.900000155"/>
      <point x="1133.30000037" y="859.900000036"/>
      <point x="1133.30000037" y="1021.09999985" type="curve" smooth="yes"/>
      <point x="1133.30000037" y="1252.00000024"/>
      <point x="971.599999905" y="1353.39999998"/>
      <point x="627.600000143" y="1353.39999998" type="curve" smooth="yes"/>
      <point x="196.599999309" y="1353.39999998" type="line"/>
    </contour>
    <contour>
      <point x="314.70000118" y="126.400001526" type="line"/>
      <point x="362.800001383" y="76.7000012994" type="line"/>
      <point x="362.800001383" y="699.099999845" type="line"/>
      <point x="314.000001192" y="652.39999938" type="line"/>
      <point x="630.900000274" y="652.39999938" type="line" smooth="yes"/>
      <point x="895.699998915" y="652.39999938"/>
      <point x="1021.39999819" y="586.999999523"/>
      <point x="1021.39999819" y="386.900000513" type="curve" smooth="yes"/>
      <point x="1021.39999819" y="200.800001264"/>
      <point x="918.199998498" y="126.400001526"/>
      <point x="680.999999523" y="126.400001526" type="curve" smooth="yes"/>
    </contour>
    <contour>
      <point x="313.300001204" y="770.700000584" type="line"/>
      <point x="362.800001383" y="730.100000322" type="line"/>
      <point x="362.800001383" y="1276.49999875" type="line"/>
      <point x="315.400001168" y="1228.79999852" type="line"/>
      <point x="625.799999595" y="1228.79999852" type="line" smooth="yes"/>
      <point x="862.199998736" y="1228.79999852"/>
      <point x="975.099998295" y="1184.59999871"/>
      <point x="975.099998295" y="1001.3999995" type="curve" smooth="yes"/>
      <point x="975.099998295" y="815.700000584"/>
      <point x="859.099999011" y="770.700000584"/>
      <point x="680.099999487" y="770.700000584" type="curve" smooth="yes"/>
    </contour>
  </outline>
</glyph>
<glyph name="C" format="1">
  <advance width="1229.70000011"/>
  <unicode hex="0043"/>
  <outline>
    <contour>
      <point x="776.899999917" y="-18.0" type="curve" smooth="yes"/>
      <point x="937.899999201" y="-18.0"/>
      <point x="1091.49999923" y="29.5999996662"/>
      <point x="1138.60000038" y="63.0" type="curve"/>
      <point x="1100.30000013" y="186.300001562" type="line"/>
      <point x="1012.20000029" y="147.200001597"/>
      <point x="915.599999666" y="114.600001693"/>
      <point x="800.699999988" y="114.600001693" type="curve" smooth="yes"/>
      <point x="477.400002003" y="114.600001693"/>
      <point x="296.600001693" y="336.099999845"/>
      <point x="296.600001693" y="675.900000036" type="curve" smooth="yes"/>
      <point x="296.600001693" y="1012.10000008"/>
      <point x="477.200001955" y="1239.99999833"/>
      <point x="784.600000143" y="1239.99999833" type="curve" smooth="yes"/>
      <point x="896.899999917" y="1239.99999833"/>
      <point x="1012.09999985" y="1208.09999841"/>
      <point x="1094.29999989" y="1156.89999849" type="curve"/>
      <point x="1149.30000025" y="1265.49999994" type="line"/>
      <point x="1061.99999988" y="1328.20000005"/>
      <point x="929.999999762" y="1371.39999998"/>
      <point x="770.100000083" y="1371.39999998" type="curve" smooth="yes"/>
      <point x="379.300000966" y="1371.39999998"/>
      <point x="130.399999619" y="1093.70000118"/>
      <point x="130.399999619" y="681.0" type="curve" smooth="yes"/>
      <point x="130.399999619" y="246.999999285"/>
      <point x="395.300000131" y="-18.0"/>
    </contour>
  </outline>
</glyph>
<glyph name="D" format="1">
  <advance width="1451.50000006"/>
  <unicode hex="0044"/>
  <outline>
    <contour>
      <point x="362.800001383" y="71.0000011921" type="line"/>
      <point x="362.800001383" y="1282.09999877" type="line"/>
      <point x="308.800001144" y="1228.79999852" type="line"/>
      <point x="579.100000083" y="1228.79999852" type="line" smooth="yes"/>
      <point x="944.499999106" y="1228.79999852"/>
      <point x="1155.19999838" y="1074.59999871"/>
      <point x="1155.19999838" y="675.900000036" type="curve" smooth="yes"/>
      <point x="1155.19999838" y="312.600001216"/>
      <point x="971.399998784" y="126.400001526"/>
      <point x="604.400000095" y="126.400001526" type="curve" smooth="yes"/>
      <point x="309.100001156" y="126.400001526" type="line"/>
    </contour>
    <contour>
      <point x="196.599999309" y="0.0" type="line"/>
      <point x="613.499999702" y="0.0" type="line" smooth="yes"/>
      <point x="1047.39999986" y="0.0"/>
      <point x="1321.10000044" y="233.800000191"/>
      <point x="1321.10000044" y="680.200000048" type="curve" smooth="yes"/>
      <point x="1321.10000044" y="1150.29999977"/>
      <point x="1021.30000001" y="1353.39999998"/>
      <point x="586.299999774" y="1353.39999998" type="curve" smooth="yes"/>
      <point x="196.599999309" y="1353.39999998" type="line"/>
    </contour>
  </outline>
</glyph>
<glyph name="E" format="1">
  <advance width="1150.20000041"/>
  <unicode hex="0045"/>
  <outline>
    <contour>
      <point x="196.599999309" y="0.0" type="line"/>
      <point x="1018.5000003" y="0.0" type="line"/>
      <point x="1029.90000039" y="126.400001526" type="line"/>
      <point x="311.600000978" y="126.400001526" type="line"/>
      <point x="362.800001383" y="75.1000011563" type="line"/>
      <point x="362.800001383" y="685.300000012" type="line"/>
      <point x="311.300000966" y="637.89999944" type="line"/>
      <point x="963.000000715" y="637.89999944" type="line"/>
      <point x="963.000000715" y="762.500000894" type="line"/>
      <point x="311.600000978" y="762.500000894" type="line"/>
      <point x="362.800001383" y="713.700000465" type="line"/>
      <point x="362.800001383" y="1276.799999" type="line"/>
      <point x="312.700000942" y="1228.79999852" type="line"/>
      <point x="1020.80000019" y="1228.79999852" type="line"/>
      <point x="1026.90000027" y="1353.39999998" type="line"/>
      <point x="196.599999309" y="1353.39999998" type="line"/>
    </contour>
  </outline>
</glyph>
<glyph name="F" format="1">
  <advance width="1043.6000011"/>
  <unicode hex="0046"/>
  <outline>
    <contour>
      <point x="196.599999309" y="0.0" type="line"/>
      <point x="365.600001335" y="0.0" type="line"/>
      <point x="365.600001335" y="669.399999976" type="line"/>
      <point x="303.200000763" y="618.899999201" type="line"/>
      <point x="929.000001192" y="618.899999201" type="line"/>
      <point x="929.000001192" y="739.700000703" type="line"/>
      <point x="297.800000787" y="739.700000703" type="line"/>
      <point x="365.600001335" y="691.30000025" type="line"/>
      <point x="365.600001335" y="1286.49999887" type="line"/>
      <point x="296.300000727" y="1225.7999984" type="line"/>
      <point x="975.200001359" y="1225.7999984" type="line"/>
      <point x="985.100001395" y="1353.39999998" type="line"/>
      <point x="196.599999309" y="1353.39999998" type="line"/>
    </contour>
  </outline>
</glyph>
<glyph name="G" format="1">
  <advance width="1390.59999967"/>
  <unicode hex="0047"/>
  <outline>
    <contour>
      <point x="774.799999714" y="-18.0" type="curve" smooth="yes"/>
      <point x="959.19999969" y="-18.0"/>
      <point x="1104.69999975" y="12.8000000715"/>
      <point x="1242.89999992" y="66.6000002623" type="curve"/>
      <point x="1242.89999992" y="691.300000608" type="line"/>
      <point x="790.399998546" y="691.300000608" type="line"/>
      <point x="784.099998653" y="559.599999309" type="line"/>
      <point x="1142.99999857" y="559.599999309" type="line"/>
      <point x="1088.99999833" y="613.599999547" type="line"/>
      <point x="1088.99999833" y="96.700001061" type="line"/>
      <point x="1138.99999881" y="172.900001943" type="line"/>
      <point x="1084.2999987" y="149.700001776"/>
      <point x="966.099999845" y="114.300001681"/>
      <point x="803.999999404" y="114.300001681" type="curve" smooth="yes"/>
      <point x="442.600001216" y="114.300001681"/>
      <point x="296.300001681" y="337.900000989"/>
      <point x="296.300001681" y="676.000000119" type="curve" smooth="yes"/>
      <point x="296.300001681" y="999.399999619"/>
      <point x="481.300001323" y="1240.59999835"/>
      <point x="794.200000167" y="1240.59999835" type="curve" smooth="yes"/>
      <point x="992.49999851" y="1240.59999835"/>
      <point x="1094.89999872" y="1179.3999989"/>
      <point x="1165.39999962" y="1140.39999855" type="curve"/>
      <point x="1206.10000008" y="1265.30000001" type="line"/>
      <point x="1095.19999957" y="1341.5999999"/>
      <point x="949.400000095" y="1371.39999998"/>
      <point x="791.49999994" y="1371.39999998" type="curve" smooth="yes"/>
      <point x="378.900000632" y="1371.39999998"/>
      <point x="130.099999607" y="1078.00000072"/>
      <point x="130.099999607" y="674.400000095" type="curve" smooth="yes"/>
      <point x="130.099999607" y="276.999999642"/>
      <point x="352.400000095" y="-18.0"/>
    </contour>
  </outline>
</glyph>
<glyph name="H" format="1">
  <advance width="1433.30000037"/>
  <unicode hex="0048"/>
  <outline>
    <contour>
      <point x="193.799999356" y="0.0" type="line"/>
      <point x="360.000001431" y="0.0" type="line"/>
      <point x="360.000001431" y="681.399999738" type="line"/>
      <point x="300.600001097" y="634.899999201" type="line"/>
      <point x="1136.79999924" y="634.899999201" type="line"/>
      <point x="1073.29999894" y="681.399999738" type="line"/>
      <point x="1073.29999894" y="0.0" type="line"/>
      <point x="1239.50000101" y="0.0" type="line"/>
      <point x="1239.50000101" y="1353.39999998" type="line"/>
      <point x="1073.29999894" y="1353.39999998" type="line"/>
      <point x="1073.29999894" y="709.600000262" type="line"/>
      <point x="1133.59999919" y="756.100000799" type="line"/>
      <point x="300.300001085" y="756.100000799" type="line"/>
      <point x="360.000001431" y="709.600000262" type="line"/>
      <point x="360.000001431" y="1353.39999998" type="line"/>
      <point x="193.799999356" y="1353.39999998" type="line"/>
    </contour>
  </outline>
</glyph>
<glyph name="I" format="1">
  <advance width="742.200001597"/>
  <unicode hex="0049"/>
  <outline>
    <contour>
      <point x="108.800000191" y="1353.39999998" type="line"/>
      <point x="108.800000191" y="1251.99999881" type="line"/>
      <point x="336.200000286" y="1251.99999881" type="line"/>
      <point x="288.599999785" y="1296.29999906" type="line"/>
      <point x="288.599999785" y="52.4000009298" type="line"/>
      <point x="339.400000215" y="101.400001168" type="line"/>
      <point x="108.800000191" y="101.400001168" type="line"/>
      <point x="108.800000191" y="0.0" type="line"/>
      <point x="633.400001407" y="0.0" type="line"/>
      <point x="633.400001407" y="101.400001168" type="line"/>
      <point x="401.700001299" y="101.400001168" type="line"/>
      <point x="454.80000186" y="53.5000008941" type="line"/>
      <point x="454.80000186" y="1295.79999912" type="line"/>
      <point x="404.500001252" y="1251.99999881" type="line"/>
      <point x="633.400001407" y="1251.99999881" type="line"/>
      <point x="633.400001407" y="1353.39999998" type="line"/>
    </contour>
  </outline>
</glyph>
<glyph name="J" format="1">
  <advance width="720.300002158"/>
  <unicode hex="004A"/>
  <outline>
    <contour>
      <point x="115.600001812" y="-158.300001085" type="line"/>
      <point x="413.300001442" y="-158.300001085"/>
      <point x="523.700002849" y="-4.20000016689"/>
      <point x="523.700002849" y="277.900000393" type="curve" smooth="yes"/>
      <point x="523.700002849" y="1353.39999998" type="line"/>
      <point x="357.500000775" y="1353.39999998" type="line"/>
      <point x="357.500000775" y="254.500000656" type="line" smooth="yes"/>
      <point x="357.500000775" y="73.8000019789"/>
      <point x="294.500000894" y="-23.7999994755"/>
      <point x="103.900001347" y="-23.7999994755" type="curve" smooth="yes"/>
      <point x="8.7000002265" y="-23.7999994755" type="line"/>
      <point x="8.7000002265" y="-158.300001085" type="line"/>
    </contour>
  </outline>
</glyph>
<glyph name="K" format="1">
  <advance width="1246.70000142"/>
  <unicode hex="004B"/>
  <outline>
    <contour>
      <point x="196.599999309" y="0.0" type="line"/>
      <point x="362.800001383" y="0.0" type="line"/>
      <point x="362.800001383" y="616.199999809" type="line"/>
      <point x="317.100001276" y="513.599999309" type="line"/>
      <point x="530.500001609" y="709.199999332" type="line"/>
      <point x="458.400001049" y="714.199999452" type="line"/>
      <point x="1005.19999981" y="0.0" type="line"/>
      <point x="1200.40000212" y="0.0" type="line"/>
      <point x="567.900002778" y="805.500000298" type="line"/>
      <point x="572.800002694" y="718.999999285" type="line"/>
      <point x="1171.20000207" y="1353.39999998" type="line"/>
      <point x="977.099999726" y="1353.39999998" type="line"/>
      <point x="316.300001085" y="662.000000358" type="line"/>
      <point x="362.800001383" y="653.000000358" type="line"/>
      <point x="362.800001383" y="1353.39999998" type="line"/>
      <point x="196.599999309" y="1353.39999998" type="line"/>
    </contour>
  </outline>
</glyph>
<glyph name="L" format="1">
  <advance width="1056.40000057"/>
  <unicode hex="004C"/>
  <outline>
    <contour>
      <point x="196.599999309" y="0.0" type="line"/>
      <point x="992.300000727" y="0.0" type="line"/>
      <point x="996.500000894" y="126.400001526" type="line"/>
      <point x="297.500000894" y="126.400001526" type="line"/>
      <point x="362.800001383" y="59.700001061" type="line"/>
      <point x="362.800001383" y="1353.39999998" type="line"/>
      <point x="196.599999309" y="1353.39999998" type="line"/>
    </contour>
  </outline>
</glyph>
<glyph name="M" format="1">
  <advance width="1720.00000119"/>
  <unicode hex="004D"/>
  <outline>
    <contour>
      <point x="196.599999309" y="0.0" type="line"/>
      <point x="353.700001299" y="0.0" type="line"/>
      <point x="356.700001419" y="845.199993849" type="line"/>
      <point x="346.000001311" y="1224.39999604" type="line"/>
      <point x="314.900000989" y="1224.39999604" type="line"/>
      <point x="789.099999964" y="149.100000799" type="line"/>
      <point x="931.700001061" y="149.100000799" type="line"/>
      <point x="1413.70000011" y="1224.39999604" type="line"/>
      <point x="1376.69999987" y="1224.39999604" type="line"/>
      <point x="1364.99999976" y="848.899993837" type="line"/>
      <point x="1367.99999988" y="0.0" type="line"/>
      <point x="1523.40000188" y="0.0" type="line"/>
      <point x="1517.40000165" y="1353.39999998" type="line"/>
      <point x="1320.30000025" y="1353.39999998" type="line"/>
      <point x="828.80000031" y="251.400002837" type="line"/>
      <point x="896.100000799" y="251.400002837" type="line"/>
      <point x="406.100000918" y="1353.39999998" type="line"/>
      <point x="202.599999547" y="1353.39999998" type="line"/>
    </contour>
  </outline>
</glyph>
<glyph name="N" format="1">
  <advance width="1484.60000026"/>
  <unicode hex="004E"/>
  <outline>
    <contour>
      <point x="196.599999309" y="0.0" type="line"/>
      <point x="350.700001538" y="0.0" type="line"/>
      <point x="350.700001538" y="713.499994814" type="line"/>
      <point x="335.100001395" y="1217.19999743" type="line"/>
      <point x="294.900001109" y="1203.19999766" type="line"/>
      <point x="1116.99999845" y="0.0" type="line"/>
      <point x="1288.00000095" y="0.0" type="line"/>
      <point x="1288.00000095" y="1353.39999998" type="line"/>
      <point x="1133.89999872" y="1353.39999998" type="line"/>
      <point x="1133.89999872" y="591.200003743" type="line"/>
      <point x="1145.49999887" y="137.300002277" type="line"/>
      <point x="1186.39999902" y="140.800002217" type="line"/>
      <point x="361.500001729" y="1353.39999998" type="line"/>
      <point x="196.599999309" y="1353.39999998" type="line"/>
    </contour>
  </outline>
</glyph>
<glyph name="O" format="1">
  <advance width="1554.50000006"/>
  <unicode hex="004F"/>
  <outline>
    <contour>
      <point x="778.600000024" y="113.400001645" type="curve" smooth="yes"/>
      <point x="450.500001729" y="113.400001645"/>
      <point x="296.600001693" y="343.000000954"/>
      <point x="296.600001693" y="668.100000083" type="curve" smooth="yes"/>
      <point x="296.600001693" y="1007.29999906"/>
      <point x="459.900001585" y="1239.39999831"/>
      <point x="779.300000012" y="1239.39999831" type="curve" smooth="yes"/>
      <point x="1099.39999843" y="1239.39999831"/>
      <point x="1257.89999837" y="1005.89999908"/>
      <point x="1257.89999837" y="668.100000083" type="curve" smooth="yes"/>
      <point x="1257.89999837" y="343.000000954"/>
      <point x="1106.69999832" y="113.400001645"/>
    </contour>
    <contour>
      <point x="779.300000012" y="-18.0" type="curve" smooth="yes"/>
      <point x="1193.99999964" y="-18.0"/>
      <point x="1424.10000044" y="260.499999702"/>
      <point x="1424.10000044" y="667.300000131" type="curve" smooth="yes"/>
      <point x="1424.10000044" y="1091.40000033"/>
      <point x="1182.8999998" y="1371.39999998"/>
      <point x="780.0" y="1371.39999998" type="curve" smooth="yes"/>
      <point x="368.000000358" y="1371.39999998"/>
      <point x="130.399999619" y="1094.20000029"/>
      <point x="130.399999619" y="668.700000107" type="curve" smooth="yes"/>
      <point x="130.399999619" y="254.199999809"/>
      <point x="359.000000477" y="-18.0"/>
    </contour>
  </outline>
</glyph>
<glyph name="P" format="1">
  <advance width="1191.90000111"/>
  <unicode hex="0050"/>
  <outline>
    <contour>
      <point x="196.599999309" y="0.0" type="line"/>
      <point x="362.800001383" y="0.0" type="line"/>
      <point x="362.800001383" y="695.299999535" type="line"/>
      <point x="305.900001228" y="644.299999058" type="line"/>
      <point x="659.000000358" y="644.299999058" type="line" smooth="yes"/>
      <point x="977.300001562" y="644.299999058"/>
      <point x="1105.10000163" y="779.399999499"/>
      <point x="1105.10000163" y="1017.89999956" type="curve" smooth="yes"/>
      <point x="1105.10000163" y="1266.1000002"/>
      <point x="917.400001049" y="1353.39999998"/>
      <point x="662.500000298" y="1353.39999998" type="curve" smooth="yes"/>
      <point x="196.599999309" y="1353.39999998" type="line"/>
    </contour>
    <contour>
      <point x="652.600000024" y="771.60000062" type="curve" smooth="yes"/>
      <point x="306.100001276" y="771.60000062" type="line"/>
      <point x="362.800001383" y="725.800000191" type="line"/>
      <point x="362.800001383" y="1283.09999865" type="line"/>
      <point x="306.100001276" y="1228.79999852" type="line"/>
      <point x="657.900000393" y="1228.79999852" type="line" smooth="yes"/>
      <point x="827.30000025" y="1228.79999852"/>
      <point x="938.899999559" y="1177.99999869"/>
      <point x="938.899999559" y="1016.19999945" type="curve" smooth="yes"/>
      <point x="938.899999559" y="835.300000608"/>
      <point x="852.700000226" y="771.60000062"/>
    </contour>
  </outline>
</glyph>
<glyph name="Q" format="1">
  <advance width="1554.50000006"/>
  <unicode hex="0051"/>
  <outline>
    <contour>
      <point x="1177.4999997" y="-405.40000093" type="curve"/>
      <point x="1272.30000097" y="-318.599999905" type="line"/>
      <point x="1186.50000054" y="-230.699999511"/>
      <point x="1068.10000092" y="-69.0999993682"/>
      <point x="1020.30000097" y="26.9000002742" type="curve"/>
      <point x="885.599999189" y="0.799999713898" type="line"/>
      <point x="968.199999094" y="-158.699999988"/>
      <point x="1110.89999896" y="-344.200000644"/>
    </contour>
    <component base="O"/>
  </outline>
</glyph>
<glyph name="R" format="1">
  <advance width="1335.8999998"/>
  <unicode hex="0052"/>
  <outline>
    <contour>
      <point x="196.599999309" y="0.0" type="line"/>
      <point x="362.800001383" y="0.0" type="line"/>
      <point x="362.800001383" y="685.29999882" type="line"/>
      <point x="306.500001252" y="642.899998724" type="line"/>
      <point x="843.699999392" y="642.899998724" type="line"/>
      <point x="757.099998891" y="695.499998748" type="line"/>
      <point x="871.799998879" y="429.699998319" type="line"/>
      <point x="1054.29999822" y="0.0" type="line"/>
      <point x="1226.40000045" y="0.0" type="line"/>
      <point x="1011.30000108" y="481.299998462" type="line"/>
      <point x="904.300000608" y="735.199999332" type="line"/>
      <point x="894.800000429" y="656.29999882" type="line"/>
      <point x="1069.69999999" y="693.899999082"/>
      <point x="1171.50000054" y="791.599998832"/>
      <point x="1171.50000054" y="1004.2999993" type="curve" smooth="yes"/>
      <point x="1171.50000054" y="1244.6000005"/>
      <point x="1034.59999931" y="1353.39999998"/>
      <point x="748.899998963" y="1353.39999998" type="curve" smooth="yes"/>
      <point x="196.599999309" y="1353.39999998" type="line"/>
    </contour>
    <contour>
      <point x="362.800001383" y="714.499999583" type="line"/>
      <point x="362.800001383" y="1281.39999866" type="line"/>
      <point x="306.300001323" y="1228.79999852" type="line"/>
      <point x="751.399999142" y="1228.79999852" type="line" smooth="yes"/>
      <point x="950.399998546" y="1228.79999852"/>
      <point x="1008.7999984" y="1147.89999884"/>
      <point x="1008.7999984" y="1002.39999926" type="curve" smooth="yes"/>
      <point x="1008.7999984" y="829.799999833"/>
      <point x="959.49999851" y="762.599999905"/>
      <point x="722.499999464" y="762.599999905" type="curve" smooth="yes"/>
      <point x="305.900001228" y="762.599999905" type="line"/>
    </contour>
  </outline>
</glyph>
<glyph name="S" format="1">
  <advance width="1138.80000055"/>
  <unicode hex="0053"/>
  <outline>
    <contour>
      <point x="568.100000083" y="-18.0" type="curve" smooth="yes"/>
      <point x="823.500000656" y="-18.0"/>
      <point x="1018.40000081" y="85.4000005722"/>
      <point x="1028.90000063" y="354.400000453" type="curve" smooth="yes"/>
      <point x="1038.00000048" y="587.500000179"/>
      <point x="893.100001156" y="665.300000727"/>
      <point x="696.600000501" y="740.100000799" type="curve" smooth="yes"/>
      <point x="483.300000489" y="821.900000632" type="line" smooth="yes"/>
      <point x="353.700001657" y="872.700000107"/>
      <point x="306.200001836" y="919.000000119"/>
      <point x="310.400001764" y="1031.59999931" type="curve" smooth="yes"/>
      <point x="316.000001669" y="1192.49999839"/>
      <point x="453.000000596" y="1239.39999831"/>
      <point x="600.700000346" y="1239.39999831" type="curve" smooth="yes"/>
      <point x="753.299999774" y="1239.39999831"/>
      <point x="872.599999905" y="1168.19999862"/>
      <point x="919.100000679" y="1142.89999837" type="curve"/>
      <point x="980.100001037" y="1257.4000001" type="line"/>
      <point x="901.80000031" y="1313.80000031"/>
      <point x="760.200000167" y="1371.39999998"/>
      <point x="605.800000072" y="1371.39999998" type="curve" smooth="yes"/>
      <point x="380.499999344" y="1371.39999998"/>
      <point x="165.299999654" y="1289.09999913"/>
      <point x="155.499999821" y="1026.59999931" type="curve" smooth="yes"/>
      <point x="149.199999928" y="844.299999177"/>
      <point x="260.899999797" y="752.999998689"/>
      <point x="431.999999642" y="688.799998879" type="curve" smooth="yes"/>
      <point x="656.399999738" y="605.399999022" type="line" smooth="yes"/>
      <point x="826.899998486" y="540.499999583"/>
      <point x="881.899998486" y="487.099999607"/>
      <point x="876.999998569" y="352.800000548" type="curve" smooth="yes"/>
      <point x="870.699998677" y="180.800001383"/>
      <point x="764.599999309" y="113.400001645"/>
      <point x="574.600000143" y="113.400001645" type="curve" smooth="yes"/>
      <point x="404.800000787" y="113.400001645"/>
      <point x="283.800000072" y="171.100001395"/>
      <point x="197.000000238" y="234.400001168" type="curve"/>
      <point x="140.599999785" y="113.599999547" type="line"/>
      <point x="208.300000608" y="65.099999249"/>
      <point x="335.400001049" y="-18.0"/>
    </contour>
  </outline>
</glyph>
<glyph name="T" format="1">
  <advance width="1089.30000097"/>
  <unicode hex="0054"/>
  <outline>
    <contour>
      <point x="459.799999475" y="0.0" type="line"/>
      <point x="626.00000155" y="0.0" type="line"/>
      <point x="626.00000155" y="1284.6999988" type="line"/>
      <point x="576.100001156" y="1226.99999821" type="line"/>
      <point x="1037.10000104" y="1226.99999821" type="line"/>
      <point x="1037.10000104" y="1353.39999998" type="line"/>
      <point x="52.1999999285" y="1353.39999998" type="line"/>
      <point x="52.1999999285" y="1226.99999821" type="line"/>
      <point x="509.699999869" y="1226.99999821" type="line"/>
      <point x="459.799999475" y="1283.59999883" type="line"/>
    </contour>
  </outline>
</glyph>
<glyph name="U" format="1">
  <advance width="1393.0000006"/>
  <unicode hex="0055"/>
  <outline>
    <contour>
      <point x="695.80000031" y="-18.0" type="curve" smooth="yes"/>
      <point x="1056.80000007" y="-18.0"/>
      <point x="1235.00000083" y="198.599999547"/>
      <point x="1235.00000083" y="494.499999821" type="curve" smooth="yes"/>
      <point x="1235.00000083" y="1353.39999998" type="line"/>
      <point x="1068.79999876" y="1353.39999998" type="line"/>
      <point x="1068.79999876" y="500.100000083" type="line" smooth="yes"/>
      <point x="1068.79999876" y="248.400001049"/>
      <point x="942.899999201" y="114.300001681"/>
      <point x="695.80000031" y="114.300001681" type="curve" smooth="yes"/>
      <point x="440.000001669" y="114.300001681"/>
      <point x="324.200001836" y="248.800001025"/>
      <point x="324.200001836" y="500.50000006" type="curve" smooth="yes"/>
      <point x="324.200001836" y="1353.39999998" type="line"/>
      <point x="157.999999762" y="1353.39999998" type="line"/>
      <point x="157.999999762" y="496.899999797" type="line" smooth="yes"/>
      <point x="157.999999762" y="200.099999487"/>
      <point x="335.900000513" y="-18.0"/>
    </contour>
  </outline>
</glyph>
<glyph name="V" format="1">
  <advance width="1292.00000119"/>
  <unicode hex="0056"/>
  <outline>
    <contour>
      <point x="572.699999034" y="0.0" type="line"/>
      <point x="719.400002122" y="0.0" type="line"/>
      <point x="1225.20000124" y="1353.39999998" type="line"/>
      <point x="1054.29999894" y="1353.39999998" type="line"/>
      <point x="750.30000025" y="494.600001574" type="line"/>
      <point x="618.400000572" y="120.300001204" type="line"/>
      <point x="676.300000727" y="120.300001204" type="line"/>
      <point x="544.200001001" y="490.800001621" type="line"/>
      <point x="239.000002265" y="1353.39999998" type="line"/>
      <point x="66.7999999523" y="1353.39999998" type="line"/>
    </contour>
  </outline>
</glyph>
<glyph name="W" format="1">
  <advance width="1940.9999994"/>
  <unicode hex="0057"/>
  <outline>
    <contour>
      <point x="466.599998832" y="0.0" type="line"/>
      <point x="625.300000727" y="0.0" type="line"/>
      <point x="996.19999969" y="1202.39999723" type="line"/>
      <point x="949.799999714" y="1202.39999723" type="line"/>
      <point x="1312.09999841" y="0.0" type="line"/>
      <point x="1473.5000003" y="0.0" type="line"/>
      <point x="1886.59999979" y="1352.69999999" type="line"/>
      <point x="1725.99999774" y="1352.69999999" type="line"/>
      <point x="1373.2999993" y="145.600002766" type="line"/>
      <point x="1411.79999924" y="145.600002766" type="line"/>
      <point x="1050.80000055" y="1324.30000037" type="line"/>
      <point x="891.199998856" y="1324.30000037" type="line"/>
      <point x="527.199999928" y="147.000002742" type="line"/>
      <point x="565.899999917" y="147.000002742" type="line"/>
      <point x="212.500001729" y="1352.69999999" type="line"/>
      <point x="54.3999996185" y="1352.69999999" type="line"/>
    </contour>
  </outline>
</glyph>
<glyph name="X" format="1">
  <advance width="1281.0000006"/>
  <unicode hex="0058"/>
  <outline>
    <contour>
      <point x="116.999998689" y="0.0" type="line"/>
      <point x="279.300000966" y="0.0" type="line"/>
      <point x="656.500000298" y="581.199998498" type="line"/>
      <point x="726.100001395" y="655.700000226" type="line"/>
      <point x="1168.60000145" y="1353.39999998" type="line"/>
      <point x="1002.89999932" y="1353.39999998" type="line"/>
      <point x="647.100000322" y="777.300002038" type="line"/>
      <point x="565.199999213" y="699.500000417" type="line"/>
    </contour>
    <contour>
      <point x="1011.59999919" y="0.0" type="line"/>
      <point x="1175.20000172" y="0.0" type="line"/>
      <point x="279.000001669" y="1353.39999998" type="line"/>
      <point x="115.399999261" y="1353.39999998" type="line"/>
    </contour>
  </outline>
</glyph>
<glyph name="Y" format="1">
  <advance width="1179.30000132"/>
  <unicode hex="0059"/>
  <outline>
    <contour>
      <point x="519.89999944" y="0.0" type="line"/>
      <point x="684.300001442" y="0.0" type="line"/>
      <point x="684.300001442" y="622.799999952" type="line"/>
      <point x="640.800001264" y="474.599998951" type="line"/>
      <point x="1122.70000154" y="1353.39999998" type="line"/>
      <point x="959.099999249" y="1353.39999998" type="line"/>
      <point x="573.200000167" y="625.000000834" type="line"/>
      <point x="630.200000644" y="625.000000834" type="line"/>
      <point x="221.000002146" y="1353.39999998" type="line"/>
      <point x="56.5999997854" y="1353.39999998" type="line"/>
      <point x="568.69999963" y="465.899998844" type="line"/>
      <point x="519.89999944" y="621.699999869" type="line"/>
    </contour>
  </outline>
</glyph>
<glyph name="Z" format="1">
  <advance width="1151.1000008"/>
  <unicode hex="005A"/>
  <outline>
    <contour>
      <point x="139.000000119" y="0.0" type="line"/>
      <point x="1030.80000091" y="0.0" type="line"/>
      <point x="1038.50000077" y="126.400001526" type="line"/>
      <point x="270.100002706" y="126.400001526" type="line"/>
      <point x="294.500002921" y="70.700001061" type="line"/>
      <point x="1031.60000074" y="1239.49999875" type="line"/>
      <point x="1025.30000085" y="1353.39999998" type="line"/>
      <point x="170.499999702" y="1353.39999998" type="line"/>
      <point x="170.499999702" y="1228.79999852" type="line"/>
      <point x="907.699998677" y="1228.79999852" type="line"/>
      <point x="875.899998486" y="1276.29999918" type="line"/>
      <point x="139.000000119" y="116.700000942" type="line"/>
    </contour>
  </outline>
</glyph>
<glyph name="bracketleft" format="1">
  <advance width="646.100001872"/>
  <unicode hex="005B"/>
  <outline>
    <contour>
      <point x="134.300001085" y="-233.299997866" type="line"/>
      <point x="134.300001085" y="1378.00000095" type="line"/>
      <point x="543.200001478" y="1378.00000095" type="line"/>
      <point x="543.200001478" y="1266.59999979" type="line"/>
      <point x="272.900002897" y="1266.59999979" type="line"/>
      <point x="272.900002897" y="-122.999996662" type="line"/>
      <point x="543.200001478" y="-122.999996662" type="line"/>
      <point x="543.200001478" y="-233.299997866" type="line"/>
    </contour>
  </outline>
</glyph>
<glyph name="backslash" format="1">
  <advance width="880.799999356"/>
  <unicode hex="005C"/>
  <outline>
    <contour>
      <point x="628.599998474" y="-39.1999993324" type="line"/>
      <point x="118.299999654" y="1348.59999979" type="line"/>
      <point x="242.200001478" y="1348.59999979" type="line"/>
      <point x="751.700000226" y="-39.1999993324" type="line"/>
    </contour>
  </outline>
</glyph>
<glyph name="bracketright" format="1">
  <advance width="647.500001848"/>
  <unicode hex="005D"/>
  <outline>
    <contour>
      <point x="105.000000358" y="-233.299997866" type="line"/>
      <point x="105.000000358" y="-123.299996674" type="line"/>
      <point x="375.299998939" y="-123.299996674" type="line"/>
      <point x="375.299998939" y="1266.29999977" type="line"/>
      <point x="105.000000358" y="1266.29999977" type="line"/>
      <point x="105.000000358" y="1378.00000095" type="line"/>
      <point x="513.200000763" y="1378.00000095" type="line"/>
      <point x="513.200000763" y="-233.299997866" type="line"/>
    </contour>
  </outline>
</glyph>
<glyph name="asciicircum" format="1">
  <advance width="1193.69999808"/>
  <unicode hex="005E"/>
  <outline>
    <contour>
      <point x="136.299998462" y="543.499999106" type="line"/>
      <point x="537.79999876" y="1385.49999934" type="line"/>
      <point x="623.599999428" y="1385.49999934" type="line"/>
      <point x="1047.59999979" y="543.499999106" type="line"/>
      <point x="935.899998128" y="543.499999106" type="line"/>
      <point x="580.799999118" y="1237.39999723" type="line"/>
      <point x="250.800000072" y="543.499999106" type="line"/>
    </contour>
  </outline>
</glyph>
<glyph name="underscore" format="1">
  <advance width="1008.50000006"/>
  <unicode hex="005F"/>
  <outline>
    <contour>
      <point x="79.0999994874" y="-248.499998748" type="line"/>
      <point x="921.000000715" y="-248.499998748" type="line"/>
      <point x="921.000000715" y="-135.099997699" type="line"/>
      <point x="79.0999994874" y="-135.099997699" type="line"/>
    </contour>
  </outline>
</glyph>
<glyph name="grave" format="1">
  <advance width="616.399997115"/>
  <unicode hex="0060"/>
  <outline>
    <contour>
      <point x="388.999998331" y="1147.49999887" type="line"/>
      <point x="476.999999642" y="1147.49999887" type="line"/>
      <point x="311.199999452" y="1498.69999903" type="line"/>
      <point x="98.9999979734" y="1498.69999903" type="line"/>
    </contour>
  </outline>
</glyph>
<glyph name="a" format="1">
  <advance width="1069.39999974"/>
  <unicode hex="0061"/>
  <outline>
    <contour>
      <point x="421.999999881" y="-15.2000000477" type="curve" smooth="yes"/>
      <point x="549.600000143" y="-15.2000000477"/>
      <point x="699.899999797" y="28.0000004768"/>
      <point x="804.899999082" y="183.299999416" type="curve"/>
      <point x="766.499998868" y="194.099999845" type="line"/>
      <point x="796.399999142" y="0.699999988079" type="line"/>
      <point x="909.400000453" y="0.699999988079" type="line"/>
      <point x="909.400000453" y="657.200000048" type="line" smooth="yes"/>
      <point x="909.400000453" y="922.800000191"/>
      <point x="748.600000262" y="1015.50000042"/>
      <point x="522.300000131" y="1015.50000042" type="curve" smooth="yes"/>
      <point x="407.200000048" y="1015.50000042"/>
      <point x="263.800000072" y="981.500000536"/>
      <point x="166.699999392" y="933.200000405" type="curve"/>
      <point x="208.199999571" y="825.199999332" type="line"/>
      <point x="301.999999762" y="870.599999189"/>
      <point x="427.199999571" y="898.599999189"/>
      <point x="525.199999452" y="898.599999189" type="curve" smooth="yes"/>
      <point x="678.199998736" y="898.599999189"/>
      <point x="755.199998736" y="822.299999774"/>
      <point x="755.199998736" y="679.900000155" type="curve"/>
      <point x="755.199998736" y="561.700000703" type="line"/>
      <point x="788.199998856" y="596.200000763" type="line"/>
      <point x="567.499998868" y="590.800000548" type="line" smooth="yes"/>
      <point x="253.599999905" y="584.500000298"/>
      <point x="111.399999738" y="479.400000572"/>
      <point x="111.399999738" y="265.900000393" type="curve" smooth="yes"/>
      <point x="111.399999738" y="81.3000000119"/>
      <point x="243.199999928" y="-15.2000000477"/>
    </contour>
    <contour>
      <point x="431.800000668" y="99.9000011086" type="curve" smooth="yes"/>
      <point x="343.600000739" y="99.9000011086"/>
      <point x="260.600001216" y="151.500001013"/>
      <point x="260.600001216" y="266.900000393" type="curve" smooth="yes"/>
      <point x="260.600001216" y="410.49999994"/>
      <point x="330.300001442" y="483.799999356"/>
      <point x="607.999999642" y="488.599999547" type="curve" smooth="yes"/>
      <point x="783.999998689" y="491.899999678" type="line"/>
      <point x="754.899998724" y="525.099999726" type="line"/>
      <point x="754.899998724" y="222.50000006" type="line"/>
      <point x="787.899998844" y="321.799999714" type="line"/>
      <point x="711.399999857" y="173.900001585"/>
      <point x="577.600000024" y="99.9000011086"/>
    </contour>
  </outline>
</glyph>
<glyph name="b" format="1">
  <advance width="1175.69999963"/>
  <unicode hex="0062"/>
  <outline>
    <contour>
      <point x="638.100000322" y="-18.0" type="curve" smooth="yes"/>
      <point x="914.899999917" y="-18.0"/>
      <point x="1066.50000006" y="186.600000262"/>
      <point x="1066.50000006" y="495.900000393" type="curve" smooth="yes"/>
      <point x="1066.50000006" y="805.700000226"/>
      <point x="926.299999893" y="1015.10000044"/>
      <point x="644.900000274" y="1015.10000044" type="curve" smooth="yes"/>
      <point x="482.700000584" y="1015.10000044"/>
      <point x="351.900000989" y="915.200000763"/>
      <point x="291.300000966" y="786.300001562" type="curve"/>
      <point x="321.300000966" y="780.900001347" type="line"/>
      <point x="323.100001037" y="1013.20000112" type="line"/>
      <point x="323.100001037" y="1384.79999971" type="line"/>
      <point x="164.39999938" y="1372.99999964" type="line"/>
      <point x="164.39999938" y="0.300000011921" type="line"/>
      <point x="292.300000966" y="0.300000011921" type="line"/>
      <point x="312.600001097" y="256.399998546" type="line"/>
      <point x="268.500001132" y="249.599998355" type="line"/>
      <point x="312.100001395" y="136.799998641"/>
      <point x="435.800001502" y="-18.0"/>
    </contour>
    <contour>
      <point x="622.699999511" y="101.300001323" type="curve" smooth="yes"/>
      <point x="436.600000501" y="101.300001323"/>
      <point x="319.500001013" y="239.200000644"/>
      <point x="319.500001013" y="512.30000025" type="curve"/>
      <point x="319.400001049" y="744.400000215"/>
      <point x="417.300000966" y="896.09999913"/>
      <point x="629.799999475" y="896.09999913" type="curve" smooth="yes"/>
      <point x="831.799998164" y="896.09999913"/>
      <point x="909.899998367" y="732.100000322"/>
      <point x="909.899998367" y="496.400000334" type="curve" smooth="yes"/>
      <point x="909.899998367" y="252.300000489"/>
      <point x="821.899998248" y="101.300001323"/>
    </contour>
  </outline>
</glyph>
<glyph name="c" format="1">
  <advance width="939.400000095"/>
  <unicode hex="0063"/>
  <outline>
    <contour>
      <point x="578.699999988" y="-18.0" type="curve" smooth="yes"/>
      <point x="711.90000087" y="-18.0"/>
      <point x="808.500000536" y="22.8000003099"/>
      <point x="844.000000477" y="51.4000002146" type="curve"/>
      <point x="814.500000417" y="156.700001538" type="line"/>
      <point x="763.800000072" y="127.900001347"/>
      <point x="681.400000215" y="101.000001311"/>
      <point x="597.700000107" y="102.500001371" type="curve" smooth="yes"/>
      <point x="377.100001395" y="104.600001454"/>
      <point x="264.400001287" y="273.100000322"/>
      <point x="264.400001287" y="492.000000358" type="curve" smooth="yes"/>
      <point x="264.400001287" y="732.900000036"/>
      <point x="390.700001299" y="894.59999907"/>
      <point x="609.600000024" y="894.59999907" type="curve" smooth="yes"/>
      <point x="652.800001144" y="894.59999907"/>
      <point x="726.900001109" y="884.399998546"/>
      <point x="802.400000334" y="842.599998951" type="curve"/>
      <point x="847.000000596" y="947.100000203" type="line"/>
      <point x="783.200000286" y="987.000000477"/>
      <point x="692.100000203" y="1015.10000044"/>
      <point x="588.699999869" y="1015.10000044" type="curve" smooth="yes"/>
      <point x="307.49999994" y="1015.10000044"/>
      <point x="109.199999571" y="805.600000858"/>
      <point x="109.199999571" y="492.900000393" type="curve" smooth="yes"/>
      <point x="109.199999571" y="193.799999595"/>
      <point x="293.499999821" y="-18.0"/>
    </contour>
  </outline>
</glyph>
<glyph name="d" format="1">
  <advance width="1170.09999973"/>
  <unicode hex="0064"/>
  <outline>
    <contour>
      <point x="537.199999452" y="-17.6999999881" type="curve" smooth="yes"/>
      <point x="750.899999201" y="-17.6999999881"/>
      <point x="846.499998868" y="120.199999452"/>
      <point x="893.399998784" y="252.99999845" type="curve"/>
      <point x="855.299998581" y="255.799998403" type="line"/>
      <point x="875.999998808" y="0.0" type="line"/>
      <point x="1005.70000035" y="0.0" type="line"/>
      <point x="1005.70000035" y="1384.79999971" type="line"/>
      <point x="849.099998653" y="1372.99999964" type="line"/>
      <point x="849.099998653" y="1062.49999982" type="line"/>
      <point x="859.799998641" y="758.400001884" type="line"/>
      <point x="891.499998748" y="768.200002074" type="line"/>
      <point x="831.699998796" y="897.50000149"/>
      <point x="747.299998462" y="1015.10000044"/>
      <point x="535.099999487" y="1015.10000044" type="curve" smooth="yes"/>
      <point x="268.899999559" y="1015.10000044"/>
      <point x="109.199999571" y="805.700000346"/>
      <point x="109.199999571" y="504.400000215" type="curve" smooth="yes"/>
      <point x="109.199999571" y="189.500000179"/>
      <point x="257.999999762" y="-17.6999999881"/>
    </contour>
    <contour>
      <point x="551.200000167" y="101.300001323" type="curve" smooth="yes"/>
      <point x="348.000001311" y="101.300001323"/>
      <point x="265.800001264" y="265.200000167"/>
      <point x="265.800001264" y="501.500000179" type="curve" smooth="yes"/>
      <point x="265.800001264" y="747.700000107"/>
      <point x="362.300001442" y="895.499999106"/>
      <point x="559.400000215" y="895.499999106" type="curve" smooth="yes"/>
      <point x="744.599999309" y="895.499999106"/>
      <point x="854.499998748" y="754.800000072"/>
      <point x="854.499998748" y="486.500000179" type="curve"/>
      <point x="853.899998724" y="254.400000215"/>
      <point x="764.899998844" y="101.300001323"/>
    </contour>
  </outline>
</glyph>
<glyph name="e" format="1">
  <advance width="1087.80000055"/>
  <unicode hex="0065"/>
  <outline>
    <contour>
      <point x="593.600000501" y="-18.0" type="curve" smooth="yes"/>
      <point x="741.200000644" y="-18.0"/>
      <point x="857.300000846" y="14.5999999046"/>
      <point x="951.90000087" y="69.3000000119" type="curve"/>
      <point x="917.600000858" y="175.100001276" type="line"/>
      <point x="823.80000174" y="129.500001729"/>
      <point x="728.100001395" y="101.20000124"/>
      <point x="611.300000608" y="101.20000124" type="curve" smooth="yes"/>
      <point x="417.300000966" y="101.20000124"/>
      <point x="262.200001359" y="217.700000942"/>
      <point x="262.500001371" y="505.299999774" type="curve"/>
      <point x="221.20000124" y="472.499999583" type="line"/>
      <point x="969.800000906" y="472.499999583" type="line"/>
      <point x="969.800000906" y="472.499999583"/>
      <point x="975.40000093" y="527.600000262"/>
      <point x="975.40000093" y="552.400000095" type="curve" smooth="yes"/>
      <point x="975.40000093" y="830.900000155"/>
      <point x="830.400000572" y="1015.10000044"/>
      <point x="578.700000107" y="1015.10000044" type="curve" smooth="yes"/>
      <point x="321.899999559" y="1014.80000043"/>
      <point x="109.199999571" y="817.400000215"/>
      <point x="109.199999571" y="493.100000322" type="curve" smooth="yes"/>
      <point x="109.199999571" y="174.600000143"/>
      <point x="310.799999952" y="-18.0"/>
    </contour>
    <contour>
      <point x="266.400001407" y="539.900000513" type="line"/>
      <point x="274.100001276" y="758.500000179"/>
      <point x="407.700001299" y="898.799999237"/>
      <point x="582.800000072" y="898.799999237" type="curve" smooth="yes"/>
      <point x="753.699999154" y="898.799999237"/>
      <point x="835.699999154" y="773.499999821"/>
      <point x="836.899999201" y="534.500000656" type="curve"/>
      <point x="882.199999094" y="574.500000656" type="line"/>
      <point x="221.800001264" y="574.500000656" type="line"/>
    </contour>
  </outline>
</glyph>
<glyph name="f" format="1">
  <advance width="715.400000572"/>
  <unicode hex="0066"/>
  <outline>
    <contour>
      <point x="252.599999428" y="0.0" type="line"/>
      <point x="409.200001121" y="0.0" type="line"/>
      <point x="409.200001121" y="932.299999416" type="line"/>
      <point x="369.200001121" y="894.999999046" type="line"/>
      <point x="645.500001132" y="894.999999046" type="line"/>
      <point x="645.500001132" y="995.000000358" type="line"/>
      <point x="367.600000978" y="995.000000358" type="line"/>
      <point x="409.200001121" y="963.600000024" type="line"/>
      <point x="409.200001121" y="1065.60000002" type="line" smooth="yes"/>
      <point x="409.200001121" y="1253.49999899"/>
      <point x="468.000000954" y="1276.3999989"/>
      <point x="562.600000739" y="1276.3999989" type="curve" smooth="yes"/>
      <point x="605.400000691" y="1276.3999989"/>
      <point x="663.500000536" y="1267.59999895"/>
      <point x="672.500000894" y="1266.09999889" type="curve"/>
      <point x="684.300001085" y="1375.50000018" type="line"/>
      <point x="664.200000286" y="1379.40000033"/>
      <point x="602.900000274" y="1391.00000024"/>
      <point x="533.400000453" y="1391.00000024" type="curve" smooth="yes"/>
      <point x="359.400000095" y="1391.00000024"/>
      <point x="252.599999428" y="1308.40000045"/>
      <point x="252.599999428" y="1056.49999982" type="curve" smooth="yes"/>
      <point x="252.599999428" y="963.0" type="line"/>
      <point x="294.099999487" y="998.30000037" type="line"/>
      <point x="77.3000000119" y="978.400000334" type="line"/>
      <point x="72.3000000119" y="894.999999046" type="line"/>
      <point x="285.599999547" y="894.999999046" type="line"/>
      <point x="252.599999428" y="934.89999944" type="line"/>
    </contour>
  </outline>
</glyph>
<glyph name="g" format="1">
  <advance width="1184.69999939"/>
  <unicode hex="0067"/>
  <outline>
    <contour>
      <point x="565.499999821" y="119.400001287" type="curve" smooth="yes"/>
      <point x="338.500000775" y="119.400001287"/>
      <point x="260.100001037" y="328.100000083"/>
      <point x="260.100001037" y="500.800000429" type="curve" smooth="yes"/>
      <point x="260.100001037" y="688.700000465"/>
      <point x="342.000000954" y="895.499999106"/>
      <point x="570.299999893" y="895.499999106" type="curve"/>
      <point x="795.199998736" y="895.499999106"/>
      <point x="875.799998403" y="743.499999821"/>
      <point x="875.799998403" y="544.399999857" type="curve" smooth="yes"/>
      <point x="875.799998403" y="460.400000811" type="line"/>
      <point x="875.199998379" y="283.800000668"/>
      <point x="789.399998903" y="119.400001287"/>
    </contour>
    <contour>
      <point x="480.89999944" y="-435.700000823" type="curve" smooth="yes"/>
      <point x="875.199998975" y="-435.700000823"/>
      <point x="1029.09999996" y="-208.700000942"/>
      <point x="1029.09999996" y="95.9000002742" type="curve" smooth="yes"/>
      <point x="1029.09999996" y="995.000000358" type="line"/>
      <point x="886.099998534" y="995.000000358" type="line"/>
      <point x="871.599998474" y="787.300000966" type="line"/>
      <point x="903.799998522" y="790.000001073" type="line"/>
      <point x="853.799998403" y="927.800001144"/>
      <point x="736.899998486" y="1015.10000044"/>
      <point x="560.799999237" y="1015.10000044" type="curve" smooth="yes"/>
      <point x="246.700000584" y="1015.10000044"/>
      <point x="103.499999344" y="767.900001466"/>
      <point x="103.499999344" y="492.400000453" type="curve" smooth="yes"/>
      <point x="103.499999344" y="254.999999285"/>
      <point x="244.50000006" y="0.0"/>
      <point x="548.599999309" y="0.0" type="curve" smooth="yes"/>
      <point x="746.099998295" y="0.0"/>
      <point x="874.299998343" y="111.099998772"/>
      <point x="913.099998534" y="259.999999642" type="curve"/>
      <point x="874.899998367" y="261.599999785" type="line"/>
      <point x="874.899998367" y="65.2999990582" type="line" smooth="yes"/>
      <point x="874.899998367" y="-179.69999963"/>
      <point x="760.999998212" y="-313.499999464"/>
      <point x="471.899999559" y="-313.499999464" type="curve" smooth="yes"/>
      <point x="457.799999714" y="-313.499999464"/>
      <point x="434.699496395" y="-313.538846535"/>
      <point x="263.999999046" y="-307.099999487" type="curve"/>
      <point x="263.999999046" y="-429.300000846" type="line"/>
      <point x="457.499447448" y="-435.748153299"/>
      <point x="469.699999511" y="-435.700000823"/>
    </contour>
  </outline>
</glyph>
<glyph name="h" format="1">
  <advance width="1135.20000005"/>
  <unicode hex="0068"/>
  <outline>
    <contour>
      <point x="164.39999938" y="0.0" type="line"/>
      <point x="320.100001037" y="0.0" type="line"/>
      <point x="320.100001037" y="544.199999094" type="line" smooth="yes"/>
      <point x="320.100001037" y="717.19999969"/>
      <point x="379.300000727" y="895.799999118"/>
      <point x="617.999999881" y="895.799999118" type="curve" smooth="yes"/>
      <point x="770.099999249" y="895.799999118"/>
      <point x="824.199998975" y="800.899999559"/>
      <point x="824.199998975" y="609.600000143" type="curve" smooth="yes"/>
      <point x="824.199998975" y="0.0" type="line"/>
      <point x="980.800000668" y="0.0" type="line"/>
      <point x="980.800000668" y="615.800000429" type="line" smooth="yes"/>
      <point x="980.800000668" y="871.100000799"/>
      <point x="864.200000286" y="1015.10000044"/>
      <point x="646.000000358" y="1015.10000044" type="curve" smooth="yes"/>
      <point x="474.700000823" y="1015.10000044"/>
      <point x="338.700000942" y="933.10000056"/>
      <point x="276.000000834" y="784.500001252" type="curve"/>
      <point x="313.800001025" y="771.500001132" type="line"/>
      <point x="321.000001073" y="1050.90000087" type="line"/>
      <point x="321.000001073" y="1384.79999971" type="line"/>
      <point x="164.39999938" y="1372.99999964" type="line"/>
    </contour>
  </outline>
</glyph>
<glyph name="i" format="1">
  <advance width="485.300000608"/>
  <unicode hex="0069"/>
  <outline>
    <contour>
      <point x="167.099999487" y="0.0" type="line"/>
      <point x="323.70000118" y="0.0" type="line"/>
      <point x="323.70000118" y="995.000000358" type="line"/>
      <point x="167.099999487" y="995.000000358" type="line"/>
    </contour>
    <contour>
      <point x="167.099999487" y="1193.39999938" type="line"/>
      <point x="323.70000118" y="1193.39999938" type="line"/>
      <point x="323.70000118" y="1353.39999998" type="line"/>
      <point x="167.099999487" y="1353.39999998" type="line"/>
    </contour>
  </outline>
</glyph>
<glyph name="j" format="1">
  <advance width="519.300000727"/>
  <unicode hex="006A"/>
  <outline>
    <contour>
      <point x="31.699999392" y="-401.399999619" type="line"/>
      <point x="76.9999996424" y="-401.399999619" type="line" smooth="yes"/>
      <point x="308.900001109" y="-401.399999619"/>
      <point x="362.500001252" y="-323.299998581"/>
      <point x="362.500001252" y="-85.2999978662" type="curve" smooth="yes"/>
      <point x="362.500001252" y="995.30000037" type="line"/>
      <point x="205.399999619" y="995.30000037" type="line"/>
      <point x="205.399999619" y="-59.9999990463" type="line" smooth="yes"/>
      <point x="205.399999619" y="-233.699998558"/>
      <point x="200.799999475" y="-268.199998617"/>
      <point x="58.3999994993" y="-268.199998617" type="curve" smooth="yes"/>
      <point x="13.8999992013" y="-268.199998617" type="line"/>
    </contour>
    <contour>
      <point x="205.399999619" y="1193.39999938" type="line"/>
      <point x="362.500001252" y="1193.39999938" type="line"/>
      <point x="362.500001252" y="1353.39999998" type="line"/>
      <point x="205.399999619" y="1353.39999998" type="line"/>
    </contour>
  </outline>
</glyph>
<glyph name="k" format="1">
  <advance width="1044.10000092"/>
  <unicode hex="006B"/>
  <outline>
    <contour>
      <point x="164.39999938" y="0.0" type="line"/>
      <point x="321.000001073" y="0.0" type="line"/>
      <point x="321.000001073" y="401.400000334" type="line"/>
      <point x="280.600000739" y="317.799999595" type="line"/>
      <point x="467.900000751" y="489.099999726" type="line"/>
      <point x="407.500000536" y="489.099999726" type="line"/>
      <point x="831.799999237" y="0.0" type="line"/>
      <point x="1014.50000125" y="0.0" type="line"/>
      <point x="512.000002027" y="573.700000703" type="line"/>
      <point x="512.000002027" y="503.099999964" type="line"/>
      <point x="1003.10000104" y="995.000000358" type="line"/>
      <point x="813.099998772" y="995.000000358" type="line"/>
      <point x="280.100000918" y="463.200001121" type="line"/>
      <point x="314.700001061" y="463.200001121" type="line"/>
      <point x="321.000001073" y="695.400001526" type="line"/>
      <point x="321.000001073" y="1384.79999971" type="line"/>
      <point x="164.39999938" y="1372.99999964" type="line"/>
    </contour>
  </outline>
</glyph>
<glyph name="l" format="1">
  <advance width="594.600001454"/>
  <unicode hex="006C"/>
  <outline>
    <contour>
      <point x="456.600000978" y="-10.9000000358" type="curve" smooth="yes"/>
      <point x="523.900001109" y="-10.9000000358"/>
      <point x="579.000001311" y="-0.599999904633"/>
      <point x="595.100001156" y="2.40000009537" type="curve"/>
      <point x="595.100001156" y="111.000001311" type="line"/>
      <point x="582.500001013" y="109.700001299"/>
      <point x="528.40000093" y="103.100001276"/>
      <point x="482.600001216" y="103.100001276" type="curve" smooth="yes"/>
      <point x="370.300001681" y="103.100001276"/>
      <point x="321.600001097" y="143.700000942"/>
      <point x="321.600001097" y="281.80000186" type="curve" smooth="yes"/>
      <point x="321.600001097" y="1384.79999971" type="line"/>
      <point x="164.999999404" y="1372.99999964" type="line"/>
      <point x="164.999999404" y="289.700001895" type="line" smooth="yes"/>
      <point x="164.999999404" y="56.8000011444"/>
      <point x="288.09999913" y="-10.9000000358"/>
    </contour>
  </outline>
</glyph>
<glyph name="m" format="1">
  <advance width="1678.10000032"/>
  <unicode hex="006D"/>
  <outline>
    <contour>
      <point x="164.39999938" y="0.0" type="line"/>
      <point x="321.000001073" y="0.0" type="line"/>
      <point x="321.000001073" y="605.299998105" type="line" smooth="yes"/>
      <point x="345.500000656" y="769.599998713"/>
      <point x="429.399999619" y="895.799999118"/>
      <point x="589.600000024" y="895.799999118" type="curve" smooth="yes"/>
      <point x="732.499999583" y="895.799999118"/>
      <point x="771.399999261" y="792.499999344"/>
      <point x="771.399999261" y="558.500000536" type="curve" smooth="yes"/>
      <point x="771.399999261" y="0.0" type="line"/>
      <point x="928.000000954" y="0.0" type="line"/>
      <point x="928.000000954" y="511.300001442" type="line"/>
      <point x="929.706861224" y="589.257303793"/>
      <point x="930.869185427" y="638.817602024"/>
      <point x="938.338066972" y="665.855564202" type="curve" smooth="yes"/>
      <point x="974.458973491" y="820.123642576"/>
      <point x="1079.35689946" y="895.799999118"/>
      <point x="1193.59999979" y="895.799999118" type="curve" smooth="yes"/>
      <point x="1372.2999987" y="895.799999118"/>
      <point x="1367.09999925" y="714.400000811"/>
      <point x="1367.09999925" y="566.400000215" type="curve" smooth="yes"/>
      <point x="1367.09999925" y="0.0" type="line"/>
      <point x="1523.70000094" y="0.0" type="line"/>
      <point x="1523.70000094" y="641.100000083" type="line" smooth="yes"/>
      <point x="1523.70000094" y="884.400000215"/>
      <point x="1425.30000085" y="1015.10000044"/>
      <point x="1218.60000038" y="1015.10000044" type="curve" smooth="yes"/>
      <point x="1046.6000011" y="1015.10000044"/>
      <point x="932.900000989" y="915.200001121"/>
      <point x="867.300000727" y="767.900001347" type="curve"/>
      <point x="905.400001049" y="767.900001347" type="line"/>
      <point x="865.800000668" y="899.500001371"/>
      <point x="800.000000358" y="1015.10000044"/>
      <point x="614.90000087" y="1015.10000044" type="curve" smooth="yes"/>
      <point x="452.000000596" y="1015.10000044"/>
      <point x="340.200000644" y="919.200000525"/>
      <point x="273.800000787" y="788.700001061" type="curve"/>
      <point x="317.000000954" y="779.200001121" type="line"/>
      <point x="291.200000763" y="995.000000358" type="line"/>
      <point x="164.39999938" y="995.000000358" type="line"/>
    </contour>
  </outline>
</glyph>
<glyph name="n" format="1">
  <advance width="1142.10000056"/>
  <unicode hex="006E"/>
  <outline>
    <contour>
      <point x="164.39999938" y="0.0" type="line"/>
      <point x="321.000001073" y="0.0" type="line"/>
      <point x="321.000001073" y="554.099999011" type="line" smooth="yes"/>
      <point x="321.000001073" y="734.199999571"/>
      <point x="387.400001049" y="895.799999118"/>
      <point x="627.900000274" y="895.799999118" type="curve" smooth="yes"/>
      <point x="787.499999702" y="895.799999118"/>
      <point x="831.499999464" y="792.499999464"/>
      <point x="831.099999487" y="624.599999785" type="curve"/>
      <point x="831.099999487" y="0.0" type="line"/>
      <point x="987.70000118" y="0.0" type="line"/>
      <point x="987.70000118" y="607.800000548" type="line" smooth="yes"/>
      <point x="987.70000118" y="878.400000215"/>
      <point x="883.800001025" y="1015.10000044"/>
      <point x="655.100000918" y="1015.10000044" type="curve" smooth="yes"/>
      <point x="465.500001132" y="1015.10000044"/>
      <point x="349.200001001" y="928.700000584"/>
      <point x="285.000000596" y="802.500000656" type="curve"/>
      <point x="324.400000811" y="802.500000656" type="line"/>
      <point x="300.300000608" y="995.000000358" type="line"/>
      <point x="164.39999938" y="995.000000358" type="line"/>
    </contour>
  </outline>
</glyph>
<glyph name="o" format="1">
  <advance width="1155.40000021"/>
  <unicode hex="006F"/>
  <outline>
    <contour>
      <point x="577.700000107" y="101.000001311" type="curve" smooth="yes"/>
      <point x="370.700001061" y="101.000001311"/>
      <point x="264.400001287" y="268.600000381"/>
      <point x="264.400001287" y="495.200000286" type="curve" smooth="yes"/>
      <point x="264.400001287" y="727.200000048"/>
      <point x="371.300001085" y="895.799999118"/>
      <point x="577.700000107" y="895.799999118" type="curve" smooth="yes"/>
      <point x="788.899999082" y="895.799999118"/>
      <point x="890.999998927" y="726.50000006"/>
      <point x="890.999998927" y="494.500000298" type="curve" smooth="yes"/>
      <point x="890.999998927" y="268.000000358"/>
      <point x="790.699999034" y="101.000001311"/>
    </contour>
    <contour>
      <point x="577.700000107" y="-18.0" type="curve" smooth="yes"/>
      <point x="857.700000584" y="-18.0"/>
      <point x="1046.20000064" y="197.599999785"/>
      <point x="1046.20000064" y="496.600000262" type="curve" smooth="yes"/>
      <point x="1046.20000064" y="803.500000536"/>
      <point x="871.900000155" y="1015.10000044"/>
      <point x="577.700000107" y="1015.10000044" type="curve" smooth="yes"/>
      <point x="285.799999833" y="1015.10000044"/>
      <point x="109.199999571" y="802.400000691"/>
      <point x="109.199999571" y="496.600000262" type="curve" smooth="yes"/>
      <point x="109.199999571" y="196.999999881"/>
      <point x="289.699999988" y="-18.0"/>
    </contour>
  </outline>
</glyph>
<glyph name="p" format="1">
  <advance width="1170.99999976"/>
  <unicode hex="0070"/>
  <outline>
    <contour>
      <point x="165.299999416" y="-436.699999511" type="line"/>
      <point x="321.900001109" y="-427.199999452" type="line"/>
      <point x="321.900001109" y="-61.1999992132" type="line"/>
      <point x="311.70000118" y="281.699998319" type="line"/>
      <point x="273.900000989" y="253.499998391" type="line"/>
      <point x="320.000000834" y="126.099999487"/>
      <point x="438.700000703" y="-18.0"/>
      <point x="642.400000215" y="-18.0" type="curve" smooth="yes"/>
      <point x="908.000000119" y="-18.0"/>
      <point x="1061.80000019" y="193.700000226"/>
      <point x="1061.80000019" y="494.100000322" type="curve" smooth="yes"/>
      <point x="1061.80000019" y="801.800000072"/>
      <point x="918.400000095" y="1015.10000044"/>
      <point x="643.10000056" y="1015.10000044" type="curve" smooth="yes"/>
      <point x="473.800001264" y="1015.10000044"/>
      <point x="344.600001097" y="915.100001156"/>
      <point x="282.700000703" y="762.500001371" type="curve"/>
      <point x="317.000001192" y="759.000001431" type="line"/>
      <point x="295.300000966" y="995.000000358" type="line"/>
      <point x="165.299999416" y="995.000000358" type="line"/>
    </contour>
    <contour>
      <point x="618.199999809" y="101.300001323" type="curve" smooth="yes"/>
      <point x="429.400000572" y="101.300001323"/>
      <point x="319.200001121" y="252.500000417"/>
      <point x="319.200001121" y="512.500000298" type="curve"/>
      <point x="319.800001144" y="741.700000226"/>
      <point x="412.40000093" y="895.799999118"/>
      <point x="625.399999619" y="895.799999118" type="curve" smooth="yes"/>
      <point x="825.899998367" y="895.799999118"/>
      <point x="905.199998498" y="730.600000262"/>
      <point x="905.199998498" y="496.100000322" type="curve" smooth="yes"/>
      <point x="905.199998498" y="255.300000608"/>
      <point x="815.599998593" y="101.300001323"/>
    </contour>
  </outline>
</glyph>
<glyph name="q" format="1">
  <advance width="1199.49999923"/>
  <unicode hex="0071"/>
  <outline>
    <contour>
      <point x="879.899998128" y="-436.699999511" type="line"/>
      <point x="1035.09999985" y="-427.999999404" type="line"/>
      <point x="1035.09999985" y="995.000000358" type="line"/>
      <point x="893.399998426" y="995.000000358" type="line"/>
      <point x="871.199998379" y="773.800001144" type="line"/>
      <point x="902.999998689" y="781.000001311" type="line"/>
      <point x="846.399998784" y="912.300000489"/>
      <point x="737.999999166" y="1015.10000044"/>
      <point x="548.299999297" y="1015.10000044" type="curve" smooth="yes"/>
      <point x="267.89999944" y="1015.10000044"/>
      <point x="109.199999571" y="797.400000334"/>
      <point x="109.199999571" y="490.600000381" type="curve" smooth="yes"/>
      <point x="109.199999571" y="195.000000119"/>
      <point x="285.599999428" y="-18.0"/>
      <point x="545.999999404" y="-18.0" type="curve" smooth="yes"/>
      <point x="766.899998128" y="-18.0"/>
      <point x="873.099998057" y="112.899998963"/>
      <point x="923.99999845" y="254.699998677" type="curve"/>
      <point x="886.599998116" y="272.599998713" type="line"/>
      <point x="879.899998128" y="-66.5999985933" type="line"/>
    </contour>
    <contour>
      <point x="570.299999774" y="100.700001299" type="curve" smooth="yes"/>
      <point x="365.900000989" y="100.700001299"/>
      <point x="264.400001287" y="257.800000429"/>
      <point x="264.400001287" y="498.400000215" type="curve" smooth="yes"/>
      <point x="264.400001287" y="732.100000203"/>
      <point x="361.200001121" y="895.499999106"/>
      <point x="570.799999714" y="895.499999106" type="curve" smooth="yes"/>
      <point x="790.699998438" y="895.499999106"/>
      <point x="877.299998343" y="746.0"/>
      <point x="877.299998343" y="519.499999583" type="curve"/>
      <point x="878.499998271" y="256.000000119"/>
      <point x="802.399998188" y="100.700001299"/>
    </contour>
  </outline>
</glyph>
<glyph name="r" format="1">
  <advance width="764.700000346"/>
  <unicode hex="0072"/>
  <outline>
    <contour>
      <point x="164.999999404" y="0.0" type="line"/>
      <point x="321.600001097" y="0.0" type="line"/>
      <point x="321.600001097" y="562.899999797" type="line" smooth="yes"/>
      <point x="321.600001097" y="735.699999511"/>
      <point x="447.700000703" y="879.099998772"/>
      <point x="621.800000668" y="879.099998772" type="curve" smooth="yes"/>
      <point x="642.900000751" y="879.099998772"/>
      <point x="667.200000763" y="877.099998772"/>
      <point x="691.100000918" y="871.79999876" type="curve"/>
      <point x="697.90000087" y="999.600000262" type="line"/>
      <point x="675.800000787" y="1003.5000003"/>
      <point x="649.90000087" y="1004.90000027"/>
      <point x="622.000000954" y="1004.90000027" type="curve" smooth="yes"/>
      <point x="496.300001085" y="1004.90000027"/>
      <point x="359.300001085" y="926.700000465"/>
      <point x="277.600000858" y="737.800001144" type="curve"/>
      <point x="313.20000124" y="731.700001061" type="line"/>
      <point x="290.000000954" y="995.000000358" type="line"/>
      <point x="164.999999404" y="995.000000358" type="line"/>
    </contour>
  </outline>
</glyph>
<glyph name="s" format="1">
  <advance width="909.800000548"/>
  <unicode hex="0073"/>
  <outline>
    <contour>
      <point x="459.30000037" y="-17.6999999881" type="curve" smooth="yes"/>
      <point x="677.000000715" y="-17.6999999881"/>
      <point x="807.700000823" y="79.3493903346"/>
      <point x="807.700000823" y="262.600000739" type="curve" smooth="yes"/>
      <point x="807.700000823" y="412.100000918"/>
      <point x="742.100000203" y="489.800000787"/>
      <point x="527.900000989" y="563.000000834" type="curve" smooth="yes"/>
      <point x="438.600001574" y="592.900000751" type="line" smooth="yes"/>
      <point x="307.692301657" y="639.575700927"/>
      <point x="270.50000149" y="672.60000062"/>
      <point x="270.50000149" y="760.300000131" type="curve" smooth="yes"/>
      <point x="270.50000149" y="841.69999975"/>
      <point x="346.200001121" y="898.799999237"/>
      <point x="485.400000215" y="898.799999237" type="curve" smooth="yes"/>
      <point x="585.600000024" y="898.799999237"/>
      <point x="659.800000548" y="872.59999907"/>
      <point x="723.300000727" y="843.299998939" type="curve"/>
      <point x="761.700001061" y="954.399999976" type="line"/>
      <point x="674.100000799" y="994.500000179"/>
      <point x="593.500000298" y="1015.10000044"/>
      <point x="474.30000025" y="1015.10000044" type="curve" smooth="yes"/>
      <point x="254.500000179" y="1015.10000044"/>
      <point x="132.399999976" y="902.900000632"/>
      <point x="132.399999976" y="744.50000006" type="curve"/>
      <point x="132.699999988" y="622.39649938"/>
      <point x="187.30000037" y="542.099999726"/>
      <point x="369.300000131" y="478.499999464" type="curve"/>
      <point x="456.299999535" y="448.999999523" type="line" smooth="yes"/>
      <point x="625.3482987" y="390.563099497"/>
      <point x="667.199999094" y="346.299999893"/>
      <point x="667.199999094" y="254.000000358" type="curve"/>
      <point x="666.59999907" y="152.200000882"/>
      <point x="607.099999487" y="98.6000012159"/>
      <point x="464.200000286" y="97.7000011802" type="curve" smooth="yes"/>
      <point x="336.200000763" y="96.8000011444"/>
      <point x="236.800000072" y="136.700001538"/>
      <point x="178.599999785" y="164.300001919" type="curve"/>
      <point x="144.099999607" y="54.900000751" type="line"/>
      <point x="177.39999938" y="36.8000007868"/>
      <point x="306.999999642" y="-17.6999999881"/>
    </contour>
  </outline>
</glyph>
<glyph name="t" format="1">
  <advance width="771.000001073"/>
  <unicode hex="0074"/>
  <outline>
    <contour>
      <point x="511.500001013" y="-10.9000000358" type="curve" smooth="yes"/>
      <point x="610.600001097" y="-10.9000000358"/>
      <point x="681.00000155" y="8.60000014305"/>
      <point x="683.400001645" y="9.50000017881" type="curve"/>
      <point x="683.400001645" y="111.900001347" type="line"/>
      <point x="681.900001585" y="111.000001311"/>
      <point x="604.600001335" y="99.2000012398"/>
      <point x="540.700001419" y="99.2000012398" type="curve" smooth="yes"/>
      <point x="442.400001407" y="99.2000012398"/>
      <point x="378.300001442" y="140.800001383"/>
      <point x="378.300001442" y="301.300001442" type="curve" smooth="yes"/>
      <point x="378.300001442" y="932.499999464" type="line"/>
      <point x="345.300001323" y="898.899999201" type="line"/>
      <point x="672.900001109" y="898.899999201" type="line"/>
      <point x="672.900001109" y="995.000000358" type="line"/>
      <point x="345.000001311" y="995.000000358" type="line"/>
      <point x="378.300001442" y="958.50000006" type="line"/>
      <point x="378.300001442" y="1248.40000033" type="line"/>
      <point x="271.200000167" y="1244.90000039" type="line"/>
      <point x="223.299999774" y="968.0" type="line"/>
      <point x="264.400000334" y="998.000000358" type="line"/>
      <point x="80.9999996424" y="985.100000322" type="line"/>
      <point x="76.7999994755" y="899.199999213" type="line"/>
      <point x="254.699999869" y="899.199999213" type="line"/>
      <point x="221.69999975" y="933.499999464" type="line"/>
      <point x="221.69999975" y="300.300001562" type="line"/>
      <point x="221.999999762" y="85.4000006914"/>
      <point x="326.399999619" y="-10.9000000358"/>
    </contour>
  </outline>
</glyph>
<glyph name="v" format="1">
  <advance width="1020.30000085"/>
  <unicode hex="0076"/>
  <outline>
    <contour>
      <point x="434.899999797" y="0.0" type="line"/>
      <point x="593.400001287" y="0.0" type="line"/>
      <point x="969.100001276" y="995.000000358" type="line"/>
      <point x="809.599999428" y="995.000000358" type="line"/>
      <point x="609.099999845" y="427.600000739" type="line"/>
      <point x="495.400000572" y="101.3000018" type="line"/>
      <point x="534.900000632" y="101.3000018" type="line"/>
      <point x="417.70000118" y="425.800000787" type="line"/>
      <point x="211.600001454" y="995.000000358" type="line"/>
      <point x="51.1999995708" y="995.000000358" type="line"/>
    </contour>
  </outline>
</glyph>
<glyph name="w" format="1">
  <advance width="1480.20000124"/>
  <unicode hex="0077"/>
  <outline>
    <contour>
      <point x="332.399999738" y="0.0" type="line"/>
      <point x="482.600001335" y="0.0" type="line"/>
      <point x="757.700000703" y="912.399998546" type="line"/>
      <point x="726.700000465" y="912.399998546" type="line"/>
      <point x="1018.59999931" y="0.0" type="line"/>
      <point x="1157.50000113" y="0.0" type="line"/>
      <point x="1426.20000172" y="995.000000358" type="line"/>
      <point x="1282.39999998" y="995.000000358" type="line"/>
      <point x="1069.30000013" y="110.400002122" type="line"/>
      <point x="1103.80000019" y="110.400002122" type="line"/>
      <point x="825.800001383" y="995.000000358" type="line"/>
      <point x="658.599999905" y="995.000000358" type="line"/>
      <point x="394.400000691" y="110.400002122" type="line"/>
      <point x="426.300000727" y="110.400002122" type="line"/>
      <point x="201.500001252" y="995.000000358" type="line"/>
      <point x="53.9999995232" y="995.000000358" type="line"/>
    </contour>
  </outline>
</glyph>
<glyph name="x" format="1">
  <advance width="1019.00000119"/>
  <unicode hex="0078"/>
  <outline>
    <contour>
      <point x="40.9999998808" y="0.0" type="line"/>
      <point x="215.000001788" y="0.0" type="line"/>
      <point x="526.200000644" y="418.199999213" type="line"/>
      <point x="583.000001431" y="467.300000012" type="line"/>
      <point x="961.900001347" y="995.000000358" type="line"/>
      <point x="787.89999944" y="995.000000358" type="line"/>
      <point x="491.900000513" y="577.800001502" type="line"/>
      <point x="436.399999619" y="534.600000501" type="line"/>
    </contour>
    <contour>
      <point x="791.299999535" y="0.0" type="line"/>
      <point x="965.400001526" y="0.0" type="line"/>
      <point x="240.400001645" y="995.000000358" type="line"/>
      <point x="65.7999997139" y="995.000000358" type="line"/>
    </contour>
  </outline>
</glyph>
<glyph name="y" format="1">
  <advance width="1020.30000061"/>
  <unicode hex="0079"/>
  <outline>
    <contour>
      <point x="453.800001144" y="-374.600000024" type="line"/>
      <point x="977.500000894" y="995.000000358" type="line"/>
      <point x="822.799998999" y="995.000000358" type="line"/>
      <point x="517.400000215" y="150.200001597" type="line"/>
      <point x="555.500000417" y="150.200001597" type="line"/>
      <point x="226.400001407" y="995.000000358" type="line"/>
      <point x="66.3999996185" y="995.000000358" type="line"/>
      <point x="486.299999535" y="-34.8000001907" type="line"/>
      <point x="486.299999535" y="82.8000003099" type="line"/>
      <point x="318.199999452" y="-355.499999821" type="line"/>
    </contour>
  </outline>
</glyph>
<glyph name="z" format="1">
  <advance width="889.500001252"/>
  <unicode hex="007A"/>
  <outline>
    <contour>
      <point x="110.999999881" y="0.0" type="line"/>
      <point x="788.600001454" y="0.0" type="line"/>
      <point x="788.600001454" y="112.200001359" type="line"/>
      <point x="220.60000217" y="112.200001359" type="line"/>
      <point x="242.10000211" y="55.2000011206" type="line"/>
      <point x="780.300001323" y="887.599999189" type="line"/>
      <point x="780.300001323" y="995.000000358" type="line"/>
      <point x="131.599999905" y="995.000000358" type="line"/>
      <point x="131.599999905" y="885.199999094" type="line"/>
      <point x="675.999999404" y="885.199999094" type="line"/>
      <point x="653.499999344" y="936.999999285" type="line"/>
      <point x="110.999999881" y="101.300000966" type="line"/>
    </contour>
  </outline>
</glyph>
<glyph name="braceleft" format="1">
  <advance width="733.699999273"/>
  <unicode hex="007B"/>
  <outline>
    <contour>
      <point x="597.800000548" y="-257.599999785" type="line" smooth="yes"/>
      <point x="377.199999928" y="-257.599999785"/>
      <point x="293.199999094" y="-146.800000668"/>
      <point x="293.199999094" y="59.3999994993" type="curve" smooth="yes"/>
      <point x="293.199999094" y="235.000000715" type="line" smooth="yes"/>
      <point x="293.199999094" y="395.500000298"/>
      <point x="273.999998808" y="507.699999154"/>
      <point x="96.5999991894" y="509.799999118" type="curve" smooth="yes"/>
      <point x="96.5999991894" y="628.300000727" type="line"/>
      <point x="271.899998963" y="628.600000739"/>
      <point x="293.199999094" y="743.199999452"/>
      <point x="293.199999094" y="901.499999106" type="curve" smooth="yes"/>
      <point x="293.199999094" y="1118.29999989" type="line" smooth="yes"/>
      <point x="293.199999094" y="1301.90000039"/>
      <point x="397.299999654" y="1401.89999968"/>
      <point x="597.800000548" y="1402.59999967" type="curve" smooth="yes"/>
      <point x="597.800000548" y="1287.99999821" type="line"/>
      <point x="464.800000668" y="1285.99999821"/>
      <point x="422.000001073" y="1231.19999862"/>
      <point x="422.000001073" y="1071.29999942" type="curve" smooth="yes"/>
      <point x="422.000001073" y="829.599999428" type="line"/>
      <point x="421.400001049" y="715.199999332"/>
      <point x="385.100000799" y="660.599999189"/>
      <point x="254.300001085" y="565.399999976" type="curve"/>
      <point x="377.100000799" y="530.900000036"/>
      <point x="422.700001061" y="419.700000703"/>
      <point x="422.000001073" y="313.400000453" type="curve" smooth="yes"/>
      <point x="422.000001073" y="71.8000004292" type="line" smooth="yes"/>
      <point x="422.000001073" y="-83.1999988556"/>
      <point x="462.400000691" y="-143.699998319"/>
      <point x="597.800000548" y="-145.699998319" type="curve"/>
    </contour>
  </outline>
</glyph>
<glyph name="bar" format="1">
  <advance width="327.800004721"/>
  <unicode hex="007C"/>
  <outline>
    <contour>
      <point x="105.200001836" y="-343.49999851" type="line"/>
      <point x="105.200001836" y="1456.69999999" type="line"/>
      <point x="221.500003278" y="1456.69999999" type="line"/>
      <point x="221.500003278" y="-343.49999851" type="line"/>
    </contour>
  </outline>
</glyph>
<glyph name="braceright" format="1">
  <advance width="733.699999273"/>
  <unicode hex="007D"/>
  <outline>
    <contour>
      <point x="105.899999559" y="-257.599999785" type="curve"/>
      <point x="105.899999559" y="-143.599998355" type="line"/>
      <point x="238.89999944" y="-141.599998355"/>
      <point x="281.399999022" y="-87.699998796"/>
      <point x="281.399999022" y="72.5000004172" type="curve" smooth="yes"/>
      <point x="281.399999022" y="314.800000429" type="line" smooth="yes"/>
      <point x="281.399999022" y="429.800000548"/>
      <point x="319.799999356" y="484.400000691"/>
      <point x="449.399999022" y="576.599999785" type="curve"/>
      <point x="325.099999249" y="614.099999845"/>
      <point x="281.299999058" y="724.699999154"/>
      <point x="281.399999022" y="830.999999404" type="curve"/>
      <point x="281.399999022" y="1071.9999994" type="line" smooth="yes"/>
      <point x="281.399999022" y="1227.2999987"/>
      <point x="241.299999416" y="1288.09999818"/>
      <point x="105.899999559" y="1290.09999818" type="curve"/>
      <point x="105.899999559" y="1402.59999967" type="line"/>
      <point x="326.200000167" y="1402.59999967"/>
      <point x="410.200001001" y="1292.40000057"/>
      <point x="410.200001001" y="1084.40000033" type="curve" smooth="yes"/>
      <point x="410.200001001" y="906.099999011" type="line" smooth="yes"/>
      <point x="410.200001001" y="745.599999428"/>
      <point x="427.900001228" y="634.900000632"/>
      <point x="607.100000918" y="632.500000656" type="curve"/>
      <point x="607.100000918" y="513.999999046" type="line"/>
      <point x="433.900001228" y="513.999999046"/>
      <point x="410.200001001" y="398.500000298"/>
      <point x="410.200001001" y="239.900000632" type="curve" smooth="yes"/>
      <point x="410.200001001" y="25.4999999404" type="line" smooth="yes"/>
      <point x="410.200001001" y="-157.500000536"/>
      <point x="308.200000525" y="-256.899999797"/>
    </contour>
  </outline>
</glyph>
<glyph name="asciitilde" format="1">
  <advance width="1130.60000014"/>
  <unicode hex="007E"/>
  <outline>
    <contour>
      <point x="135.800001025" y="461.699999511" type="curve"/>
      <point x="97.3000002503" y="550.000000358" type="line"/>
      <point x="139.400000334" y="651.600000262"/>
      <point x="220.900000274" y="730.400000334"/>
      <point x="340.700000584" y="730.400000334" type="curve" smooth="yes"/>
      <point x="415.200000644" y="730.400000334"/>
      <point x="468.900001109" y="710.000000238"/>
      <point x="562.400000811" y="668.600000381" type="curve" smooth="yes"/>
      <point x="651.200000644" y="630.800000429"/>
      <point x="726.000000358" y="594.400000691"/>
      <point x="782.30000025" y="594.400000691" type="curve" smooth="yes"/>
      <point x="859.100000083" y="594.400000691"/>
      <point x="933.399999857" y="661.600000143"/>
      <point x="969.600000501" y="740.400000215" type="curve"/>
      <point x="1014.70000106" y="659.199999332" type="line"/>
      <point x="968.800001025" y="545.399999738"/>
      <point x="895.400000334" y="474.499999464"/>
      <point x="780.200000048" y="474.499999464" type="curve" smooth="yes"/>
      <point x="715.599999666" y="474.499999464"/>
      <point x="648.099999726" y="500.099999487"/>
      <point x="571.499999583" y="534.599999547" type="curve"/>
      <point x="473.600000143" y="578.199999332"/>
      <point x="403.000000477" y="609.999999166"/>
      <point x="337.600000501" y="609.999999166" type="curve" smooth="yes"/>
      <point x="254.700000584" y="609.999999166"/>
      <point x="179.500000894" y="542.699999273"/>
    </contour>
  </outline>
</glyph>
<glyph name="cent" format="1">
  <advance width="937.0"/>
  <unicode hex="00A2"/>
  <outline>
    <contour>
      <point x="552.000000358" y="-146.0" type="line"/>
      <point x="629.000000477" y="-146.0" type="line"/>
      <point x="629.000000477" y="1156.0" type="line"/>
      <point x="552.000000358" y="1156.0" type="line"/>
    </contour>
    <component base="c"/>
  </outline>
</glyph>
<glyph name="sterling" format="1">
  <advance width="1087.19999862"/>
  <unicode hex="00A3"/>
  <outline>
    <contour>
      <point x="116.499999225" y="-3.39999961853" type="line"/>
      <point x="106.099999249" y="112.800001621" type="line"/>
      <point x="276.799998999" y="128.200001717" type="line" smooth="yes"/>
      <point x="276.799998999" y="622.499999702" type="line"/>
      <point x="105.499999106" y="622.499999702" type="line"/>
      <point x="105.499999106" y="735.300000846" type="line"/>
      <point x="276.799998999" y="735.300000846" type="line"/>
      <point x="276.799998999" y="831.900000632" type="line"/>
      <point x="276.799998999" y="1109.60000074"/>
      <point x="329.0" y="1369.39999986"/>
      <point x="660.799999356" y="1369.39999986" type="curve" smooth="yes"/>
      <point x="795.89999944" y="1369.39999986"/>
      <point x="900.999999642" y="1319.39999986"/>
      <point x="980.799999833" y="1251.4999997" type="curve"/>
      <point x="917.399999142" y="1151.59999859" type="line"/>
      <point x="836.899999201" y="1213.69999844"/>
      <point x="755.699999392" y="1248.09999841"/>
      <point x="660.299999535" y="1248.09999841" type="curve" smooth="yes"/>
      <point x="471.300000608" y="1248.09999841"/>
      <point x="414.300000727" y="1108.59999943"/>
      <point x="414.300000727" y="899.000000596" type="curve" smooth="yes"/>
      <point x="414.300000727" y="735.300000846" type="line"/>
      <point x="793.700000107" y="735.300000846" type="line"/>
      <point x="793.700000107" y="622.099999726" type="line"/>
      <point x="414.300000727" y="622.099999726" type="line"/>
      <point x="414.300000727" y="129.900001705" type="line"/>
      <point x="993.899999917" y="129.900001705" type="line"/>
      <point x="981.600000024" y="-3.39999961853" type="line"/>
    </contour>
  </outline>
</glyph>
<glyph name="currency" format="1">
  <advance width="1217.19999659"/>
  <unicode hex="00A4"/>
  <outline>
    <contour>
      <point x="1020.09999806" y="211.399999976" type="line"/>
      <point x="1075.99999869" y="273.000000596" type="line"/>
      <point x="909.499998748" y="435.300000489" type="line"/>
      <point x="958.899998605" y="500.000000477"/>
      <point x="987.199998498" y="577.400000334"/>
      <point x="987.199998498" y="664.500000179" type="curve" smooth="yes"/>
      <point x="987.199998498" y="746.000000119"/>
      <point x="958.699998558" y="824.600000024"/>
      <point x="908.499998748" y="893.999999881" type="curve"/>
      <point x="1076.99999869" y="1055.49999982" type="line"/>
      <point x="1020.09999806" y="1117.50000042" type="line"/>
      <point x="849.599998116" y="957.000000477" type="line"/>
      <point x="782.799998164" y="1013.00000036"/>
      <point x="699.599998355" y="1043.90000027"/>
      <point x="607.199998498" y="1043.90000027" type="curve" smooth="yes"/>
      <point x="515.399998665" y="1043.90000027"/>
      <point x="430.399998784" y="1014.5000003"/>
      <point x="363.099998891" y="958.300000489" type="curve"/>
      <point x="194.799998999" y="1117.50000042" type="line"/>
      <point x="133.599998355" y="1057.8999998" type="line"/>
      <point x="305.19999826" y="893.999999881" type="line"/>
      <point x="255.099998415" y="827.599999905"/>
      <point x="225.799998522" y="748.50000006"/>
      <point x="225.799998522" y="664.500000179" type="curve" smooth="yes"/>
      <point x="225.799998522" y="579.500000298"/>
      <point x="254.99999845" y="501.900000393"/>
      <point x="305.19999826" y="435.300000489" type="curve"/>
      <point x="134.599998355" y="273.800000548" type="line"/>
      <point x="194.799998999" y="212.399999976" type="line"/>
      <point x="363.199998856" y="371.999999881" type="line"/>
      <point x="430.399998784" y="315.600000024"/>
      <point x="513.799998641" y="286.100000083"/>
      <point x="607.199998498" y="286.100000083" type="curve" smooth="yes"/>
      <point x="699.999998331" y="286.100000083"/>
      <point x="782.6999982" y="316.50000006"/>
      <point x="849.599998116" y="371.599999905" type="curve"/>
    </contour>
    <contour>
      <point x="607.199998498" y="377.300000966" type="curve" smooth="yes"/>
      <point x="445.699999034" y="377.300000966"/>
      <point x="315.199999452" y="505.300000608"/>
      <point x="315.199999452" y="664.500000179" type="curve" smooth="yes"/>
      <point x="315.199999452" y="823.399999738"/>
      <point x="445.699999034" y="952.699999392"/>
      <point x="607.199998498" y="952.699999392" type="curve" smooth="yes"/>
      <point x="768.999997973" y="952.699999392"/>
      <point x="899.09999758" y="822.999999762"/>
      <point x="899.09999758" y="664.500000179" type="curve" smooth="yes"/>
      <point x="899.09999758" y="506.000000596"/>
      <point x="769.999997973" y="377.300000966"/>
    </contour>
  </outline>
</glyph>
<glyph name="yen" format="1">
  <advance width="1213.99999714"/>
  <unicode hex="00A5"/>
  <outline>
    <contour>
      <point x="497.699998558" y="0.0" type="line"/>
      <point x="653.400000215" y="0.0" type="line"/>
      <point x="653.400000215" y="281.499999583" type="line"/>
      <point x="951.900000393" y="281.499999583" type="line"/>
      <point x="951.900000393" y="379.300000727" type="line"/>
      <point x="653.400000215" y="379.300000727" type="line"/>
      <point x="653.400000215" y="554.999999523" type="line"/>
      <point x="950.500000417" y="554.999999523" type="line"/>
      <point x="950.500000417" y="652.900000513" type="line"/>
      <point x="701.882100615" y="652.900000513" type="line"/>
      <point x="1094.50000042" y="1348.59999979" type="line"/>
      <point x="938.699998438" y="1348.59999979" type="line"/>
      <point x="574.450699362" y="685.599601676" type="line"/>
      <point x="184.700000703" y="1348.59999979" type="line"/>
      <point x="28.0999986529" y="1348.59999979" type="line"/>
      <point x="444.729298165" y="652.900000513" type="line"/>
      <point x="191.999998569" y="652.900000513" type="line"/>
      <point x="191.999998569" y="554.999999523" type="line"/>
      <point x="497.699998558" y="554.999999523" type="line"/>
      <point x="497.699998558" y="379.300000727" type="line"/>
      <point x="190.599998593" y="379.300000727" type="line"/>
      <point x="190.599998593" y="281.499999583" type="line"/>
      <point x="497.699998558" y="281.499999583" type="line"/>
    </contour>
  </outline>
</glyph>
<glyph name="brokenbar" format="1">
  <advance width="326.700006664"/>
  <unicode hex="00A6"/>
  <outline>
    <contour>
      <point x="104.300002754" y="-367.099999487" type="line"/>
      <point x="104.300002754" y="274.300000966" type="line"/>
      <point x="221.300004184" y="274.300000966" type="line"/>
      <point x="221.300004184" y="-367.099999487" type="line"/>
    </contour>
    <contour>
      <point x="104.300002754" y="802.699998915" type="line"/>
      <point x="104.300002754" y="1441.69999939" type="line"/>
      <point x="221.300004184" y="1441.69999939" type="line"/>
      <point x="221.300004184" y="802.699998915" type="line"/>
    </contour>
  </outline>
</glyph>
<glyph name="section" format="1">
  <advance width="927"/>
  <unicode hex="00A7"/>
  <outline>
    <contour>
      <point x="792" y="253" type="curve" smooth="yes"/>
      <point x="792" y="63.5868"/>
      <point x="621.625" y="-17.31"/>
      <point x="432.689" y="-17.31" type="curve" smooth="yes"/>
      <point x="333.975" y="-17.31"/>
      <point x="230.195" y="4.77307"/>
      <point x="143" y="45" type="curve"/>
      <point x="174" y="126" type="line"/>
      <point x="248.49" y="87.4407"/>
      <point x="346.847" y="63.3408"/>
      <point x="438.148" y="63.3408" type="curve" smooth="yes"/>
      <point x="575.568" y="63.3408"/>
      <point x="697" y="117.937"/>
      <point x="697" y="260" type="curve" smooth="yes"/>
      <point x="697" y="364"/>
      <point x="629.289" y="405.595"/>
      <point x="444" y="470" type="curve" smooth="yes"/>
      <point x="255.713" y="535.447"/>
      <point x="137" y="590"/>
      <point x="137" y="740" type="curve" smooth="yes"/>
      <point x="137" y="848"/>
      <point x="202" y="921"/>
      <point x="291" y="967" type="curve"/>
      <point x="195" y="1021"/>
      <point x="147" y="1083"/>
      <point x="147" y="1191" type="curve" smooth="yes"/>
      <point x="147" y="1366.76"/>
      <point x="313.479" y="1444.03"/>
      <point x="496.857" y="1444.03" type="curve" smooth="yes"/>
      <point x="587.459" y="1444.03"/>
      <point x="682.187" y="1425.16"/>
      <point x="763" y="1390" type="curve"/>
      <point x="734" y="1313" type="line"/>
      <point x="669.382" y="1344.03"/>
      <point x="581.846" y="1362.57"/>
      <point x="498.749" y="1362.57" type="curve" smooth="yes"/>
      <point x="366.777" y="1362.57"/>
      <point x="246" y="1315.8"/>
      <point x="246" y="1198" type="curve" smooth="yes"/>
      <point x="246" y="1064"/>
      <point x="346.22" y="1035.56"/>
      <point x="521" y="966" type="curve" smooth="yes"/>
      <point x="717" y="888"/>
      <point x="800" y="845"/>
      <point x="800" y="697" type="curve" smooth="yes"/>
      <point x="800" y="589"/>
      <point x="761" y="518"/>
      <point x="656" y="474" type="curve"/>
      <point x="741" y="426"/>
      <point x="792" y="355"/>
    </contour>
    <contour>
      <point x="581" y="511" type="line"/>
      <point x="641" y="543"/>
      <point x="703" y="575"/>
      <point x="703" y="708" type="curve" smooth="yes"/>
      <point x="703" y="801.584"/>
      <point x="613.451" y="839.986"/>
      <point x="486" y="889.717" type="curve" smooth="yes"/>
      <point x="362" y="936.757" type="line"/>
      <point x="300.605" y="915.492"/>
      <point x="234" y="842.784"/>
      <point x="234" y="745" type="curve" smooth="yes"/>
      <point x="234" y="638"/>
      <point x="321.343" y="614.863"/>
      <point x="471" y="555" type="curve" smooth="yes"/>
    </contour>
  </outline>
</glyph>
<glyph name="dieresis" format="1">
  <advance width="704.899999559"/>
  <unicode hex="00A8"/>
  <outline>
    <contour>
      <point x="116.899999082" y="1144.19999957" type="line"/>
      <point x="245.800000191" y="1144.19999957" type="line"/>
      <point x="245.800000191" y="1329.0000006" type="line"/>
      <point x="116.899999082" y="1329.0000006" type="line"/>
    </contour>
    <contour>
      <point x="466.999999523" y="1144.19999957" type="line"/>
      <point x="596.300000608" y="1144.19999957" type="line"/>
      <point x="596.300000608" y="1329.0000006" type="line"/>
      <point x="466.999999523" y="1329.0000006" type="line"/>
    </contour>
  </outline>
</glyph>
<glyph name="copyright" format="1">
  <advance width="1703.0999971"/>
  <unicode hex="00A9"/>
  <outline>
    <contour>
      <point x="870.299998105" y="220.600000262" type="curve" smooth="yes"/>
      <point x="965.999998331" y="220.600000262"/>
      <point x="1058.89999837" y="246.900000274"/>
      <point x="1142.09999818" y="300.200000167" type="curve"/>
      <point x="1109.1999979" y="381.900000632" type="line"/>
      <point x="1027.29999822" y="332.000000834"/>
      <point x="949.299998105" y="314.100000799"/>
      <point x="873.499998271" y="314.100000799" type="curve" smooth="yes"/>
      <point x="679.799998641" y="314.100000799"/>
      <point x="528.099999368" y="461.100000441"/>
      <point x="528.099999368" y="702.799999595" type="curve" smooth="yes"/>
      <point x="528.099999368" y="924.399999142"/>
      <point x="679.499998629" y="1079.99999869"/>
      <point x="866.299998343" y="1079.99999869" type="curve" smooth="yes"/>
      <point x="935.799998283" y="1079.99999869"/>
      <point x="1027.59999812" y="1056.79999876"/>
      <point x="1097.89999801" y="1003.39999902" type="curve"/>
      <point x="1138.99999821" y="1088.29999942" type="line"/>
      <point x="1053.7999984" y="1147.39999926"/>
      <point x="959.399998426" y="1174.49999923"/>
      <point x="862.299998224" y="1174.49999923" type="curve" smooth="yes"/>
      <point x="614.599998236" y="1174.49999923"/>
      <point x="410.599998832" y="970.299999297"/>
      <point x="410.599998832" y="697.899999678" type="curve" smooth="yes"/>
      <point x="410.599998832" y="419.200000048"/>
      <point x="621.19999826" y="220.600000262"/>
    </contour>
    <contour>
      <point x="851.499998629" y="56.2000008821" type="curve" smooth="yes"/>
      <point x="529.99999845" y="56.2000008821"/>
      <point x="222.299999535" y="280.900001466"/>
      <point x="222.299999535" y="701.299999774" type="curve" smooth="yes"/>
      <point x="222.299999535" y="1121.09999806"/>
      <point x="529.99999845" y="1346.39999866"/>
      <point x="851.199998617" y="1346.39999866" type="curve" smooth="yes"/>
      <point x="1173.89999884" y="1346.39999866"/>
      <point x="1484.39999771" y="1120.39999807"/>
      <point x="1484.39999771" y="700.999999762" type="curve" smooth="yes"/>
      <point x="1484.39999771" y="281.600001454"/>
      <point x="1174.19999886" y="56.2000008821"/>
    </contour>
    <contour>
      <point x="851.499998629" y="-25.8999995589" type="curve" smooth="yes"/>
      <point x="1217.89999884" y="-25.8999995589"/>
      <point x="1585.39999807" y="223.400001049"/>
      <point x="1585.39999807" y="701.299999774" type="curve" smooth="yes"/>
      <point x="1585.39999807" y="1178.89999849"/>
      <point x="1217.29999882" y="1429.49999911"/>
      <point x="851.199998617" y="1429.49999911" type="curve" smooth="yes"/>
      <point x="485.99999845" y="1429.49999911"/>
      <point x="120.999999166" y="1179.1999985"/>
      <point x="120.999999166" y="701.299999774" type="curve" smooth="yes"/>
      <point x="120.999999166" y="223.400001049"/>
      <point x="486.299998462" y="-25.8999995589"/>
    </contour>
  </outline>
</glyph>
<glyph name="ordfeminine" format="1">
  <advance width="771.099998176"/>
  <unicode hex="00AA"/>
  <outline>
    <contour>
      <point x="341.099998772" y="762.299998701" type="curve" smooth="yes"/>
      <point x="224.199998856" y="762.299998701"/>
      <point x="141.199998617" y="843.599998474"/>
      <point x="141.199998617" y="967.599998593" type="curve" smooth="yes"/>
      <point x="141.199998617" y="1139.19999897"/>
      <point x="288.399999857" y="1168.79999876"/>
      <point x="516.499998748" y="1182.59999883" type="curve"/>
      <point x="516.499998748" y="1197.69999892" type="line"/>
      <point x="513.399998784" y="1306.69999856"/>
      <point x="487.899998724" y="1354.29999822"/>
      <point x="394.799999118" y="1354.29999822" type="curve" smooth="yes"/>
      <point x="326.599999309" y="1354.29999822"/>
      <point x="264.799999118" y="1350.79999804"/>
      <point x="203.399998665" y="1269.99999881" type="curve"/>
      <point x="146.199998856" y="1333.89999968" type="line"/>
      <point x="210.599999189" y="1429.6999988"/>
      <point x="294.799999475" y="1456.79999876"/>
      <point x="397.199999332" y="1456.79999876" type="curve" smooth="yes"/>
      <point x="511.19999969" y="1456.79999876"/>
      <point x="610.399999976" y="1388.69999892"/>
      <point x="610.399999976" y="1218.99999893" type="curve" smooth="yes"/>
      <point x="607.600000024" y="906.799998403" type="line" smooth="yes"/>
      <point x="607.600000024" y="893.299998581"/>
      <point x="607.50000006" y="879.299996912"/>
      <point x="613.799999952" y="782.699998558" type="curve"/>
      <point x="513.999999285" y="782.699998558" type="line"/>
      <point x="512.899999082" y="855.799998403" type="line"/>
      <point x="478.599998951" y="799.599998593"/>
      <point x="423.799998522" y="762.299998701"/>
    </contour>
    <contour>
      <point x="139.499999225" y="593.099998176" type="line"/>
      <point x="139.499999225" y="683.79999876" type="line"/>
      <point x="630.499999702" y="683.79999876" type="line"/>
      <point x="630.499999702" y="593.099998176" type="line"/>
    </contour>
    <contour>
      <point x="358.099998772" y="859.199999213" type="curve" smooth="yes"/>
      <point x="478.199997663" y="859.199999213"/>
      <point x="520.799997926" y="969.89999789"/>
      <point x="516.499998748" y="1087.49999696" type="curve"/>
      <point x="516.499998748" y="1101.6999982" type="line"/>
      <point x="409.799998164" y="1091.09999806"/>
      <point x="237.19999969" y="1099.39999759"/>
      <point x="237.19999969" y="965.599998593" type="curve" smooth="yes"/>
      <point x="237.19999969" y="888.59999907"/>
      <point x="285.799999356" y="859.199999213"/>
    </contour>
  </outline>
</glyph>
<glyph name="guillemotleft" format="1">
  <advance width="939.600000143"/>
  <unicode hex="00AB"/>
  <outline>
    <contour>
      <point x="366.399999619" y="138.899999678" type="line"/>
      <point x="477.500001132" y="167.400000095" type="line"/>
      <point x="233.900001109" y="509.900000155" type="line"/>
      <point x="483.300001085" y="848.500000298" type="line"/>
      <point x="369.399999619" y="877.400000691" type="line"/>
      <point x="104.299999416" y="511.300000608" type="line"/>
      <point x="128.999998808" y="468.300000608" type="line"/>
    </contour>
    <contour>
      <point x="707.300000131" y="138.899999678" type="line"/>
      <point x="803.400001884" y="167.400000095" type="line"/>
      <point x="574.500001609" y="509.900000155" type="line"/>
      <point x="806.000001907" y="848.500000298" type="line"/>
      <point x="709.300000131" y="877.400000691" type="line"/>
      <point x="436.599999785" y="516.0" type="line"/>
    </contour>
  </outline>
</glyph>
<glyph name="logicalnot" format="1">
  <advance width="1127.60000002"/>
  <unicode hex="00AC"/>
  <outline>
    <contour>
      <point x="894.899999082" y="238.099999845" type="line"/>
      <point x="1003.00000048" y="238.099999845" type="line"/>
      <point x="1003.00000048" y="747.900000393" type="line"/>
      <point x="104.300000131" y="747.900000393" type="line"/>
      <point x="104.300000131" y="626.199999213" type="line"/>
      <point x="894.899999082" y="626.199999213" type="line"/>
    </contour>
  </outline>
</glyph>
<glyph name="uni00AD" format="1">
  <advance width="907.499995649"/>
  <unicode hex="00AD"/>
  <outline>
    <contour>
      <point x="106.499999225" y="193.600002646" type="line"/>
      <point x="803.299996674" y="193.600002646" type="line"/>
      <point x="803.299996674" y="318.600003958" type="line"/>
      <point x="106.499999225" y="318.600003958" type="line"/>
    </contour>
  </outline>
</glyph>
<glyph name="registered" format="1">
  <advance width="1700.99999702"/>
  <unicode hex="00AE"/>
  <outline>
    <contour>
      <point x="566.099998653" y="277.599999547" type="line"/>
      <point x="674.799999356" y="277.599999547" type="line"/>
      <point x="674.799999356" y="693.499998748" type="line"/>
      <point x="883.299997866" y="693.499998748" type="line"/>
      <point x="892.299998224" y="684.499998391"/>
      <point x="1089.89999777" y="277.599999547"/>
      <point x="1089.89999777" y="277.599999547" type="curve"/>
      <point x="1209.89999861" y="277.599999547" type="line"/>
      <point x="1209.89999861" y="277.599999547"/>
      <point x="1007.69999915" y="686.599997997"/>
      <point x="991.49999851" y="708.199998856" type="curve"/>
      <point x="1117.79999864" y="721.899999201"/>
      <point x="1177.69999844" y="807.399999022"/>
      <point x="1177.69999844" y="937.899998963" type="curve" smooth="yes"/>
      <point x="1177.69999844" y="1096.09999925"/>
      <point x="1098.6999976" y="1168.69999915"/>
      <point x="873.399998307" y="1168.69999915" type="curve" smooth="yes"/>
      <point x="566.099998653" y="1168.69999915" type="line"/>
    </contour>
    <contour>
      <point x="675.199999332" y="788.39999938" type="line"/>
      <point x="675.199999332" y="1074.09999853" type="line"/>
      <point x="857.099997938" y="1074.09999853" type="line" smooth="yes"/>
      <point x="1013.6999976" y="1074.09999853"/>
      <point x="1072.89999765" y="1056.09999877"/>
      <point x="1072.89999765" y="933.799998999" type="curve" smooth="yes"/>
      <point x="1072.89999765" y="830.299998939"/>
      <point x="1030.39999723" y="788.39999938"/>
      <point x="893.099997461" y="788.39999938" type="curve" smooth="yes"/>
    </contour>
    <contour>
      <point x="851.199998617" y="56.2000008821" type="curve" smooth="yes"/>
      <point x="529.99999845" y="56.2000008821"/>
      <point x="222.299999535" y="280.900001466"/>
      <point x="222.299999535" y="701.299999774" type="curve" smooth="yes"/>
      <point x="222.299999535" y="1121.09999806"/>
      <point x="529.699998438" y="1346.39999866"/>
      <point x="850.899998605" y="1346.39999866" type="curve" smooth="yes"/>
      <point x="1173.29999882" y="1346.39999866"/>
      <point x="1483.19999766" y="1120.39999807"/>
      <point x="1483.19999766" y="700.999999762" type="curve" smooth="yes"/>
      <point x="1483.19999766" y="281.600001454"/>
      <point x="1173.29999882" y="56.2000008821"/>
    </contour>
    <contour>
      <point x="851.199998617" y="-25.8999995589" type="curve" smooth="yes"/>
      <point x="1216.99999881" y="-25.8999995589"/>
      <point x="1584.49999803" y="223.400001049"/>
      <point x="1584.49999803" y="701.299999774" type="curve" smooth="yes"/>
      <point x="1584.49999803" y="1178.89999849"/>
      <point x="1216.6999988" y="1429.49999911"/>
      <point x="850.899998605" y="1429.49999911" type="curve" smooth="yes"/>
      <point x="485.699998438" y="1429.49999911"/>
      <point x="120.999999166" y="1179.1999985"/>
      <point x="120.999999166" y="701.299999774" type="curve" smooth="yes"/>
      <point x="120.999999166" y="223.400001049"/>
      <point x="485.99999845" y="-25.8999995589"/>
    </contour>
  </outline>
</glyph>
<glyph name="macron" format="1">
  <advance width="1003.29999655"/>
  <unicode hex="00AF"/>
  <outline>
    <contour>
      <point x="219.199997783" y="1208.90000051" type="line"/>
      <point x="769.499999464" y="1208.90000051" type="line"/>
      <point x="769.499999464" y="1321.7000013" type="line"/>
      <point x="219.199997783" y="1321.7000013" type="line"/>
    </contour>
  </outline>
</glyph>
<glyph name="degree" format="1">
  <advance width="770.399999619"/>
  <unicode hex="00B0"/>
  <outline>
    <contour>
      <point x="381.200000048" y="920.599999785" type="curve" smooth="yes"/>
      <point x="281.800000548" y="920.599999785"/>
      <point x="201.500000775" y="1003.69999927"/>
      <point x="201.500000775" y="1104.49999911" type="curve" smooth="yes"/>
      <point x="201.500000775" y="1204.69999892"/>
      <point x="283.200000525" y="1286.19999838"/>
      <point x="381.50000006" y="1286.19999838" type="curve" smooth="yes"/>
      <point x="481.299999535" y="1286.19999838"/>
      <point x="561.699999273" y="1204.69999892"/>
      <point x="561.699999273" y="1104.49999911" type="curve" smooth="yes"/>
      <point x="561.699999273" y="1005.09999925"/>
      <point x="481.299999535" y="920.599999785"/>
    </contour>
    <contour>
      <point x="380.50000006" y="814.599999309" type="curve" smooth="yes"/>
      <point x="534.300000608" y="814.599999309"/>
      <point x="663.200000167" y="948.999999404"/>
      <point x="663.200000167" y="1103.19999921" type="curve" smooth="yes"/>
      <point x="663.200000167" y="1262.09999901"/>
      <point x="530.700000584" y="1390.09999901"/>
      <point x="380.50000006" y="1390.09999901" type="curve" smooth="yes"/>
      <point x="232.199999452" y="1390.09999901"/>
      <point x="99.2999998927" y="1262.09999901"/>
      <point x="99.2999998927" y="1103.19999921" type="curve" smooth="yes"/>
      <point x="99.2999998927" y="943.099999487"/>
      <point x="232.699999392" y="814.599999309"/>
    </contour>
  </outline>
</glyph>
<glyph name="plusminus" format="1">
  <advance width="1101.6000005"/>
  <unicode hex="00B1"/>
  <outline>
    <contour>
      <point x="116.800000429" y="0.0" type="line"/>
      <point x="116.800000429" y="108.400001168" type="line"/>
      <point x="989.900000274" y="108.400001168" type="line"/>
      <point x="989.900000274" y="0.0" type="line"/>
    </contour>
    <contour>
      <point x="486.099999845" y="194.800000787" type="line"/>
      <point x="604.500001132" y="194.800000787" type="line"/>
      <point x="604.500001132" y="558.900000274" type="line"/>
      <point x="947.200001001" y="558.900000274" type="line"/>
      <point x="947.200001001" y="668.600001812" type="line"/>
      <point x="604.200001121" y="668.600001812" type="line"/>
      <point x="604.200001121" y="1024.7000013" type="line"/>
      <point x="486.099999845" y="1024.7000013" type="line"/>
      <point x="486.099999845" y="668.600001812" type="line"/>
      <point x="137.100000083" y="668.600001812" type="line"/>
      <point x="137.100000083" y="558.900000274" type="line"/>
      <point x="486.099999845" y="558.900000274" type="line"/>
    </contour>
  </outline>
</glyph>
<glyph name="acute" format="1">
  <advance width="589.999999166"/>
  <unicode hex="00B4"/>
  <outline>
    <contour>
      <point x="105.600000978" y="1147.49999887" type="line"/>
      <point x="197.500002086" y="1147.49999887" type="line"/>
      <point x="479.200002313" y="1498.69999903" type="line"/>
      <point x="277.500000775" y="1498.69999903" type="line"/>
    </contour>
  </outline>
</glyph>
<glyph name="paragraph" format="1">
  <advance width="1040.70000023"/>
  <unicode hex="00B6"/>
  <outline>
    <contour>
      <point x="460.099998415" y="-145.899999797" type="line"/>
      <point x="557.799999952" y="-145.899999797" type="line"/>
      <point x="557.799999952" y="1318.89999777" type="line"/>
      <point x="773.499998391" y="1318.89999777" type="line"/>
      <point x="773.499998391" y="-145.899999797" type="line"/>
      <point x="864.499999702" y="-145.899999797" type="line"/>
      <point x="864.499999702" y="1318.89999777" type="line"/>
      <point x="931.199999809" y="1318.89999777" type="line"/>
      <point x="931.199999809" y="1430.6999988" type="line"/>
      <point x="496.900000751" y="1430.6999988" type="line" smooth="yes"/>
      <point x="196.100001395" y="1430.6999988"/>
      <point x="104.599999309" y="1260.60000026"/>
      <point x="104.599999309" y="1113.69999868" type="curve" smooth="yes"/>
      <point x="104.599999309" y="952.699998438"/>
      <point x="253.199998856" y="783.499998987"/>
      <point x="460.099998415" y="781.299998701" type="curve"/>
    </contour>
  </outline>
</glyph>
<glyph name="cedilla" format="1">
  <advance width="548.299999416"/>
  <unicode hex="00B8"/>
  <outline>
    <contour>
      <point x="117.399998784" y="-385.199998498" type="line"/>
      <point x="241.700000226" y="-385.199998498" type="line"/>
      <point x="278.200000525" y="7.50000089407" type="line"/>
      <point x="215.899999082" y="7.50000089407" type="line"/>
    </contour>
  </outline>
</glyph>
<glyph name="guillemotright" format="1">
  <advance width="945.200001359"/>
  <unicode hex="00BB"/>
  <outline>
    <contour>
      <point x="218.900001228" y="138.899999678" type="line"/>
      <point x="492.300001562" y="501.000000358" type="line"/>
      <point x="219.900001228" y="877.400000691" type="line"/>
      <point x="122.399999499" y="848.500000298" type="line"/>
      <point x="353.299999774" y="509.900000155" type="line"/>
      <point x="121.799999475" y="167.400000095" type="line"/>
    </contour>
    <contour>
      <point x="570.200001717" y="138.899999678" type="line"/>
      <point x="829.500002325" y="501.000000358" type="line"/>
      <point x="573.200001717" y="877.400000691" type="line"/>
      <point x="464.400000215" y="848.500000298" type="line"/>
      <point x="705.700000226" y="509.900000155" type="line"/>
      <point x="459.700000226" y="167.400000095" type="line"/>
    </contour>
  </outline>
</glyph>
<glyph name="threequarters" format="1">
  <advance width="1539.39999902"/>
  <unicode hex="00BE"/>
  <outline>
    <contour>
      <point x="335.899999559" y="578.099999726" type="curve" smooth="yes"/>
      <point x="472.099999726" y="578.099999726"/>
      <point x="582.100000203" y="667.099999607"/>
      <point x="582.100000203" y="814.999999881" type="curve" smooth="yes"/>
      <point x="582.100000203" y="905.799999714"/>
      <point x="528.000000238" y="979.199999571"/>
      <point x="429.100000918" y="1008.39999962" type="curve"/>
      <point x="529.200000644" y="1032.5999999"/>
      <point x="564.100000203" y="1112.60000002"/>
      <point x="564.100000203" y="1171.19999933" type="curve" smooth="yes"/>
      <point x="564.100000203" y="1314.9999994"/>
      <point x="448.699999988" y="1385.89999932"/>
      <point x="331.499999821" y="1385.89999932" type="curve" smooth="yes"/>
      <point x="249.69999963" y="1385.89999932"/>
      <point x="141.799999833" y="1353.19999933"/>
      <point x="88.5999996662" y="1296.69999939" type="curve"/>
      <point x="139.49999994" y="1214.69999892" type="line"/>
      <point x="176.867799917" y="1251.80199873"/>
      <point x="263.371499687" y="1280.22599865"/>
      <point x="326.365199687" y="1280.22599865" type="curve" smooth="yes"/>
      <point x="392.315499688" y="1280.22599865"/>
      <point x="440.499999344" y="1244.17899874"/>
      <point x="440.499999344" y="1169.39999926" type="curve" smooth="yes"/>
      <point x="440.499999344" y="1093.09999973"/>
      <point x="368.200000048" y="1054.8999998"/>
      <point x="274.399999976" y="1054.8999998" type="curve" smooth="yes"/>
      <point x="207.69999975" y="1054.8999998" type="line"/>
      <point x="207.69999975" y="947.499999225" type="line"/>
      <point x="276.899999917" y="947.799999237" type="line"/>
      <point x="380.799999833" y="947.799999237"/>
      <point x="457.999999404" y="904.799999475"/>
      <point x="457.999999404" y="818.399999857" type="curve" smooth="yes"/>
      <point x="457.999999404" y="727.448600197"/>
      <point x="399.085699624" y="685.112000356"/>
      <point x="325.215199622" y="685.112000356" type="curve" smooth="yes"/>
      <point x="267.364399653" y="685.112000356"/>
      <point x="183.34939979" y="709.077100271"/>
      <point x="137.199999928" y="749.900000155" type="curve"/>
      <point x="90.9999997616" y="659.099999607" type="line"/>
      <point x="147.49999994" y="600.999999762"/>
      <point x="258.399999499" y="578.099999726"/>
    </contour>
    <contour>
      <point x="1231.49999911" y="6.40000021458" type="line"/>
      <point x="1347.79999983" y="6.40000021458" type="line"/>
      <point x="1348.09999985" y="181.799999952" type="line"/>
      <point x="1463.59999967" y="181.799999952" type="line"/>
      <point x="1456.69999975" y="279.500000656" type="line"/>
      <point x="1349.79999983" y="279.500000656" type="line"/>
      <point x="1349.79999983" y="794.100000441" type="line"/>
      <point x="1222.19999909" y="794.100000441" type="line"/>
      <point x="876.899999082" y="266.600000858" type="line"/>
      <point x="876.899999082" y="181.799999952" type="line"/>
      <point x="1231.49999911" y="181.799999952" type="line"/>
    </contour>
    <contour>
      <point x="323.899998486" y="5.7000002265" type="line"/>
      <point x="464.199999571" y="5.7000002265" type="line"/>
      <point x="1315.50000054" y="1389.69999927" type="line"/>
      <point x="1177.69999951" y="1389.69999927" type="line"/>
    </contour>
    <contour>
      <point x="1016.90000004" y="279.500000656" type="line"/>
      <point x="1230.89999908" y="617.699999273" type="line"/>
      <point x="1230.89999908" y="279.500000656" type="line"/>
    </contour>
  </outline>
</glyph>
<glyph name="Eth" format="1">
  <advance width="1524.09999686"/>
  <unicode hex="00D0"/>
  <outline>
    <contour>
      <point x="387.999999642" y="129.800001383" type="line"/>
      <point x="635.799995422" y="243.500005901" type="line"/>
      <point x="887.799991131" y="243.500005901"/>
      <point x="1096.39999056" y="372.300003707"/>
      <point x="1096.39999056" y="643.899999082" type="curve"/>
      <point x="1096.39999056" y="977.799993396"/>
      <point x="888.499994099" y="1124.79999399"/>
      <point x="620.399998665" y="1124.79999399" type="curve"/>
      <point x="387.999999642" y="1124.79999399" type="line"/>
      <point x="387.999999642" y="863.400004625" type="line"/>
      <point x="600.899998009" y="863.400004625" type="line" smooth="yes"/>
      <point x="708.300002277" y="863.400004625"/>
      <point x="763.800004482" y="771.600004315"/>
      <point x="763.800004482" y="664.800000072" type="curve" smooth="yes"/>
      <point x="763.800004482" y="575.699996531"/>
      <point x="536.500005543" y="527.399994612"/>
      <point x="447.400002003" y="527.399994612" type="curve" smooth="yes"/>
    </contour>
    <contour>
      <point x="248.59999764" y="-0.399999976158" type="line"/>
      <point x="380.300002873" y="466.499992073" type="line" smooth="yes"/>
      <point x="510.800008059" y="466.499992073"/>
      <point x="529.200012922" y="535.199994802"/>
      <point x="529.200012922" y="666.600000024" type="curve" smooth="yes"/>
      <point x="529.200012922" y="815.100005925"/>
      <point x="427.200008869" y="927.000007033"/>
      <point x="282.900003135" y="927.000007033" type="curve" smooth="yes"/>
      <point x="248.59999764" y="927.000007033" type="line"/>
      <point x="248.59999764" y="1192.89999276" type="line"/>
      <point x="442.099992454" y="1192.89999276" type="line"/>
      <point x="765.499986947" y="1192.89999276"/>
      <point x="1006.99998283" y="1029.09999245"/>
      <point x="1006.99998283" y="648.299998939" type="curve"/>
      <point x="1006.99998283" y="324.200004458"/>
      <point x="844.299987495" y="175.100006998"/>
      <point x="546.099992573" y="175.100006998" type="curve"/>
    </contour>
  </outline>
</glyph>
<glyph name="multiply" format="1">
  <advance width="849.900006473"/>
  <unicode hex="00D7"/>
  <outline>
    <contour>
      <point x="175.600003362" y="170.599999309" type="line"/>
      <point x="419.200003743" y="458.599998951" type="line"/>
      <point x="662.200004101" y="170.599999309" type="line"/>
      <point x="752.400004864" y="249.600000381" type="line"/>
      <point x="752.400004864" y="249.600000381"/>
      <point x="478.700006187" y="562.599998474"/>
      <point x="493.500004828" y="551.999999762" type="curve"/>
      <point x="752.400004864" y="854.499999225" type="line"/>
      <point x="665.400004029" y="933.000000238" type="line"/>
      <point x="419.200003743" y="644.400000572" type="line"/>
      <point x="172.800003409" y="933.000000238" type="line"/>
      <point x="84.9000026584" y="854.099999249" type="line"/>
      <point x="344.300002635" y="551.999999762" type="line"/>
      <point x="84.9000026584" y="250.000000358" type="line"/>
    </contour>
  </outline>
</glyph>
<glyph name="germandbls" format="1">
  <advance width="1120.7000007"/>
  <unicode hex="00DF"/>
  <outline>
    <contour>
      <point x="319.800001025" y="0.0" type="line"/>
      <point x="165.299999416" y="0.0" type="line"/>
      <point x="165.299999416" y="946.599999785" type="line" smooth="yes"/>
      <point x="165.299999416" y="1215.99999976"/>
      <point x="280.50000006" y="1380.4999997"/>
      <point x="559.600000024" y="1380.4999997" type="curve" smooth="yes"/>
      <point x="769.700000107" y="1380.4999997"/>
      <point x="905.300001085" y="1264.80000007"/>
      <point x="905.300001085" y="1090.39999938" type="curve" smooth="yes"/>
      <point x="905.300001085" y="893.29999882"/>
      <point x="708.400001645" y="790.199999928"/>
      <point x="708.400001645" y="705.000000238" type="curve" smooth="yes"/>
      <point x="708.400001645" y="596.780700532"/>
      <point x="1063.3000012" y="542.56430062"/>
      <point x="1063.3000012" y="269.30000037" type="curve" smooth="yes"/>
      <point x="1063.3000012" y="94.0999999642"/>
      <point x="949.300000846" y="-18.9000000358"/>
      <point x="760.900000513" y="-18.9000000358" type="curve" smooth="yes"/>
      <point x="642.200001001" y="-18.9000000358"/>
      <point x="524.500001252" y="15.6999997497"/>
      <point x="451.000000596" y="52.6999998689" type="curve"/>
      <point x="492.90000087" y="168.200000882" type="line"/>
      <point x="545.200000644" y="140.500001013"/>
      <point x="638.700000465" y="104.800001144"/>
      <point x="742.799999952" y="104.800001144" type="curve" smooth="yes"/>
      <point x="862.199999213" y="104.800001144"/>
      <point x="912.099999487" y="181.700000346"/>
      <point x="912.099999487" y="265.700000584" type="curve" smooth="yes"/>
      <point x="912.099999487" y="463.082200101"/>
      <point x="564.899999917" y="510.503700128"/>
      <point x="564.899999917" y="691.300000012" type="curve" smooth="yes"/>
      <point x="564.899999917" y="844.50000006"/>
      <point x="756.299999774" y="899.699999869"/>
      <point x="756.999999762" y="1088.69999927" type="curve" smooth="yes"/>
      <point x="757.377299755" y="1189.3999989"/>
      <point x="693.19999969" y="1263.1999985"/>
      <point x="563.800000191" y="1263.1999985" type="curve" smooth="yes"/>
      <point x="388.60000062" y="1263.1999985"/>
      <point x="319.800001025" y="1174.69999844"/>
      <point x="319.800001025" y="951.399999619" type="curve" smooth="yes"/>
    </contour>
  </outline>
</glyph>
<glyph name="ae" format="1">
  <advance width="1649.69999927"/>
  <unicode hex="00E6"/>
  <outline>
    <contour>
      <point x="414.799999833" y="-14.8000000715" type="curve" smooth="yes"/>
      <point x="577.199999928" y="-14.8000000715"/>
      <point x="757.999999523" y="58.9999997616"/>
      <point x="839.599999547" y="151.89999944" type="curve"/>
      <point x="912.299999535" y="43.1999998093"/>
      <point x="1025.29999918" y="-18.0"/>
      <point x="1184.8999992" y="-18.0" type="curve" smooth="yes"/>
      <point x="1334.59999943" y="-18.0"/>
      <point x="1431.3999995" y="17.0"/>
      <point x="1521.49999934" y="73.5000001788" type="curve"/>
      <point x="1476.09999889" y="174.20000124" type="line"/>
      <point x="1378.39999962" y="122.900001466"/>
      <point x="1301.69999939" y="99.4000011683"/>
      <point x="1200.19999921" y="99.4000011683" type="curve"/>
      <point x="1015.4999997" y="100.000001192"/>
      <point x="892.700000584" y="203.000000715"/>
      <point x="883.400000572" y="464.499999344" type="curve"/>
      <point x="1398.4000001" y="464.499999344"/>
      <point x="1537.29999965" y="544.800000668"/>
      <point x="1537.29999965" y="734.199999809" type="curve" smooth="yes"/>
      <point x="1537.29999965" y="875.476150522"/>
      <point x="1430.81852668" y="1017.50000054"/>
      <point x="1185.59999943" y="1017.50000054" type="curve" smooth="yes"/>
      <point x="1035.99999964" y="1017.50000054"/>
      <point x="879.400000215" y="934.700000823"/>
      <point x="836.499999821" y="789.700001895" type="curve"/>
      <point x="817.599999428" y="952.500000775"/>
      <point x="689.799999952" y="1018.20000052"/>
      <point x="520.100000441" y="1018.20000052" type="curve" smooth="yes"/>
      <point x="394.18461784" y="1018.20000052"/>
      <point x="242.629234034" y="978.799899926"/>
      <point x="159.099999487" y="931.700000346" type="curve"/>
      <point x="205.399999857" y="825.799999356" type="line"/>
      <point x="285.999999523" y="867.299999058"/>
      <point x="419.899999678" y="901.599999309"/>
      <point x="523.899999797" y="901.599999309" type="curve"/>
      <point x="681.099999249" y="899.799999237"/>
      <point x="737.899998963" y="820.19999969"/>
      <point x="737.899998963" y="679.300000131" type="curve" smooth="yes"/>
      <point x="737.899998963" y="570.30000037" type="line"/>
      <point x="584.49999994" y="570.30000037" type="line" smooth="yes"/>
      <point x="267.500000417" y="570.30000037"/>
      <point x="111.399999738" y="488.900000632"/>
      <point x="111.399999738" y="283.000000238" type="curve" smooth="yes"/>
      <point x="111.399999738" y="82.6000006199"/>
      <point x="245.099999487" y="-14.8000000715"/>
    </contour>
    <contour>
      <point x="435.50000006" y="101.200000882" type="curve" smooth="yes"/>
      <point x="329.10000056" y="101.200000882"/>
      <point x="257.500001132" y="157.500000656"/>
      <point x="257.500001132" y="285.899999917" type="curve" smooth="yes"/>
      <point x="257.500001132" y="407.499999344"/>
      <point x="330.000000954" y="466.599999309"/>
      <point x="593.799999475" y="466.599999309" type="curve" smooth="yes"/>
      <point x="739.399999022" y="466.599999309" type="line"/>
      <point x="740.59999907" y="393.799999475"/>
      <point x="756.299999177" y="306.799999595"/>
      <point x="780.599998951" y="248.300000131" type="curve"/>
      <point x="698.699999034" y="163.400000572"/>
      <point x="549.799999595" y="101.200000882"/>
    </contour>
    <contour>
      <point x="886.500000536" y="566.800000429" type="curve"/>
      <point x="907.800000548" y="783.800000668"/>
      <point x="1027.30000073" y="906.899999559"/>
      <point x="1195.39999962" y="906.899999559" type="curve" smooth="yes"/>
      <point x="1340.49999875" y="906.899999559"/>
      <point x="1414.39999843" y="828.100000083"/>
      <point x="1414.39999843" y="732.700000107" type="curve" smooth="yes"/>
      <point x="1414.39999843" y="604.800000787"/>
      <point x="1262.3999995" y="566.800000429"/>
    </contour>
  </outline>
</glyph>
<glyph name="eth" format="1">
  <advance width="1184.19999814"/>
  <unicode hex="00F0"/>
  <outline>
    <contour>
      <point x="589.199999452" y="-23.9999998808" type="curve" smooth="yes"/>
      <point x="901.399999142" y="-23.9999998808"/>
      <point x="1053.59999979" y="186.599999309"/>
      <point x="1053.59999979" y="451.999999523" type="curve"/>
      <point x="1053.29999977" y="577.999999642"/>
      <point x="1025.39999962" y="687.599999785"/>
      <point x="960.299999774" y="809.199999332" type="curve"/>
      <point x="894.599999666" y="926.099999368"/>
      <point x="789.799999833" y="1054.09999901"/>
      <point x="638.000000715" y="1215.6999982" type="curve"/>
      <point x="867.299999893" y="1302.69999796" type="line"/>
      <point x="830.199999452" y="1411.09999901" type="line"/>
      <point x="561.49999994" y="1307.49999911" type="line"/>
      <point x="423.200000525" y="1456.09999865" type="line"/>
      <point x="239.899998724" y="1456.09999865" type="line"/>
      <point x="460.599998116" y="1252.29999858" type="line"/>
      <point x="250.799998999" y="1171.49999887" type="line"/>
      <point x="285.199999452" y="1059.1999979" type="line"/>
      <point x="538.299998939" y="1162.89999765" type="line"/>
      <point x="708.899996579" y="998.399999857"/>
      <point x="798.699996531" y="874.600000262"/>
      <point x="841.599996448" y="790.90000087" type="curve"/>
      <point x="785.199996829" y="833.100000322"/>
      <point x="698.299997509" y="888.599999547"/>
      <point x="560.499999225" y="888.599999547" type="curve" smooth="yes"/>
      <point x="297.399999142" y="888.599999547"/>
      <point x="124.299999058" y="709.899999678"/>
      <point x="124.299999058" y="443.499999821" type="curve" smooth="yes"/>
      <point x="124.299999058" y="197.099999487"/>
      <point x="284.499999702" y="-23.9999998808"/>
    </contour>
    <contour>
      <point x="594.799999475" y="92.2000014782" type="curve" smooth="yes"/>
      <point x="378.000000358" y="92.2000014782"/>
      <point x="274.000000477" y="264.000000358"/>
      <point x="274.000000477" y="442.399999857" type="curve" smooth="yes"/>
      <point x="274.000000477" y="617.699999511"/>
      <point x="389.50000006" y="769.199998617"/>
      <point x="588.799999475" y="769.199998617" type="curve" smooth="yes"/>
      <point x="799.299998701" y="769.199998617"/>
      <point x="912.499998391" y="597.399999738"/>
      <point x="912.499998391" y="430.0" type="curve" smooth="yes"/>
      <point x="912.499998391" y="242.300000608"/>
      <point x="799.499998748" y="92.2000014782"/>
    </contour>
  </outline>
</glyph>
<glyph name="divide" format="1">
  <advance width="1081.80000341"/>
  <unicode hex="00F7"/>
  <outline>
    <contour>
      <point x="446.900001228" y="20.0999999642" type="line"/>
      <point x="599.800003052" y="20.0999999642" type="line"/>
      <point x="599.800003052" y="218.800001025" type="line"/>
      <point x="446.900001228" y="218.800001025" type="line"/>
    </contour>
    <contour>
      <point x="88.9000011086" y="481.099999368" type="line"/>
      <point x="982.400002718" y="481.099999368" type="line"/>
      <point x="982.400002718" y="609.000000358" type="line"/>
      <point x="88.9000011086" y="609.000000358" type="line"/>
    </contour>
    <contour>
      <point x="446.900001228" y="863.499998868" type="line"/>
      <point x="635.800002575" y="863.499998868" type="line"/>
      <point x="635.800002575" y="1063.09999973" type="line"/>
      <point x="446.900001228" y="1063.09999973" type="line"/>
    </contour>
  </outline>
</glyph>
<glyph name="Dcroat" format="1">
  <advance width="1450.0"/>
  <unicode hex="0110"/>
  <outline>
    <contour>
      <point x="57.0" y="652.0" type="line"/>
      <point x="203.100005805" y="711.499998987" type="line"/>
      <point x="544.0" y="737.0" type="line"/>
      <point x="397.899994195" y="677.500001013" type="line"/>
    </contour>
    <component base="D"/>
  </outline>
</glyph>
<glyph name="Hbar" format="1">
  <advance width="1491.59999692"/>
  <unicode hex="0126"/>
  <outline>
    <contour>
      <point x="215.6999982" y="0.0" type="line"/>
      <point x="292.800001264" y="718.899987757" type="line"/>
      <point x="231.200002313" y="897.39999485" type="line"/>
      <point x="409.700009406" y="944.299994051" type="line"/>
      <point x="471.300008357" y="765.799986959" type="line"/>
      <point x="548.700011432" y="964.599983573" type="line"/>
      <point x="610.300010383" y="1284.9999963" type="line"/>
      <point x="632.800011277" y="1086.19999969" type="line"/>
      <point x="1231.30000108" y="1127.30000132" type="line"/>
      <point x="1208.80000019" y="1326.09999794" type="line"/>
      <point x="1270.39999914" y="1365.09999949" type="line"/>
      <point x="1192.99999607" y="1166.30000287" type="line"/>
      <point x="1253.89999503" y="1127.30000132" type="line"/>
      <point x="1075.39998794" y="1080.40000212" type="line"/>
      <point x="1014.49998897" y="1119.40000367" type="line"/>
      <point x="937.399985909" y="400.500015914" type="line"/>
      <point x="875.799986959" y="361.500014365" type="line"/>
      <point x="853.299986064" y="822.100006521" type="line"/>
      <point x="254.799996257" y="781.000004888" type="line"/>
      <point x="277.299997151" y="320.400012732" type="line"/>
    </contour>
    <contour>
      <point x="354.400000215" y="769.100000322" type="line"/>
      <point x="952.899990022" y="853.10000366" type="line"/>
      <point x="1131.39999712" y="1039.30000049" type="line"/>
      <point x="532.900007308" y="955.299997151" type="line"/>
    </contour>
  </outline>
</glyph>
<glyph name="hbar" format="1">
  <advance width="1149.79999816"/>
  <unicode hex="0127"/>
  <outline>
    <contour>
      <point x="219.199997783" y="0.0" type="line"/>
      <point x="351.099999726" y="0.0" type="line"/>
      <point x="351.099999726" y="680.400000095" type="line"/>
      <point x="372.100000083" y="776.599999905"/>
      <point x="503.799999475" y="899.999999046"/>
      <point x="669.299998581" y="899.999999046" type="curve" smooth="yes"/>
      <point x="850.499997556" y="899.999999046"/>
      <point x="880.999997497" y="789.499999702"/>
      <point x="880.999997497" y="553.90000087" type="curve" smooth="yes"/>
      <point x="880.999997497" y="0.0" type="line"/>
      <point x="1012.89999944" y="0.0" type="line"/>
      <point x="1012.89999944" y="602.400000215" type="line" smooth="yes"/>
      <point x="1012.89999944" y="856.900001109"/>
      <point x="929.999998331" y="1021.40000021"/>
      <point x="717.999998689" y="1021.40000021" type="curve" smooth="yes"/>
      <point x="559.699999273" y="1021.40000021"/>
      <point x="437.499999583" y="961.500000536"/>
      <point x="351.099999726" y="855.000001073" type="curve"/>
      <point x="351.099999726" y="1163.99999905" type="line"/>
      <point x="599.899999917" y="1163.99999905" type="line"/>
      <point x="599.899999917" y="1262.99999976" type="line"/>
      <point x="351.099999726" y="1262.99999976" type="line"/>
      <point x="351.099999726" y="1371.60000026" type="line"/>
      <point x="219.199997783" y="1353.60000026" type="line"/>
      <point x="219.199997783" y="1262.99999976" type="line"/>
      <point x="135.499997675" y="1262.99999976" type="line"/>
      <point x="135.499997675" y="1163.99999905" type="line"/>
      <point x="219.199997783" y="1163.99999905" type="line"/>
    </contour>
  </outline>
</glyph>
<glyph name="dotlessi" format="1">
  <advance width="410.400001884"/>
  <unicode hex="0131"/>
  <outline>
    <contour>
      <point x="143.299999893" y="0.0" type="line"/>
      <point x="278.900001943" y="0.0" type="line"/>
      <point x="278.900001943" y="996.400000334" type="line"/>
      <point x="143.299999893" y="996.400000334" type="line"/>
    </contour>
  </outline>
</glyph>
<glyph name="Eng" format="1">
  <advance width="1302.69999903"/>
  <unicode hex="014A"/>
  <outline>
    <contour>
      <point x="775.799999356" y="-296.600000143" type="curve" smooth="yes"/>
      <point x="851.700003922" y="-296.600000143"/>
      <point x="856.900006115" y="-248.799998283"/>
      <point x="738.60000813" y="-150.299995005" type="curve" smooth="yes"/>
      <point x="723.90000838" y="121.500012815" type="line" smooth="yes"/>
      <point x="854.800006151" y="205.400016546"/>
      <point x="802.900004566" y="260.500018775"/>
      <point x="736.500000775" y="260.500018775" type="curve" smooth="yes"/>
      <point x="919.299995244" y="260.500018775"/>
      <point x="879.299992979" y="294.600017071"/>
      <point x="851.39999187" y="475.400012255" type="curve"/>
      <point x="844.799991608" y="1064.10000473" type="line"/>
      <point x="844.799991608" y="1246.80000162"/>
      <point x="716.899989426" y="1304.90000063"/>
      <point x="552.399992228" y="1304.90000063" type="curve"/>
      <point x="365.49999541" y="1304.90000063"/>
      <point x="256.29999727" y="794.49998647"/>
      <point x="191.899998367" y="706.299987972" type="curve"/>
      <point x="278.3000018" y="0.0" type="line"/>
      <point x="234.200002551" y="288.90001148" type="line"/>
      <point x="257.900003493" y="329.700013101"/>
      <point x="301.000005364" y="1308.29999739"/>
      <point x="332.800006628" y="1308.29999739" type="curve" smooth="yes"/>
      <point x="376.90000838" y="1308.29999739"/>
      <point x="438.700008333" y="1284.89999646"/>
      <point x="438.700008333" y="1220.99999392" type="curve" smooth="yes"/>
      <point x="447.10000819" y="846.699987948" type="line" smooth="yes"/>
      <point x="600.400005579" y="956.499983251"/>
      <point x="702.200003386" y="953.499982417"/>
      <point x="773.499999464" y="953.499982417" type="curve" smooth="yes"/>
      <point x="923.199996829" y="953.499982417"/>
      <point x="985.699994743" y="850.199984193"/>
      <point x="973.699994266" y="640.399987817" type="curve"/>
      <point x="979.699994504" y="18.1999945641" type="line"/>
      <point x="990.199994922" y="-174.100002229"/>
      <point x="996.599995494" y="-296.600000143"/>
    </contour>
  </outline>
</glyph>
<glyph name="eng" format="1">
  <advance width="1108.19999886"/>
  <unicode hex="014B"/>
  <outline>
    <contour>
      <point x="590.699999869" y="-265.500001132" type="line"/>
      <point x="654.399999857" y="-265.500001132" type="line" smooth="yes"/>
      <point x="914.000000834" y="-265.500001132"/>
      <point x="951.600001216" y="-125.500001013"/>
      <point x="951.900001228" y="150.699999154" type="curve"/>
      <point x="951.900001228" y="607.800000548" type="line" smooth="yes"/>
      <point x="951.900001228" y="878.400000215"/>
      <point x="854.300000966" y="1015.80000043"/>
      <point x="625.600000858" y="1015.80000043" type="curve" smooth="yes"/>
      <point x="482.500000894" y="1015.80000043"/>
      <point x="378.300000966" y="960.100000322"/>
      <point x="308.100000799" y="847.40000093" type="curve"/>
      <point x="290.400000691" y="995.000000358" type="line"/>
      <point x="155.199999452" y="995.000000358" type="line"/>
      <point x="155.199999452" y="0.0" type="line"/>
      <point x="311.800001144" y="0.0" type="line"/>
      <point x="311.800001144" y="554.099999011" type="line" smooth="yes"/>
      <point x="311.800001144" y="599.499999702"/>
      <point x="314.800001144" y="640.600000262"/>
      <point x="318.700001299" y="681.500000536" type="curve"/>
      <point x="347.700001419" y="802.999999762"/>
      <point x="422.00000155" y="896.499999106"/>
      <point x="598.400000215" y="896.499999106" type="curve" smooth="yes"/>
      <point x="757.999999642" y="896.499999106"/>
      <point x="794.999999523" y="792.499999464"/>
      <point x="795.299999535" y="624.599999785" type="curve"/>
      <point x="795.299999535" y="101.599999189" type="line" smooth="yes"/>
      <point x="795.299999535" y="-98.5000001788"/>
      <point x="778.899999559" y="-125.600000262"/>
      <point x="617.0" y="-125.600000262" type="curve" smooth="yes"/>
      <point x="582.899999559" y="-125.600000262" type="line"/>
    </contour>
  </outline>
</glyph>
<glyph name="OE" format="1">
  <advance width="1853.40000117"/>
  <unicode hex="0152"/>
  <outline>
    <contour>
      <point x="779.499999106" y="-21.8999999166" type="curve" smooth="yes"/>
      <point x="489.200006008" y="-21.8999999166"/>
      <point x="390.500009596" y="195.399996996"/>
      <point x="413.300010502" y="523.399992228" type="curve"/>
      <point x="423.100010335" y="801.299987495"/>
      <point x="595.300007403" y="983.299983323"/>
      <point x="847.300003111" y="983.299983323" type="curve"/>
      <point x="948.800001383" y="983.299983323"/>
      <point x="1292.70001012" y="948.999983907"/>
      <point x="1331.20000947" y="904.899984658" type="curve"/>
      <point x="1336.60000968" y="1024.1999861" type="line"/>
      <point x="1510.79999602" y="1024.1999861" type="line"/>
      <point x="1501.69999617" y="1072.69999188" type="line"/>
      <point x="1382.8000077" y="1072.69999188" type="line"/>
      <point x="1382.8000077" y="764.400000572" type="line"/>
      <point x="1475.09999663" y="764.400000572" type="line"/>
      <point x="1475.09999663" y="796.300005734" type="line"/>
      <point x="1390.60000801" y="796.300005734" type="line"/>
      <point x="1396.00000823" y="470.70001477" type="line"/>
      <point x="1449.99999285" y="470.70001477" type="line"/>
      <point x="1442.29999298" y="381.300015271" type="line"/>
      <point x="1416.79999197" y="397.500015914"/>
      <point x="1018.29999703" y="406.800016284"/>
      <point x="981.699995577" y="406.800016284" type="curve" smooth="yes"/>
      <point x="869.799991131" y="406.800016284"/>
      <point x="785.499987781" y="377.900011837"/>
      <point x="784.599987745" y="258.800007105" type="curve"/>
      <point x="776.899987876" y="111.600002766"/>
      <point x="732.799993277" y="-21.8999999166"/>
    </contour>
    <contour>
      <point x="781.699999034" y="105.800001383" type="curve" smooth="yes"/>
      <point x="770.199994564" y="106.100001395"/>
      <point x="838.799991131" y="220.400003314"/>
      <point x="860.499990761" y="303.100006282" type="curve"/>
      <point x="861.099990785" y="379.900009334"/>
      <point x="903.399992466" y="1195.69999939"/>
      <point x="981.699995577" y="1195.69999939" type="curve" smooth="yes"/>
      <point x="972.19999814" y="1232.79999876"/>
      <point x="926.800000668" y="1248.89999765"/>
      <point x="864.800002813" y="1229.9999969" type="curve"/>
      <point x="640.10000664" y="1229.9999969"/>
      <point x="500.100009024" y="843.399990559"/>
      <point x="492.400009155" y="592.799994826" type="curve"/>
      <point x="474.100008428" y="320.399998546"/>
      <point x="530.500005662" y="110.000001311"/>
    </contour>
    <contour>
      <point x="926.700000584" y="944.299983919" type="move"/>
    </contour>
  </outline>
</glyph>
<glyph name="uni0237" format="1">
  <advance width="437.400002122"/>
  <unicode hex="0237"/>
  <outline>
    <contour>
      <point x="-45.9999992847" y="-427.299999177" type="line"/>
      <point x="7.70000082254" y="-427.299999177" type="line" smooth="yes"/>
      <point x="247.300002158" y="-427.299999177"/>
      <point x="296.700002372" y="-349.899998128"/>
      <point x="296.700002372" y="-112.599997401" type="curve" smooth="yes"/>
      <point x="296.700002372" y="1008.60000014" type="line"/>
      <point x="127.700000942" y="1008.60000014" type="line"/>
      <point x="127.700000942" y="-89.3999985456" type="line" smooth="yes"/>
      <point x="127.700000942" y="-242.799998403"/>
      <point x="150.400000334" y="-296.19999814"/>
      <point x="-20.6999991536" y="-296.19999814" type="curve" smooth="yes"/>
      <point x="-76.3999992609" y="-296.19999814" type="line"/>
    </contour>
  </outline>
</glyph>
<glyph name="uni02BC" format="1">
  <advance width="485.899997413"/>
  <unicode hex="02BC"/>
  <outline>
    <contour>
      <point x="128.099999368" y="1023.29999751" type="line"/>
      <point x="224.800000191" y="1023.29999751" type="line"/>
      <point x="363.299998701" y="1443.79999852" type="line"/>
      <point x="233.399997473" y="1443.79999852" type="line"/>
    </contour>
  </outline>
</glyph>
<glyph name="circumflex" format="1">
  <advance width="738.799998999"/>
  <unicode hex="02C6"/>
  <outline>
    <contour>
      <point x="112.899998605" y="1152.79999816" type="line"/>
      <point x="218.299999893" y="1152.79999816" type="line"/>
      <point x="366.599999785" y="1409.79999709" type="line"/>
      <point x="510.600000024" y="1152.79999816" type="line"/>
      <point x="616.800001383" y="1152.79999816" type="line"/>
      <point x="458.50000006" y="1503.29999846" type="line"/>
      <point x="282.799999714" y="1503.29999846" type="line"/>
    </contour>
  </outline>
</glyph>
<glyph name="caron" format="1">
  <advance width="738.499998987"/>
  <unicode hex="02C7"/>
  <outline>
    <contour>
      <point x="272.399999976" y="1162.09999853" type="line"/>
      <point x="446.30000025" y="1162.09999853" type="line"/>
      <point x="620.100001514" y="1503.29999846" type="line"/>
      <point x="507.49999994" y="1503.29999846" type="line"/>
      <point x="356.799999952" y="1253.19999981" type="line"/>
      <point x="221.200000048" y="1503.29999846" type="line"/>
      <point x="110.49999851" y="1503.29999846" type="line"/>
    </contour>
  </outline>
</glyph>
<glyph name="breve" format="1">
  <advance width="700.399998665"/>
  <unicode hex="02D8"/>
  <outline>
    <contour>
      <point x="348.89999944" y="1195.09999841" type="curve" smooth="yes"/>
      <point x="452.900000274" y="1195.09999841"/>
      <point x="569.900000274" y="1258.09999865"/>
      <point x="569.900000274" y="1413.59999883" type="curve"/>
      <point x="478.599998951" y="1413.59999883" type="line"/>
      <point x="478.599998951" y="1322.49999934"/>
      <point x="413.099999607" y="1278.89999968"/>
      <point x="348.89999944" y="1278.89999968" type="curve" smooth="yes"/>
      <point x="284.699999273" y="1278.89999968"/>
      <point x="223.699999869" y="1322.49999934"/>
      <point x="223.699999869" y="1413.59999883" type="curve"/>
      <point x="131.299998581" y="1413.59999883" type="line"/>
      <point x="131.299998581" y="1257.69999868"/>
      <point x="245.899998605" y="1195.09999841"/>
    </contour>
  </outline>
</glyph>
<glyph name="dotaccent" format="1">
  <advance width="351.200002074"/>
  <unicode hex="02D9"/>
  <outline>
    <contour>
      <point x="105.600000501" y="1189.19999897" type="line"/>
      <point x="248.300001442" y="1189.19999897" type="line"/>
      <point x="248.300001442" y="1364.39999962" type="line"/>
      <point x="105.600000501" y="1364.39999962" type="line"/>
    </contour>
  </outline>
</glyph>
<glyph name="ring" format="1">
  <advance width="574.700000107"/>
  <unicode hex="02DA"/>
  <outline>
    <contour>
      <point x="289.300000131" y="1224.69999856" type="curve" smooth="yes"/>
      <point x="236.50000006" y="1224.69999856"/>
      <point x="198.700000226" y="1266.99999857"/>
      <point x="198.700000226" y="1318.29999858" type="curve" smooth="yes"/>
      <point x="198.700000226" y="1368.39999855"/>
      <point x="237.700000107" y="1411.89999861"/>
      <point x="289.300000131" y="1411.89999861" type="curve" smooth="yes"/>
      <point x="341.500000179" y="1411.89999861"/>
      <point x="380.200000048" y="1368.69999856"/>
      <point x="380.200000048" y="1318.29999858" type="curve" smooth="yes"/>
      <point x="380.200000048" y="1267.29999858"/>
      <point x="341.500000179" y="1224.69999856"/>
    </contour>
    <contour>
      <point x="289.300000131" y="1153.09999806" type="curve" smooth="yes"/>
      <point x="389.60000062" y="1153.09999806"/>
      <point x="462.400000691" y="1226.49999839"/>
      <point x="462.400000691" y="1318.99999857" type="curve" smooth="yes"/>
      <point x="462.400000691" y="1411.19999874"/>
      <point x="390.200000644" y="1484.59999907"/>
      <point x="289.300000131" y="1484.59999907" type="curve" smooth="yes"/>
      <point x="188.69999963" y="1484.59999907"/>
      <point x="116.199999571" y="1411.49999875"/>
      <point x="116.199999571" y="1318.99999857" type="curve" smooth="yes"/>
      <point x="116.199999571" y="1226.49999839"/>
      <point x="188.999999642" y="1153.09999806"/>
    </contour>
  </outline>
</glyph>
<glyph name="ogonek" format="1">
  <advance width="543.199999332"/>
  <unicode hex="02DB"/>
  <outline>
    <contour>
      <point x="285.800000072" y="-369.399999499" type="curve" smooth="yes"/>
      <point x="332.200000286" y="-369.399999499"/>
      <point x="391.100000322" y="-355.799999475"/>
      <point x="421.600000739" y="-341.799999356" type="curve"/>
      <point x="421.600000739" y="-341.799999356"/>
      <point x="423.000000596" y="-241.399998665"/>
      <point x="423.400000572" y="-241.399998665" type="curve" smooth="yes"/>
      <point x="404.400000691" y="-249.199998617"/>
      <point x="360.100000441" y="-270.999998689"/>
      <point x="311.600000381" y="-270.999998689" type="curve" smooth="yes"/>
      <point x="261.766500583" y="-270.999998689"/>
      <point x="239.636100517" y="-243.408798563"/>
      <point x="239.636100517" y="-208.577198577" type="curve" smooth="yes"/>
      <point x="239.636100517" y="-136.849998862"/>
      <point x="321.269599672" y="-24.5164696847"/>
      <point x="377.399999976" y="16.000000596" type="curve"/>
      <point x="301.89999944" y="20.8000007868" type="line"/>
      <point x="205.266699876" y="-17.2291292638"/>
      <point x="108.441399771" y="-127.314598666"/>
      <point x="108.441399771" y="-232.357498972" type="curve" smooth="yes"/>
      <point x="108.441399771" y="-314.739199511"/>
      <point x="168.700900295" y="-369.399999499"/>
    </contour>
  </outline>
</glyph>
<glyph name="tilde" format="1">
  <advance width="831.399997592"/>
  <unicode hex="02DC"/>
  <outline>
    <contour>
      <point x="200.199999332" y="1182.99999869" type="line"/>
      <point x="207.418799465" y="1247.93599871"/>
      <point x="230.55359948" y="1274.06599864"/>
      <point x="263.460399447" y="1274.06599864" type="curve" smooth="yes"/>
      <point x="331.709599324" y="1274.06599864"/>
      <point x="443.309198973" y="1182.99999869"/>
      <point x="540.948699098" y="1182.99999869" type="curve"/>
      <point x="617.466200111" y="1182.99999869"/>
      <point x="673.699999869" y="1241.10400002"/>
      <point x="673.699999869" y="1370.19999957" type="curve"/>
      <point x="591.799999118" y="1370.19999957" type="line"/>
      <point x="584.445499022" y="1309.88099964"/>
      <point x="564.726299051" y="1289.93499968"/>
      <point x="535.65579912" y="1289.93499968" type="curve" smooth="yes"/>
      <point x="476.904699252" y="1289.93499968"/>
      <point x="380.02629954" y="1371.14499955"/>
      <point x="269.453599277" y="1371.14499955" type="curve" smooth="yes"/>
      <point x="180.639998269" y="1371.14499955"/>
      <point x="121.099998534" y="1312.29899836"/>
      <point x="121.099998534" y="1182.99999869" type="curve"/>
    </contour>
  </outline>
</glyph>
<glyph name="hungarumlaut" format="1">
  <advance width="715.100002587"/>
  <unicode hex="02DD"/>
  <outline>
    <contour>
      <point x="107.600000262" y="1162.19999802" type="line"/>
      <point x="186.900001347" y="1162.19999802" type="line"/>
      <point x="396.200003147" y="1461.59999871" type="line"/>
      <point x="248.600001812" y="1461.59999871" type="line"/>
    </contour>
    <contour>
      <point x="329.100001156" y="1162.19999802" type="line"/>
      <point x="409.900002182" y="1162.19999802" type="line"/>
      <point x="655.100003541" y="1461.59999871" type="line"/>
      <point x="499.600002289" y="1461.59999871" type="line"/>
    </contour>
  </outline>
</glyph>
<glyph name="uni0311" format="1">
  <advance width="652.999999523"/>
  <unicode hex="0311"/>
  <outline>
    <contour>
      <point x="105.699999034" y="1191.99999881" type="curve"/>
      <point x="196.000000358" y="1191.99999881" type="line"/>
      <point x="196.000000358" y="1283.59999824"/>
      <point x="252.400000215" y="1326.69999796"/>
      <point x="322.299999893" y="1326.69999796" type="curve" smooth="yes"/>
      <point x="391.099999607" y="1326.69999796"/>
      <point x="450.89999944" y="1283.19999826"/>
      <point x="450.89999944" y="1191.99999881" type="curve"/>
      <point x="542.900000751" y="1191.99999881" type="line"/>
      <point x="542.900000751" y="1349.2999987"/>
      <point x="429.600000381" y="1428.69999856"/>
      <point x="321.399999976" y="1428.69999856" type="curve" smooth="yes"/>
      <point x="213.999999523" y="1428.69999856"/>
      <point x="105.699999034" y="1349.69999868"/>
    </contour>
  </outline>
</glyph>
<glyph name="uni031B" format="1">
  <advance width="460.700000942"/>
  <unicode hex="031B"/>
  <outline>
    <contour>
      <point x="192.399999976" y="464.400000334" type="line"/>
      <point x="202.400000095" y="438.900000036"/>
      <point x="216.50000006" y="389.700000107"/>
      <point x="216.50000006" y="344.000000238" type="curve" smooth="yes"/>
      <point x="216.50000006" y="290.30000025"/>
      <point x="195.699999988" y="242.200000405"/>
      <point x="124.599999905" y="242.200000405" type="curve" smooth="yes"/>
      <point x="120.399999976" y="242.200000405"/>
      <point x="113.099999964" y="242.200000405"/>
      <point x="107.50000006" y="242.900000393" type="curve"/>
      <point x="107.50000006" y="152.400000215" type="line"/>
      <point x="126.200000048" y="149.700000226"/>
      <point x="143.900000036" y="148.700000226"/>
      <point x="160.200000048" y="148.700000226" type="curve" smooth="yes"/>
      <point x="291.000000119" y="148.700000226"/>
      <point x="330.30000037" y="222.799999952"/>
      <point x="330.30000037" y="305.800000072" type="curve" smooth="yes"/>
      <point x="330.30000037" y="366.699999869"/>
      <point x="309.800000429" y="430.199999809"/>
      <point x="294.100000203" y="464.400000334" type="curve"/>
    </contour>
  </outline>
</glyph>
<glyph name="Delta" format="1">
  <advance width="1400.49999505"/>
  <unicode hex="0394"/>
  <outline>
    <contour>
      <point x="114.199997783" y="0.0" type="line"/>
      <point x="828.200005412" y="946.399983883" type="line"/>
      <point x="777.19999826" y="1358.90000027" type="line"/>
      <point x="1077.2999894" y="412.500016391" type="line"/>
    </contour>
    <contour>
      <point x="318.899999082" y="133.800000906" type="line"/>
      <point x="991.599992752" y="417.000012159" type="line"/>
      <point x="790.100001395" y="914.299987614" type="line"/>
    </contour>
  </outline>
</glyph>
